<svg xmlns="http://www.w3.org/2000/svg" xmlns:xlink="http://www.w3.org/1999/xlink" id="Layer_1" x="0px" y="0px" viewBox="0 0 300 300" style="enable-background:new 0 0 300 300;" xml:space="preserve"><style type="text/css">	.st0{fill:#EAEAEA;}	.st1{fill:#303030;}	.st2{fill:#96AD77;}	.st3{fill:none;stroke:#557A35;stroke-width:0.3763;stroke-linecap:round;stroke-miterlimit:10;stroke-dasharray:1.0035,1.0035;}	.st4{fill:#FFA68D;}	.st5{fill:#F6F9DE;}	.st6{fill:#B4C68D;}	.st7{opacity:0.1;}	.st8{fill:#69AECC;}	.st9{fill:#FFFFFF;}	.st10{fill:#A8D9E5;}	.st11{fill:#D4F3FF;}	.st12{fill:none;stroke:#EDEDED;stroke-width:0.3763;stroke-linecap:round;stroke-linejoin:round;stroke-miterlimit:10;}	.st13{opacity:0.15;}	.st14{fill:#FFC9AC;}	.st15{fill:none;}	.st16{fill:none;stroke:#B4C68D;stroke-width:0.5017;stroke-miterlimit:10;}	.st17{fill:#111111;}	.st18{fill:#0F0F0F;}	.st19{fill:#D85B52;}	.st20{fill:#FFD8BB;}	.st21{fill:none;stroke:#2F4732;stroke-width:0.4524;stroke-linecap:round;stroke-miterlimit:10;stroke-dasharray:1.2063,1.2063;}	.st22{fill:none;stroke:#2F4732;stroke-width:0.424;stroke-linecap:round;stroke-miterlimit:10;stroke-dasharray:1.1307,1.1307;}	.st23{fill:none;stroke:#84AA6B;stroke-width:0.5017;stroke-miterlimit:10;}	.st24{fill:none;stroke:#F19969;stroke-width:0.3763;stroke-linecap:round;stroke-linejoin:round;stroke-miterlimit:10;}	.st25{fill:#FDFFE6;}	.st26{fill:none;stroke:#9CBC7D;stroke-width:0.5017;stroke-miterlimit:10;}	.st27{fill:#BBBF7B;}	.st28{fill:#679B49;}	.st29{fill:#892020;}	.st30{fill:#FFFFFF;stroke:#2B2B2B;stroke-width:0.3864;stroke-miterlimit:10;}	.st31{fill:#FF9E0F;}	.st32{fill:#FFBE4B;}</style><g>	<g>		<g>			<g>				<g>					<path class="st0" d="M104.3,266.7c-1.6-0.1-3.1-0.1-4.7-0.2c-2.6-0.1-5.2-0.3-7.7-0.7c-0.8-0.1-1.6-0.3-2.3-0.7       c-0.3-0.2-0.6-0.4-0.7-0.7c-0.1-0.3-0.2-0.6-0.2-0.8c-0.1-1.2,0.2-2.5,0.4-3.7c0.3-2,0.4-4.1,0.3-6.2c-0.1-0.9,0.2-1.7,0.1-2.7       c0-0.8-0.2-1.6-0.3-2.5c-0.1-1.3-0.3-2.7-0.3-4c0-1.7,1.8-2.3,3.1-2.4c1.5-0.1,2.9-0.1,4.4,0c0.9,0.1,1.8,0.2,2.6,0.6       c0.3,0.2,0.7,0.3,1,0.6c1.1,0.9,1.6,2.5,1.7,4c0.1,1.7-0.7,3.3-0.6,5c0,1.4-0.6,2.8-0.4,4.2c0.2,1.3,0.9,2.3,2.1,3       c1.2,0.7,2.6,1,3.9,1.4c1.3,0.4,2.6,0.9,3.9,1.5c0.6,0.3,1.2,0.6,1.7,1.1c0.4,0.4,0.7,1,1,1.5c0.3,0.5,0.5,1,0.3,1.5       c-0.2,0.4-0.8,0.6-1.3,0.6C109.5,266.9,106.9,266.8,104.3,266.7z"></path>				</g>			</g>		</g>		<path class="st0" d="M89.4,254.5c6.8,3.2,10.9-0.8,12.1-1.8c0.3,2.8,0.5,5.5,0.8,8.3c0,0-12.9,0.7-13,0.2    C89.2,260.8,89.4,254.5,89.4,254.5z"></path>		<g>			<path class="st1" d="M87.9,264.5c-0.5-1.3-0.2-2.7,0.2-3.9c0.4-1.3,0.3-2.8,0.6-4.2c0.1-0.5,0.2-1,0.6-1.3     c0.1-0.1,0.1-0.1,0.2-0.1c0.2,0,0.3,0.1,0.4,0.2c0.9,1.1,1.5,2.2,3,2.6c0.9,0.3,1.9,0.3,2.9,0.2c1.4-0.1,2.8-0.3,4.2-0.6     c-0.7-1.2-0.9-2.7-0.4-4.1c0.1-0.4,0.3-0.8,0.7-1c0.4-0.2,0.9-0.2,1.4,0c1,0.3,1.9,1.1,2.6,1.9c1.7,1.8,3.4,3.6,5.7,4.6     c1.2,0.5,2.6,0.8,3.5,1.6c1.3,1.1,1.6,3,1.8,4.7c0.2,1.8-0.8,2-2.2,2.1c-1.9,0-3.9,0.1-5.8,0.1c-3.9-0.1-7.8-0.3-11.7-0.8     c-1.5-0.2-3-0.4-4.4-0.6c-0.9-0.2-2.5-0.1-3.1-1C88,264.8,87.9,264.7,87.9,264.5z"></path>		</g>		<g>			<path class="st2" d="M102.7,250.9c-3.3-0.5-6.6-0.3-9.9-0.3c-2.3,0-4.6-0.2-6.9-0.4c0.1,0,0.1-0.1,0.1-0.1     c0.5-2.6-0.2-5.9-0.5-8.5c-0.5-5.5-1.2-11-1.8-16.5c-0.8-6.6-1.5-13.1-2.2-19.7c-0.6-5.8-2.2-12.2,0-17.8     c0.2-0.6,0.5-1.2,0.9-1.6c0.6-0.6,1.5-0.9,2.4-1.2c6-1.7,12.3-1.8,18.6-1.9c5.3-0.1,2.2,7.6,2.1,10.9c-0.3,6.2-0.5,12.5-0.7,18.7     c-0.5,12.5-1.1,24.9-2,37.3C102.9,250.1,102.9,250.6,102.7,250.9z"></path>		</g>		<path class="st3" d="M94,243.3c-1.4-17-1.9-34.1-1.7-51.1"></path>		<g>			<g>				<g>					<path class="st0" d="M79.2,269.4c-1.6-0.1-3.1-0.1-4.7-0.2c-2.6-0.1-5.2-0.3-7.7-0.7c-0.8-0.1-1.6-0.3-2.3-0.7       c-0.3-0.2-0.6-0.4-0.7-0.7c-0.1-0.3-0.2-0.6-0.2-0.8c-0.1-1.2,0.2-2.5,0.4-3.7c0.3-2,0.4-4.1,0.3-6.2c-0.1-0.9,0.2-1.7,0.1-2.7       c0-0.8-0.2-1.6-0.3-2.5c-0.1-1.3-0.3-2.7-0.3-4c0-1.7,1.8-2.3,3.1-2.4c1.5-0.1,2.9-0.1,4.4,0c0.9,0.1,1.8,0.2,2.6,0.6       c0.3,0.2,0.7,0.3,1,0.6c1.1,0.9,1.6,2.5,1.7,4c0.1,1.7-0.7,3.3-0.6,5c0,1.4-0.6,2.8-0.4,4.2c0.2,1.3,0.9,2.3,2.1,3       c1.2,0.7,2.6,1,3.9,1.4c1.3,0.4,2.6,0.9,3.9,1.5c0.6,0.3,1.2,0.6,1.7,1.1c0.4,0.4,0.7,1,1,1.5c0.3,0.5,0.5,1,0.3,1.5       c-0.2,0.4-0.8,0.6-1.3,0.6C84.4,269.6,81.8,269.5,79.2,269.4z"></path>				</g>			</g>		</g>		<g>			<path class="st2" d="M77.4,254.1c-3.3-0.7-6.6-0.5-9.9-0.6c-2.3-0.1-4.6-0.3-6.9-0.7c0.1,0,0.1-0.1,0.1-0.2     c0.6-2.9-0.1-6.7-0.3-9.6c-0.4-6.3-0.9-12.5-1.4-18.8c-0.6-7.5-1.1-14.9-1.7-22.4c-0.5-6.6-1.9-13.9,0.5-20.2     c0.3-0.7,0.5-1.3,1-1.8c0.6-0.7,1.5-1,2.4-1.2c6.1-1.7,12.4-1.7,18.7-1.6c5.3,0,2,8.6,1.8,12.4c-0.4,7.1-0.8,14.1-1.2,21.2     c-0.8,14.1-1.7,28.2-3,42.3C77.6,253.3,77.5,253.8,77.4,254.1z"></path>		</g>		<path class="st3" d="M68.6,247.6c-2.4-18.4-1.2-36.9,3.7-55.4"></path>		<path class="st0" d="M64.2,257.4c6.8,3.2,10.9-0.8,12.1-1.8c0.3,2.8,0.5,5.5,0.8,8.3c0,0-12.9,0.7-13,0.2    C64.1,263.7,64.2,257.4,64.2,257.4z"></path>		<g>			<path class="st1" d="M62.7,267.4c-0.5-1.3-0.2-2.7,0.2-3.9c0.4-1.3,0.3-2.8,0.6-4.2c0.1-0.5,0.2-1,0.6-1.3     c0.1-0.1,0.1-0.1,0.2-0.1c0.2,0,0.3,0.1,0.4,0.2c0.9,1.1,1.5,2.2,3,2.6c0.9,0.3,1.9,0.3,2.9,0.2c1.4-0.1,2.8-0.3,4.2-0.6     c-0.7-1.2-0.9-2.7-0.4-4.1c0.1-0.4,0.3-0.8,0.7-1c0.4-0.2,0.9-0.2,1.4,0c1,0.3,1.9,1.1,2.6,1.9c1.7,1.8,3.4,3.6,5.7,4.6     c1.2,0.5,2.6,0.8,3.5,1.6c1.3,1.1,1.6,3,1.8,4.7c0.2,1.8-0.8,2-2.2,2.1c-1.9,0-3.9,0.1-5.8,0.1c-3.9-0.1-7.8-0.3-11.7-0.8     c-1.5-0.2-3-0.4-4.4-0.6c-0.9-0.2-2.5-0.1-3.1-1C62.9,267.7,62.8,267.6,62.7,267.4z"></path>		</g>		<g>			<path class="st4" d="M74.9,110.9c0.8-1.6,1-3.4,1.2-5.4c0-0.4-1-5-1.2-5c4.2,1.1,10,1.7,14.3,1.8c0,0-0.1,4.7-0.2,5.1     c0,1.1-0.1,2.2-0.1,3.3c0,0.1,0,0.3,0,0.4c0.1,0.3,0.4,0.4,0.6,0.6c0.5,0.3,0.9,0.6,1.3,0.9c0.3,0.2,0.6,0.3,0.9,0.5     c0.8,0.5,1.4,1.7,1.9,2.6c0.1,0.3,0.3,0.6,0.4,0.9c0.1,0.3,0.1,0.6,0.1,1c0,0.8,0,1.5,0.1,2.3c0,0.9,0.1,1.7,0.1,2.6     c0,0.5,0,0.9-0.1,1.4c0,0,0,0,0,0.1c-2.1,0.5-4.2,1-6.3,1.4c-3,0.7-6.3,0.4-9.3-0.2c-2.6-0.5-5.2-1.2-7.8-2     c0.1-1.8,0-3.7,0.1-5.5c0.1-2.2,1.2-3.5,2.6-4.8C74.2,112.1,74.6,111.5,74.9,110.9z"></path>		</g>		<g>			<path class="st5" d="M53.6,167.9c-1.3,12-2.4,26.3-0.5,26.3c4.6,0,9.3-0.1,13.9-0.1c-0.5-5.3-0.6-10.7-0.3-16     c1.6,5.4,3.2,10.9,4.7,16.3c14.3-2.9,27.5,2.3,38.9-7.5c-1.9-11.6-4.1-37.9-5.7-49.5c-0.6-4.3-1.1-8.6-2.5-12.6     c-1.6-4.8-4.8-8.8-7.9-12.5c-0.3-0.4-0.7-0.5-1.2-0.4c-0.5,0.1-0.8,0.2-1.3,0.2c0,0-0.1,0-0.1,0c0,0,0-0.1,0-0.1     c-0.1-0.7-0.1-1.5-0.2-2.3c-2.7-0.3-5.5,1.1-6.7,3.9c-0.6-1.5-1.9-2.7-3.3-3.3c-1.4-0.6-3-0.9-4.5-1.1c-0.7-0.1-3.5-1-4.1-0.5     c-0.5,0.4-0.5,2.7-0.6,3.4c-0.1,0.4-4.7,1.1-5.3,1.3c-2,0.8-3.9,2-5.5,3.5c-4,3.6-4.1,10.3-4.7,15.5c-0.7,6.4-0.8,12.8-1.3,19.2     C55.4,152.7,54.5,159.8,53.6,167.9z"></path>		</g>		<g>			<path class="st5" d="M117.8,146.1c0.4-1,0.5-2.1,0.4-3.1c-1-6.5-2.8-8.1-5.3-14.3c-4.6-11.3-18-16.9-21.1-16.1     c-0.3,0.1-1.2,0.8-1.3,1.1c-0.1,0.2,0,0.5,0,0.7c1.3,4.5,3.8,8.8,5.5,13.3c1.8,4.9,3.5,10.3,3.8,15.5c0.1,1.3,0.2,2.6,0.7,3.8     c0.6,1.4,2.6,2.9,4,3.6c1.8,0.8,4.1,1.2,6.1,1.6c2,0.5,4-0.9,5.3-2.4C116.6,148.7,117.3,147.5,117.8,146.1z"></path>		</g>		<g>			<g>				<path class="st6" d="M84.8,113.5l0.9,9.6l0.6,9.6l1.2,19.2l1.2,19.2l0.5,9.6c0.1,3.2,0.2,6.4,0.1,9.6c-0.1-3.2-0.4-6.4-0.6-9.6      l-0.5-9.6l-1.2-19.2l-1.2-19.2l-0.6-9.6L84.8,113.5z"></path>			</g>			<g>				<path class="st6" d="M88.2,117.6l0.9,8.5l0.6,8.5l1.2,17.1l1.1,17.1l0.5,8.5c0.1,2.9,0.2,5.7,0.1,8.6c0-2.9-0.3-5.7-0.6-8.5      l-0.5-8.5l-1.1-17.1l-1.2-17.1l-0.6-8.5L88.2,117.6z"></path>			</g>			<g>				<path class="st6" d="M71.9,112.5c0.8,0.4,1.7,0.8,2.5,1.2c0.8,0.5,1.6,0.9,2.5,1.3c1.7,0.8,3.4,1.4,5.2,1.8      c0.9,0.1,1.8,0.2,2.7,0c0.9-0.2,1.8-0.5,2.6-0.9c0.8-0.4,1.6-0.9,2.3-1.5c0.8-0.5,1.5-1.1,2.1-1.8c-0.4,0.8-1.1,1.6-1.8,2.2      c-0.7,0.6-1.5,1.1-2.4,1.5c-0.9,0.4-1.8,0.7-2.7,0.9c-1,0.2-1.9,0.1-2.9,0c-1.9-0.4-3.7-1-5.4-1.8c-0.9-0.4-1.7-0.8-2.5-1.3      C73.4,113.6,72.7,113.1,71.9,112.5z"></path>			</g>		</g>		<g>			<path class="st5" d="M55.6,155.7c-0.6-0.9-1.1-1.9-1.2-2.9c-0.8-6.5-0.4-13.4,1-19.8c0.6-2.7,1.2-5.5,2.4-8     c1.2-2.5,1.9-5.6,4.8-6.5c3.1-1,6.4-1.5,9.7-1.6c0.3,0,0.7,0,0.9,0.3c0.1,0.2,0.1,0.4,0.2,0.7c0,4.7-1.3,9.5-1.7,14.2     c-0.4,5.2-0.6,10.8,0.6,16c0.2,1.3,0.5,2.5,0.3,3.8c-0.2,1.5-1.7,3.5-2.9,4.5c-1.5,1.3-3.7,2.2-5.4,3.2c-1.8,1-4.1,0.3-5.7-0.8     C57.5,157.9,56.4,156.9,55.6,155.7z"></path>		</g>		<g>			<path class="st7" d="M111.7,137c-3.8-3.1-7.7-6.2-11.5-9.3c-0.4-0.3-0.8-0.6-1.3-0.8c-0.7-0.3-1.4-0.4-2.2-0.4     c-0.5,0-1,0-1.5,0.1c-0.2,0.1-0.8,0.1-0.9,0.4c-0.1,0.1-0.1,0.1-0.2,0.2c-4.3,5.4-8.6,10.7-13,16c-4.2,5.2-8.2,10.8-12.6,15.8     c-0.1,0.1-0.1,0.2-0.1,0.3c0,0.2,0.1,0.3,0.3,0.4c0.2,0.2,0.4,0.3,0.6,0.5c2,1.7,4.1,3.4,6.1,5c1.7,1.3,8.8,7,10.4,8.3     c2,1.7,4.1,3.3,6.2,4.9c0.2,0.2,0.4,0.3,0.6,0.5c0.1,0.1,0.3,0.2,0.5,0.2c0.1,0,0.1-0.1,0.2-0.2c0,0,0,0,0.1,0     c0.1,0.1,0.3,0.1,0.5,0.1c0.9,0.1,1.9,0.1,2.8,0.1c0.2,0,0.3,0,0.4-0.1c0.1,0.1,0.3,0.2,0.4,0.3c0.1,0.1,0.3,0.2,0.5,0.2     c0.1,0,0.2-0.1,0.2-0.2C102.2,174,115.6,140,111.7,137z"></path>			<path class="st5" d="M103.8,163.9c2.3-2.8,10.6,1.1,15.5,0.4s5.4-6.5,4.8-8.3c-0.5-1.7-8.3-9.1-8.3-9.1"></path>			<g>				<path class="st8" d="M85.7,142.2c1.6-1.9,3.1-3.8,4.6-5.7c1-1.2,1.9-2.4,2.9-3.5c0.5-0.6,1-1.2,1.4-1.8c0.2-0.3,0.4-0.6,0.7-0.8      c0.2-0.2,0.3-0.5,0.3-0.8c0.1-0.8-0.1-1.6-0.4-2.3c-0.3-0.6-0.7-1.1-1.1-1.7c-0.3-0.5,0.6-0.6,0.8-0.6c0.5-0.1,1-0.1,1.5-0.1      c0.8,0,1.5,0.1,2.2,0.4c0.5,0.2,0.9,0.5,1.3,0.8c3.8,3.1,7.7,6.2,11.5,9.3c3.9,3,7.8,6.1,11.7,9.1c0.2,0.2,0.4,0.3,0.5,0.6      c0.1,0.3-0.1,0.5-0.3,0.7c-4.3,5.4-8.5,10.8-12.7,16.2c-4.1,5.3-8.7,10.4-12.6,15.9c-0.1,0.1-0.1,0.2-0.2,0.2      c-0.2,0.1-0.3-0.1-0.5-0.2c-0.2-0.2-0.4-0.3-0.6-0.5c-2.1-1.6-4.2-3.2-6.2-4.9c-1.7-1.4-3.6-2.7-5.1-4.3      c-1.9-1.2-3.6-2.7-5.3-4.1c-2.1-1.6-4.1-3.3-6.1-5c-0.2-0.2-0.4-0.3-0.6-0.5c-0.1-0.1-0.3-0.3-0.3-0.4c0-0.1,0.1-0.2,0.1-0.3      C77.5,153,81.4,147.4,85.7,142.2z"></path>			</g>			<g>				<path class="st9" d="M84.5,141.9c0.9-1.2,1.9-2.3,2.8-3.5c1.4-1.8,2.9-3.5,4.3-5.3c0.7-0.9,1.4-1.8,2.1-2.7      c0.6-0.7,1.5-1.6,1.6-2.5c0-0.4,0-0.7-0.1-1.1c-0.1-0.2-0.1-0.5-0.2-0.7c-0.1-0.1-0.2-0.3-0.1-0.5c0,0,0.1-0.1,0.2-0.1      c0.7-0.3,1.4-0.4,2.1-0.3c0.4,0.1,0.9,0.2,1.2,0.4c0.2,0.1,0.5,0.2,0.7,0.4c0.2,0.2,0.5,0.4,0.7,0.6c0.5,0.4,1,0.8,1.5,1.2      c1,0.8,2,1.6,3,2.4c2,1.6,3.9,3.2,5.9,4.8c3.9,3,7.8,6.1,11.7,9.1c0.2,0.2,0.4,0.3,0.5,0.6c0.1,0.3-0.1,0.5-0.3,0.7      c-4.3,5.4-8.5,10.8-12.7,16.2c-3.7,4.7-7.6,9.2-11.2,13.9c-0.3,0.4-0.6,0.8-0.9,1.2c-0.3,0.4-0.4,0.7-0.9,0.7      c-0.9,0-1.9-0.1-2.8-0.1c-0.2,0-0.3,0-0.5-0.1c-0.2-0.1-0.3-0.3-0.5-0.5c-0.8-1.3-1.8-2.5-2.8-3.6c-1.7-2-4-3.3-5.9-5.2      c-1.9-1.2-3.6-2.7-5.3-4.1c-2.1-1.6-4.1-3.3-6.1-5c-0.2-0.2-0.4-0.3-0.6-0.5c-0.1-0.1-0.3-0.3-0.3-0.4c0-0.1,0.1-0.2,0.1-0.3      C76.3,152.8,80.3,147.2,84.5,141.9z"></path>			</g>			<g>				<path class="st10" d="M80.9,141.6c4.3-5.3,8.7-10.7,13-16c0.2-0.2,0.4-0.4,0.6-0.4c0.2,0,0.5,0.2,0.7,0.3      c3.8,3.1,7.7,6.2,11.5,9.3c3.9,3,7.8,6.1,11.7,9.1c0.2,0.2,0.4,0.3,0.5,0.6c0.1,0.3-0.1,0.5-0.3,0.7      c-4.3,5.4-8.5,10.8-12.7,16.2c-4.1,5.3-8.7,10.4-12.6,15.9c-0.1,0.1-0.1,0.2-0.2,0.2c-0.2,0.1-0.3-0.1-0.5-0.2      c-0.2-0.2-0.4-0.3-0.6-0.5c-2.1-1.6-4.2-3.2-6.2-4.9c-1.7-1.4-8.7-7-10.4-8.3c-2.1-1.6-4.1-3.3-6.1-5c-0.2-0.2-0.4-0.3-0.6-0.5      c-0.1-0.1-0.3-0.3-0.3-0.4c0-0.1,0.1-0.2,0.1-0.3C72.7,152.4,76.6,146.9,80.9,141.6z"></path>			</g>			<g>				<path class="st11" d="M70.3,158.2L92,175.5c0.1,0.1,0.2,0.1,0.2,0.1c0.1,0,0.2,0.1,0.4,0c0.2,0,0.4-0.1,0.6-0.3l23.8-29.9      c0.3-0.4,0.2-0.9-0.1-1.1l0,0l-21.7-17.3c-0.4-0.3-0.9-0.2-1.1,0.1L70.2,157C69.9,157.4,70,157.9,70.3,158.2z M70.5,157.3      l23.7-29.8c0.1-0.1,0.2-0.2,0.3-0.2c0.1,0,0.2,0,0.3,0.1l21.7,17.3l0,0c0.1,0.1,0.2,0.2,0.2,0.3c0,0.1,0,0.2-0.1,0.3l-23.8,29.9      c-0.1,0.1-0.2,0.2-0.3,0.2c-0.1,0-0.2,0-0.3-0.1l-21.7-17.3C70.4,157.7,70.3,157.4,70.5,157.3z"></path>				<path class="st11" d="M72.3,157.3l-0.1,0.1c0,0,0.1,0.1,0.2,0.1c0,0.1,0.1,0.2,0.2,0.3l19.3,15.4c0.1,0.1,0.1,0.1,0.2,0.1      c0.1,0,0.1,0,0.2,0c0,0,0.1,0.1,0.1,0.1l0.1-0.1c0.2,0,0.3-0.1,0.4-0.3l21.8-27.4c0.3-0.3,0.2-0.8-0.1-1.1l0,0l-19.3-15.4      c-0.3-0.3-0.8-0.2-1.1,0.1l-21.8,27.4C72.3,157,72.2,157.1,72.3,157.3z M72.7,157l2-2.5c0.4,0.4,0.6,1,0.5,1.6      c-0.1,0.5-0.5,1-1,1.3c-0.1,0-0.3,0.1-0.4,0.1c-0.4,0.1-0.9,0-1.3-0.2C72.6,157.2,72.6,157.1,72.7,157z M91.7,172.7L91.7,172.7      C91.7,172.6,91.7,172.6,91.7,172.7C91.7,172.6,91.7,172.7,91.7,172.7z M95.8,130.2l2.7,2.2c-0.4,0.4-1,0.6-1.6,0.5      c-0.6-0.1-1.1-0.5-1.3-1.1C95.5,131.2,95.5,130.6,95.8,130.2z M98.9,132.6l2.7,2.2c-0.4,0.4-1,0.6-1.6,0.5      c-0.6-0.1-1.1-0.5-1.3-1.1C98.5,133.6,98.6,133,98.9,132.6z M101.9,135l2.7,2.2c-0.4,0.4-1,0.6-1.6,0.5      c-0.6-0.1-1.1-0.5-1.3-1.1C101.5,136,101.6,135.4,101.9,135z M104.9,137.4l2.7,2.2c-0.4,0.4-1,0.6-1.6,0.5      c-0.6-0.1-1.1-0.5-1.3-1.1C104.5,138.4,104.6,137.9,104.9,137.4z M107.9,139.8l2.7,2.2c-0.4,0.4-1,0.6-1.6,0.5      c-0.6-0.1-1.1-0.5-1.3-1.1C107.6,140.8,107.6,140.3,107.9,139.8z M110.9,142.2l2.7,2.2c-0.4,0.4-1,0.6-1.6,0.5      c-0.6-0.1-1.1-0.5-1.3-1.1C110.6,143.3,110.7,142.7,110.9,142.2z M114.3,145.6l-2.2,2.8c-0.4-0.4-0.6-1-0.5-1.5      c0.1-0.6,0.5-1.2,1.1-1.4C113.1,145.3,113.8,145.3,114.3,145.6z M111.8,148.7l-2.2,2.8c-0.4-0.4-0.6-1-0.5-1.5      c0.1-0.6,0.5-1.2,1.1-1.4C110.7,148.4,111.3,148.4,111.8,148.7z M109.4,151.8l-2.2,2.8c-0.4-0.4-0.6-1-0.5-1.5      c0.1-0.6,0.5-1.2,1.1-1.4C108.2,151.4,108.9,151.5,109.4,151.8z M106.9,154.9l-2.2,2.8c-0.4-0.4-0.6-1-0.5-1.5      c0.1-0.6,0.5-1.2,1.1-1.4C105.8,154.5,106.4,154.6,106.9,154.9z M104.5,158l-2.2,2.8c-0.4-0.4-0.6-1-0.5-1.5      c0.1-0.6,0.5-1.2,1.1-1.4C103.3,157.6,104,157.7,104.5,158z M102,161.1l-2.2,2.8c-0.4-0.4-0.6-1-0.5-1.5      c0.1-0.6,0.5-1.2,1.1-1.4C100.9,160.7,101.5,160.8,102,161.1z M99.5,164.1l-2.2,2.8c-0.4-0.4-0.6-1-0.5-1.5      c0.1-0.6,0.5-1.2,1.1-1.4C98.4,163.8,99,163.8,99.5,164.1z M97.1,167.2l-2.2,2.8c-0.4-0.4-0.6-1-0.5-1.5      c0.1-0.6,0.5-1.2,1.1-1.4C95.9,166.9,96.6,166.9,97.1,167.2z M94.2,169.8c-0.5-0.1-1-0.1-1.4,0.1c-0.4,0.2-0.7,0.5-0.9,0.8      c0,0,0,0,0-0.1c-0.3-0.7-0.9-1.2-1.7-1.2c-0.4-0.1-0.9,0-1.3,0.2c0.1-0.5,0.1-1-0.1-1.4c-0.3-0.7-0.9-1.2-1.7-1.2      c-0.4-0.1-0.9,0-1.3,0.2c0.1-0.5,0.1-1-0.1-1.4c-0.3-0.7-0.9-1.2-1.7-1.2c-0.4-0.1-0.9,0-1.3,0.2c0.1-0.5,0.1-1-0.1-1.4      c-0.3-0.7-0.9-1.2-1.7-1.2c-0.4-0.1-0.9,0-1.3,0.2c0.1-0.5,0.1-1-0.1-1.4c-0.3-0.7-0.9-1.2-1.7-1.2c-0.4-0.1-0.9,0-1.3,0.2      c0.1-0.5,0.1-1-0.1-1.4c-0.3-0.7-0.9-1.2-1.7-1.2c0,0-0.1,0-0.1,0c0.3-0.3,0.6-0.7,0.6-1.2c0.1-0.5,0-1-0.2-1.4      c0.4,0.1,0.9,0.1,1.3,0c0.7-0.3,1.2-0.9,1.4-1.6c0.1-0.5,0-1-0.2-1.4c0.4,0.1,0.9,0.1,1.3,0c0.7-0.3,1.2-0.9,1.4-1.6      c0.1-0.5,0-1-0.2-1.4c0.4,0.1,0.9,0.1,1.3,0c0.7-0.3,1.2-0.9,1.4-1.6c0.1-0.5,0-1-0.2-1.4c0.4,0.1,0.9,0.1,1.3,0      c0.7-0.3,1.2-0.9,1.4-1.6c0.1-0.5,0-1-0.2-1.4c0.4,0.1,0.9,0.1,1.3,0c0.7-0.3,1.2-0.9,1.4-1.6c0.1-0.5,0-1-0.2-1.4      c0.4,0.1,0.9,0.1,1.3,0c0.7-0.3,1.2-0.9,1.4-1.6c0.1-0.5,0-1-0.2-1.4c0.4,0.1,0.9,0.1,1.3,0c0.7-0.3,1.2-0.9,1.4-1.6      c0.1-0.5,0-1-0.2-1.4c0.4,0.1,0.9,0.1,1.3,0c0.7-0.3,1.2-0.9,1.4-1.6c0,0.1,0,0.2,0.1,0.3c0.2,0.6,0.7,1.1,1.3,1.3      c0.1,0,0.2,0.1,0.3,0.1c0.5,0.1,1,0,1.4-0.2c-0.1,0.4-0.1,0.9,0.1,1.3c0.2,0.6,0.7,1.1,1.3,1.3c0.1,0,0.2,0.1,0.3,0.1      c0.5,0.1,1,0,1.4-0.2c-0.1,0.4-0.1,0.9,0.1,1.3c0.2,0.6,0.7,1.1,1.3,1.3c0.1,0,0.2,0.1,0.3,0.1c0.5,0.1,1,0,1.4-0.2      c-0.1,0.4-0.1,0.9,0.1,1.3c0.2,0.6,0.7,1.1,1.3,1.3c0.1,0,0.2,0.1,0.3,0.1c0.5,0.1,1,0,1.4-0.2c-0.1,0.4-0.1,0.9,0.1,1.3      c0.2,0.6,0.7,1.1,1.3,1.3c0.1,0,0.2,0.1,0.3,0.1c0.5,0.1,1,0,1.4-0.2c-0.1,0.4-0.1,0.9,0.1,1.3c0.2,0.6,0.7,1.1,1.3,1.3      c0.1,0,0.2,0.1,0.3,0.1c0.1,0,0.2,0,0.3,0c-0.6,0.3-1,0.9-1.1,1.6c-0.1,0.4,0,0.9,0.2,1.3c-0.5-0.1-1-0.1-1.4,0.1      c-0.7,0.3-1.2,1-1.3,1.7c-0.1,0.4,0,0.9,0.2,1.3c-0.5-0.1-1-0.1-1.4,0.1c-0.7,0.3-1.2,1-1.3,1.7c-0.1,0.4,0,0.9,0.2,1.3      c-0.5-0.1-1-0.1-1.4,0.1c-0.7,0.3-1.2,1-1.3,1.7c-0.1,0.4,0,0.9,0.2,1.3c-0.5-0.1-1-0.1-1.4,0.1c-0.7,0.3-1.2,1-1.3,1.7      c-0.1,0.4,0,0.9,0.2,1.3c-0.5-0.1-1-0.1-1.4,0.1c-0.7,0.3-1.2,1-1.3,1.7c-0.1,0.4,0,0.9,0.2,1.3c-0.5-0.1-1-0.1-1.4,0.1      c-0.7,0.3-1.2,1-1.3,1.7c-0.1,0.4,0,0.9,0.2,1.3c-0.5-0.1-1-0.1-1.4,0.1c-0.7,0.3-1.2,1-1.3,1.7C93.9,168.9,94,169.4,94.2,169.8      z M75,154.2l2.2-2.8c0.4,0.4,0.6,1,0.5,1.6c-0.1,0.6-0.6,1.1-1.1,1.3C76.1,154.6,75.4,154.5,75,154.2z M77.4,151.1l2.2-2.8      c0.4,0.4,0.6,1,0.5,1.6c-0.1,0.6-0.6,1.1-1.1,1.3C78.5,151.5,77.9,151.4,77.4,151.1z M79.9,148l2.2-2.8c0.4,0.4,0.6,1,0.5,1.6      c-0.1,0.6-0.6,1.1-1.1,1.3C81,148.4,80.4,148.3,79.9,148z M82.3,144.9l2.2-2.8c0.4,0.4,0.6,1,0.5,1.6c-0.1,0.6-0.6,1.1-1.1,1.3      C83.4,145.3,82.8,145.2,82.3,144.9z M84.8,141.8l2.2-2.8c0.4,0.4,0.6,1,0.5,1.6c-0.1,0.6-0.6,1.1-1.1,1.3      C85.9,142.2,85.3,142.1,84.8,141.8z M87.3,138.8l2.2-2.8c0.4,0.4,0.6,1,0.5,1.6c-0.1,0.6-0.6,1.1-1.1,1.3      C88.3,139.1,87.7,139.1,87.3,138.8z M89.7,135.7l2.2-2.8c0.4,0.4,0.6,1,0.5,1.6c-0.1,0.6-0.6,1.1-1.1,1.3      C90.8,136,90.2,136,89.7,135.7z M91.4,172.4l-2.7-2.2c0.4-0.4,0.9-0.6,1.5-0.5c0.6,0.1,1.1,0.5,1.4,1c0.1,0.1,0.1,0.3,0.1,0.4      c0,0.1-0.1,0.2-0.1,0.4c0,0.2,0,0.4,0,0.5C91.5,172.2,91.4,172.3,91.4,172.4z M85.6,167.8c0.4-0.4,0.9-0.6,1.5-0.5      c0.6,0.1,1.1,0.5,1.4,1c0.2,0.5,0.2,1.2-0.1,1.7L85.6,167.8z M82.6,165.4c0.4-0.4,0.9-0.6,1.5-0.5c0.6,0.1,1.1,0.5,1.4,1      c0.2,0.5,0.2,1.2-0.1,1.7L82.6,165.4z M79.6,163c0.4-0.4,0.9-0.6,1.5-0.5c0.6,0.1,1.1,0.5,1.4,1c0.2,0.5,0.2,1.2-0.1,1.7      L79.6,163z M76.6,160.6c0.4-0.4,0.9-0.6,1.5-0.5c0.6,0.1,1.1,0.5,1.4,1c0.2,0.5,0.2,1.2-0.1,1.7L76.6,160.6z M73.5,158.2      c0.1-0.2,0.3-0.3,0.5-0.4c0.1,0,0.1,0,0.2-0.1c0,0,0.1,0,0.1-0.1c0.2,0,0.4-0.1,0.6,0c0.6,0.1,1.1,0.5,1.4,1      c0.2,0.5,0.2,1.2-0.1,1.7L73.5,158.2z M73.2,158l-0.1-0.1C73.2,157.9,73.3,157.9,73.2,158C73.3,157.9,73.3,157.9,73.2,158z       M94.4,129.8c0.4,0.4,0.6,1,0.5,1.6c-0.1,0.6-0.6,1.1-1.1,1.3c-0.5,0.2-1.1,0.1-1.6-0.2L94.4,129.8z M95.5,130      c-0.1,0.2-0.2,0.5-0.3,0.7c-0.1-0.4-0.3-0.8-0.6-1.2c0.1-0.1,0.3-0.1,0.4,0L95.5,130z M114.5,145.3c-0.3-0.2-0.7-0.3-1.1-0.3      c0.2-0.1,0.4-0.2,0.5-0.4l0.4,0.3C114.5,145,114.5,145.2,114.5,145.3z M92.6,172.9c-0.1,0.1-0.1,0.1-0.2,0.1      c-0.2-0.3-0.4-0.6-0.4-0.9c0.1-0.3,0.1-0.6,0.1-0.9c0.2-0.4,0.5-0.8,1-1c0.5-0.2,1.2-0.2,1.7,0.1L92.6,172.9z"></path>			</g>			<g>				<path class="st11" d="M88.4,157.7c-1.7-1.4-2.8-3.3-3.1-5.5c-0.2-2.2,0.4-4.3,1.7-6.1l0,0c1.4-1.7,3.3-2.8,5.5-3.1      c2.2-0.2,4.3,0.4,6.1,1.7c3.6,2.8,4.2,8,1.3,11.6c-1.4,1.7-3.3,2.8-5.5,3.1c-1.3,0.1-2.5,0-3.7-0.4      C89.9,158.7,89.1,158.3,88.4,157.7z M92.7,143.4c-2.1,0.2-4,1.3-5.3,2.9l0,0c-1.3,1.6-1.9,3.7-1.7,5.8c0.2,2.1,1.3,4,2.9,5.3      c1.6,1.3,3.7,1.9,5.8,1.7c2.1-0.2,4-1.3,5.3-2.9c2.7-3.4,2.1-8.4-1.3-11.1c-0.7-0.6-1.5-1-2.3-1.3      C95.1,143.4,93.9,143.3,92.7,143.4z"></path>			</g>			<path class="st12" d="M120.4,145.6c-2.9,3.9-6,7.7-9.1,11.4"></path>			<path class="st12" d="M102.8,168.1c-2.3,2.6-4.5,5.2-6.6,8"></path>			<path class="st12" d="M119.9,143.9c-4.4-3.4-8.7-6.9-12.9-10.4"></path>			<path class="st12" d="M104.3,131.8c-1.4-1.3-2.9-2.6-4.4-3.9"></path>		</g>		<g class="st13">			<g>				<g>					<g>						<path d="M87.1,159.6c1,0.5,2.1,0.9,3.2,1.2c1.8,0.5,3.7,0.3,5.5,0.8c-0.5,1.1-0.8,2.2-1.3,3.3c-0.4,1.1-0.8,2.1-1.2,3.2        c-0.4,1.1-0.6,2-1.3,2.9c-1-0.7-1.7-1.5-2.8-2c-0.6-0.3-1.2-0.5-1.9-0.6c-1.8-0.4-3.6-0.7-5.5-0.7c-0.2,0-0.4,0-0.4-0.2        c0-0.1,0-0.2,0-0.2c0.6-1.5,1.2-3.1,1.9-4.6c0.4-0.8,0.7-1.6,1.1-2.4c0.3-0.6,0.4-1.4,0.7-1.9        C85.7,158.8,86.4,159.2,87.1,159.6z"></path>					</g>					<g>						<g>							<path d="M105.8,167.8c-0.5,0-0.9,0-1.4,0.2c0.7,0.2,1.4,0.4,2.1,0.6c0.3,0.1,0.6,0.2,0.7,0.4c0.1,0.1,0.1,0.3,0,0.5         c-0.2,0.9-1.2,1.3-2.1,1.6c0.5,0.1,0.7,0.8,0.4,1.3c-0.2,0.5-0.7,0.7-1.2,0.9c-0.8,0.3-1.6,0.6-2.5,0.4         c0.3,0.3,0.2,0.8,0,1.1c-0.3,0.3-0.7,0.4-1,0.5c-2,0.4-4-1.2-5.5-2.2c-0.7-0.4-1.3-0.7-2-1c-0.8-0.5-1.6-1-2.3-1.6         c-0.7-0.5-1.5-0.8-1.6-1.8c-0.1-1.7,0-3.6,0.9-5.1c0.3-0.5,0.7-1,1.2-1.4c0.5-0.4,1-0.5,1.6-0.6c1.4-0.4,2.8-0.9,4.3-0.9         c1.8,0,3.5,0.6,5.2,0.8c0.7,0.1,2.7,0.5,1.6,1.5c-0.4,0.4-1,0.4-1.6,0.5c-0.2,0-2,0.4-2,0.5c0.4,0.7,1.8,1.3,2.6,1.4         c1.4,0.3,2.8,0.1,4.2,0.2c0.4,0,0.9,0.1,1,0.5c0.2,0.4-0.1,0.8-0.5,1.1c-0.5,0.4-1.1,0.7-1.7,0.8         C106.2,167.8,106,167.8,105.8,167.8z"></path>						</g>					</g>				</g>			</g>			<g>				<path d="M70.1,147.8c-0.9-0.6-1.9-1.1-3-1.4c-2.6-0.5-5.4-0.7-7.8,0.6c-2.6,1.4-4.2,4.4-3.9,7.3c0.8,6.2,7.4,8.7,12.5,10.8      c1.6,0.6,18.4,5.6,18.6,4.2c0.2-1.1,4.1-9.3,3.9-9.4c-6-2.6-11.8-5.7-17.1-9.6C72.2,149.4,71.2,148.5,70.1,147.8z"></path>			</g>		</g>		<g>			<g>				<g>					<g>						<path class="st14" d="M86.4,157.5c1,0.5,2.1,0.9,3.2,1.2c1.9,0.5,3.8,0.3,5.6,0.9c-0.5,1.1-0.8,2.3-1.3,3.4        c-0.4,1.1-0.8,2.1-1.2,3.2c-0.4,1.1-0.6,2-1.4,3c-1-0.7-1.8-1.6-2.9-2.1c-0.6-0.3-1.3-0.5-1.9-0.6c-1.8-0.4-3.7-0.7-5.6-0.7        c-0.2,0-0.4,0-0.4-0.2c0-0.1,0-0.2,0-0.2c0.6-1.6,1.2-3.1,1.9-4.7c0.4-0.8,0.7-1.6,1.1-2.5c0.3-0.6,0.4-1.4,0.7-1.9        C85,156.7,85.7,157.1,86.4,157.5z"></path>					</g>					<g>						<g>							<path class="st14" d="M105.5,165.9c-0.5,0-0.9,0-1.4,0.2c0.7,0.2,1.4,0.4,2.1,0.6c0.3,0.1,0.6,0.2,0.7,0.4         c0.1,0.1,0.1,0.3,0,0.5c-0.2,0.9-1.3,1.3-2.2,1.6c0.5,0.1,0.7,0.8,0.5,1.3c-0.2,0.5-0.7,0.7-1.2,1c-0.8,0.4-1.7,0.6-2.5,0.4         c0.3,0.3,0.2,0.8,0,1.1c-0.3,0.3-0.7,0.4-1.1,0.5c-2,0.4-4-1.2-5.6-2.3c-0.7-0.4-1.3-0.7-2-1.1c-0.8-0.5-1.6-1.1-2.3-1.6         c-0.7-0.5-1.5-0.9-1.6-1.9c-0.1-1.8,0-3.6,1-5.2c0.3-0.5,0.8-1,1.3-1.4c0.6-0.4,1-0.5,1.6-0.6c1.4-0.4,2.8-0.9,4.3-0.9         c1.8,0,3.5,0.6,5.3,0.8c0.7,0.1,2.7,0.5,1.6,1.6c-0.4,0.4-1,0.4-1.6,0.5c-0.2,0-2.1,0.4-2,0.5c0.5,0.7,1.8,1.3,2.6,1.5         c1.4,0.3,2.9,0.1,4.3,0.2c0.4,0,0.9,0.1,1.1,0.5c0.2,0.4-0.1,0.8-0.5,1.1c-0.5,0.4-1.1,0.7-1.7,0.8         C105.8,165.9,105.7,165.9,105.5,165.9z"></path>						</g>					</g>				</g>			</g>			<g>				<path class="st5" d="M69.1,145.4c-0.9-0.6-1.9-1.2-3.1-1.4c-2.6-0.5-5.5-0.7-7.9,0.6c-2.6,1.4-4.3,4.5-4,7.4      c0.8,6.3,7.6,8.9,12.7,11c1.7,0.7,18.7,5.7,18.9,4.3c0.2-1.2,4.1-9.5,4-9.6c-6.1-2.7-12-5.8-17.4-9.8      C71.2,147.2,70.2,146.2,69.1,145.4z"></path>			</g>		</g>		<g>			<g>				<g>					<g>						<g>							<g>								<path class="st14" d="M109,150.7c0.3,0.4,0.6,0.7,0.8,1.1c-0.6-0.4-1.2-0.8-1.8-1.2c-0.2-0.2-0.5-0.3-0.8-0.2          c-0.1,0-0.3,0.2-0.4,0.3c-0.5,0.7-0.2,1.8,0.2,2.6c-0.4-0.3-1,0-1.2,0.5c-0.2,0.5-0.1,1,0,1.5c0.2,0.8,0.6,1.6,1.3,2.1          c-0.4,0-0.7,0.3-0.8,0.7c0,0.4,0.1,0.8,0.3,1.1c0.9,1.7,3.4,2.2,5.2,2.7c0.7,0.2,1.3,0.6,2,0.8c0.9,0.3,1.8,0.5,2.7,0.7          c0.8,0.2,1.6,0.6,2.4,0c1.4-1,2.6-2.3,3.2-4c0.2-0.6,0.3-1.2,0.2-1.8c0-0.7-0.3-1-0.5-1.6c-0.6-1.3-1.1-2.6-2-3.7          c-1.1-1.4-2.7-2.2-3.9-3.4c-0.5-0.5-2.1-1.7-2.2-0.2c0,0.6,0.3,1,0.6,1.5c0.1,0.1,1,1.8,0.9,1.8c-0.8,0.1-2.1-0.5-2.7-1          c-1.1-0.8-1.9-2-2.8-3c-0.3-0.3-0.6-0.6-1-0.5c-0.4,0.1-0.5,0.6-0.5,1c0,0.6,0.2,1.3,0.5,1.8          C108.8,150.5,108.9,150.6,109,150.7z"></path>							</g>						</g>					</g>				</g>			</g>		</g>		<g>			<path class="st6" d="M54.3,152c0.2,1.6,0.9,3,1.9,4.2c1,1.2,2.2,2.2,3.5,3c1.3,0.8,2.7,1.5,4.1,2.2c0.7,0.3,1.4,0.6,2.2,0.9     c0.7,0.3,1.4,0.6,2.2,0.8c3,0.9,6,1.8,9,2.6c1.5,0.4,3,0.8,4.6,1.1c0.8,0.2,1.5,0.3,2.3,0.4c0.4,0.1,0.8,0.1,1.1,0.1     c0.2,0,0.4,0,0.5,0c0,0,0,0,0,0c0,0,0,0,0,0c0,0,0,0,0,0l0,0c0-0.1,0.1-0.2,0.1-0.3c1.1-3,2.5-5.8,3.7-8.7     c0.1-0.2,0.2-0.4,0.2-0.5l0,0c0,0,0,0.1,0,0.1c0,0.1,0.1,0.1,0.1,0.1l-0.1,0l-0.1-0.1l-0.3-0.1l-1.1-0.5l-2.1-1     c-1.4-0.7-2.8-1.4-4.2-2.1c-2.8-1.5-5.5-3.1-8-4.9c-0.6-0.5-1.3-0.9-1.9-1.4l-1.8-1.5c-1.2-1-2.5-1.9-4-2.3     c1.6,0.3,2.9,1.1,4.2,2.1c1.2,1,2.5,1.9,3.8,2.8c2.6,1.8,5.2,3.4,8,4.9c1.4,0.7,2.8,1.4,4.2,2.1l2.1,1l1.1,0.5l0.3,0.1l0.1,0.1     l0.1,0c0,0,0.1,0.1,0.1,0.1c0,0.1,0,0.2,0,0.2l0,0.1c-0.1,0.2-0.1,0.4-0.2,0.6c-1.2,2.9-2.6,5.7-3.7,8.6c0,0.1-0.1,0.2-0.1,0.3     l0,0c0,0,0,0.1,0,0.1c0,0.1-0.1,0.1-0.1,0.1c-0.1,0.1-0.2,0.1-0.2,0.1c-0.3,0.1-0.5,0.1-0.7,0.1c-0.4,0-0.8-0.1-1.2-0.1     c-0.8-0.1-1.6-0.3-2.3-0.4c-1.5-0.3-3.1-0.7-4.6-1.1c-3-0.8-6.1-1.6-9.1-2.6c-0.8-0.2-1.5-0.5-2.2-0.8c-0.7-0.3-1.5-0.6-2.2-0.9     c-1.4-0.6-2.9-1.3-4.2-2.2c-1.3-0.9-2.5-2-3.4-3.3C55.1,155.1,54.5,153.6,54.3,152z"></path>		</g>		<g>			<path class="st15" d="M71.7,147.1"></path>		</g>		<g>			<path class="st15" d="M71.2,131.1"></path>		</g>		<path class="st16" d="M77.7,166.4c1.7-3.9,3.4-7.8,5.2-11.6"></path>		<rect x="68.3" y="130.3" class="st17" width="12.2" height="3.4"></rect>		<g>			<path class="st9" d="M72,131v2h-0.5v-0.8h-0.8v0.8h-0.5v-2h0.5v0.8h0.8V131H72z"></path>			<path class="st9" d="M72.3,131.7c0.1-0.1,0.1-0.2,0.3-0.3s0.2-0.1,0.4-0.1c0.1,0,0.2,0,0.3,0.1c0.1,0,0.1,0.1,0.2,0.2v-0.2h0.5     v1.6h-0.5v-0.2c0,0.1-0.1,0.1-0.2,0.2c-0.1,0-0.2,0.1-0.3,0.1c-0.1,0-0.2,0-0.4-0.1c-0.1-0.1-0.2-0.2-0.3-0.3     c-0.1-0.1-0.1-0.3-0.1-0.4S72.3,131.8,72.3,131.7z M73.3,131.9c-0.1-0.1-0.1-0.1-0.2-0.1s-0.2,0-0.2,0.1     c-0.1,0.1-0.1,0.2-0.1,0.3c0,0.1,0,0.2,0.1,0.3c0.1,0.1,0.1,0.1,0.2,0.1s0.2,0,0.2-0.1c0.1-0.1,0.1-0.2,0.1-0.3     S73.4,131.9,73.3,131.9z"></path>			<path class="st9" d="M75.7,131.5c0.1,0.1,0.2,0.3,0.2,0.5v0.9h-0.5v-0.9c0-0.1,0-0.2-0.1-0.2c-0.1-0.1-0.1-0.1-0.2-0.1     s-0.2,0-0.2,0.1c-0.1,0.1-0.1,0.1-0.1,0.2v0.9h-0.5v-1.6h0.5v0.2c0-0.1,0.1-0.1,0.2-0.2c0.1,0,0.2-0.1,0.3-0.1     C75.4,131.3,75.5,131.4,75.7,131.5z"></path>			<path class="st9" d="M76.2,131.1c-0.1-0.1-0.1-0.1-0.1-0.2c0-0.1,0-0.1,0.1-0.2c0.1-0.1,0.1-0.1,0.2-0.1c0.1,0,0.2,0,0.2,0.1     s0.1,0.1,0.1,0.2c0,0.1,0,0.1-0.1,0.2s-0.1,0.1-0.2,0.1C76.3,131.2,76.2,131.2,76.2,131.1z M76.6,131.4v1.6h-0.5v-1.6H76.6z"></path>			<path class="st9" d="M77.8,131.8h-0.3v1.2H77v-1.2h-0.2v-0.4H77v0c0-0.2,0.1-0.3,0.2-0.4c0.1-0.1,0.3-0.2,0.5-0.2     c0,0,0.1,0,0.1,0v0.4c-0.1,0-0.2,0-0.2,0c0,0-0.1,0.1-0.1,0.2v0h0.3V131.8z"></path>		</g>		<g>			<g>				<path class="st4" d="M60.8,83.9c-3.2,0-5.8,2.5-5.8,5.7l0,0c0,3.2,2.5,5.8,5.7,5.8l3.1,0l0.1-11.5L60.8,83.9z"></path>				<path class="st4" d="M106.7,84.4c3.2,0,5.7,2.6,5.7,5.8l0,0c0,3.2-2.6,5.7-5.8,5.7l-3.1,0l0.1-11.5L106.7,84.4z"></path>									<ellipse transform="matrix(0.7071 -0.7071 0.7071 0.7071 -35.3102 84.0308)" class="st14" cx="83.8" cy="84.6" rx="23" ry="23"></ellipse>				<g>					<g>						<path class="st18" d="M68.5,81.6c-0.2,0-0.3,0-0.5-0.1c-0.5-0.3-0.6-0.9-0.3-1.3c1.8-3.1,5.9-4.2,9-2.4        c0.5,0.3,0.6,0.9,0.3,1.3c-0.3,0.5-0.9,0.6-1.3,0.3c-2.2-1.3-5.1-0.6-6.4,1.7C69.1,81.4,68.8,81.6,68.5,81.6z"></path>					</g>					<g>						<path class="st18" d="M99.2,81.9c-0.3,0-0.7-0.2-0.8-0.5c-1.3-2.3-4.1-3.1-6.4-1.8c-0.5,0.3-1,0.1-1.3-0.4        c-0.3-0.5-0.1-1,0.4-1.3c3.2-1.8,7.2-0.6,9,2.6c0.3,0.5,0.1,1-0.4,1.3C99.5,81.9,99.3,82,99.2,81.9z"></path>					</g>				</g>				<path class="st18" d="M105.9,90.9c-0.9-3-0.2-8.9-1.1-11.3c-2.8-1.1-4.3-3.5-5-6.5c-0.1-0.6-0.2-1.2-0.5-1.8      c-0.2-0.6-0.7-1.4-1.3-1.6c-3.4,3-8.5,4-12.7,2.5c-2.6-0.9-4.9-2.7-7.6-3.7c-2.6-1-6-0.9-7.8,1.2c0.5,2-1,4.3-2.5,5.7      c-1.5,1.4-3.3,2.6-4.5,4.3c-1.7,2.7-0.2,6.8-1.7,9.8c-1.8-2.9-2.4-6.5-1.6-9.8c0.5-1.9,1.4-3.8,1.7-5.7c0.5-2.9-0.2-6,0.3-8.9      c0.5-2.9,2.3-5.6,4.8-7.2c2.5-1.6,5.7-2.1,8.5-1.3c3.4-1.8,6.9-3.2,10.6-4.1c3.7-1,7.8-1,11.3,0.7c3.4,1.7,6,5.5,5.6,9.3      c2.2,0.7,3.7,2.7,4.5,4.8c0.8,2.2,0.8,4.5,0.6,6.8c-0.1,2.3-0.4,4.6-0.3,6.9c0.1,1.6,0.5,3.3,0.4,4.9      C107.9,87.8,107.2,89.8,105.9,90.9z"></path>				<g>					<path class="st18" d="M73.7,89.6c-1.1,0-2-0.9-2-2.1c0-1.1,0.9-2,2.1-2c1.1,0,2,0.9,2,2.1C75.7,88.8,74.8,89.7,73.7,89.6z"></path>					<path class="st18" d="M94,89.9c-1.1,0-2-0.9-2-2.1c0-1.1,0.9-2,2.1-2c1.1,0,2,0.9,2,2.1C96.1,89,95.2,89.9,94,89.9z"></path>				</g>				<g>					<g>						<path class="st19" d="M80,96.3c-0.2,0-0.3,0.1-0.4,0.2c-0.4,0.4-0.4,1,0,1.4c2.5,2.6,6.7,2.8,9.3,0.2c0.4-0.4,0.4-1,0-1.4        c-0.4-0.4-1-0.4-1.4,0c-1.9,1.8-4.9,1.7-6.6-0.2C80.7,96.4,80.3,96.3,80,96.3z"></path>					</g>				</g>			</g>		</g>		<g>			<path class="st2" d="M86.4,251.4c0.4,0.1,0.9,0,1.2,0c0.8,0,1.7,0.1,2.5,0.1c3.3,0.1,6.7,0,10,0c0.7,0,1.5,0.1,2.1,0     c0.4-0.1,1.2-0.1,1.5-0.3c0.1-0.1,0.2-0.3,0.2-0.5c0.2-2,0.2-4,0.2-6c0-0.4,0.2-1.3-0.2-1.6c-0.5-0.4-1.8-0.1-2.3-0.1     c-2.7,0.2-5.4,0.1-8.2,0.1c-1.4,0-2.7,0-4.1,0c-1,0-1.9,0-2.9,0c-0.2,0-0.5,0-0.7,0.1c-0.3,0.1-0.2,0.1-0.3,0.4     c-0.1,0.5,0,1.1,0,1.6c0,0.4,0,0.9,0,1.3c0,0.8,0.1,1.7,0.1,2.5c0,0.5-0.1,1.5,0.1,2C85.9,251.3,86.1,251.4,86.4,251.4z"></path>		</g>		<g>			<path class="st2" d="M61,254.8c0.4,0.1,0.9,0,1.2,0.1c0.8,0.1,1.7,0.1,2.5,0.1c3.3,0.1,6.7,0.2,10,0.3c0.7,0,1.5,0.1,2.1,0     c0.4-0.1,1.2,0,1.5-0.3c0.1-0.1,0.2-0.3,0.2-0.5c0.2-2,0.3-4,0.4-6c0-0.4,0.3-1.3-0.1-1.6c-0.4-0.4-1.8-0.2-2.3-0.1     c-2.7,0.1-5.4,0-8.2-0.1c-1.4,0-2.7-0.1-4.1-0.1c-1,0-1.9-0.1-2.9,0c-0.2,0-0.5,0-0.7,0.1c-0.3,0.1-0.2,0-0.3,0.4     c-0.1,0.5,0,1.1,0,1.6c0,0.4,0,0.9,0,1.3c0,0.8,0,1.7,0,2.5c0,0.5-0.2,1.5,0.1,2C60.5,254.6,60.7,254.7,61,254.8z"></path>		</g>	</g></g><g>	<g>		<g>			<g>				<path class="st0" d="M182.6,244.6c-0.4,0.2-0.7,0.4-1,0.6c-1.2,1-1.7,2.5-1.8,4c-0.1,1.8,0.7,3.4,0.7,5.1      c0.5,2.8,0.6,7.6,2.9,9.5c0.7,0.6,1.7,0.8,2.6,0.8c1.7,0,3.2-1,4.4-2.2c1-1.1,2.3-2.7,2.4-4.3c0.1-0.9,0-1.9-0.1-2.8      c-0.1-3,0.5-5.9,0.6-8.9c0-1.7-1.9-2.3-3.3-2.4c-1.5-0.1-3.1-0.1-4.6,0C184.4,244.1,183.4,244.2,182.6,244.6z"></path>			</g>			<g>				<path class="st1" d="M194.6,267.5c0.5-1.2,0.2-2.6-0.2-3.7c-0.4-1.3-0.3-2.7-0.6-4c-0.1-0.5-0.2-0.9-0.6-1.3      c-0.1-0.1-0.1-0.1-0.2-0.1c-0.2,0-0.3,0.1-0.4,0.2c-0.9,1.1-1.5,2.1-3,2.5c-0.9,0.3-1.9,0.3-2.9,0.2c-1.4-0.1-2.8-0.3-4.2-0.6      c0.7-1.2,0.9-2.6,0.4-3.9c-0.1-0.4-0.3-0.7-0.7-0.9c-0.4-0.2-0.9-0.2-1.4,0c-1,0.3-1.9,1.1-2.6,1.8c-1.7,1.7-3.4,3.5-5.7,4.4      c-1.2,0.5-2.6,0.7-3.5,1.6c-1.3,1.1-1.6,2.9-1.8,4.5c-0.2,1.7,0.8,2,2.2,2c1.9,0,3.9,0.1,5.8,0.1c3.9-0.1,7.8-0.3,11.7-0.8      c1.5-0.2,3-0.4,4.4-0.6c0.9-0.1,2.5-0.1,3.1-1C194.5,267.8,194.6,267.7,194.6,267.5z"></path>			</g>		</g>		<g>			<g>				<path class="st0" d="M216.7,244.6c0.4,0.2,0.7,0.4,1,0.6c1.2,1,1.7,2.5,1.8,4c0.1,1.8-0.7,3.4-0.7,5.1c-0.5,2.8-0.6,7.6-2.9,9.5      c-0.7,0.6-1.7,0.8-2.6,0.8c-1.7,0-3.2-1-4.4-2.2c-1-1.1-2.3-2.7-2.4-4.3c-0.1-0.9,0-1.9,0.1-2.8c0.1-3-0.5-5.9-0.6-8.9      c0-1.7,1.9-2.3,3.3-2.4c1.5-0.1,3.1-0.1,4.6,0C214.8,244.1,215.8,244.2,216.7,244.6z"></path>			</g>			<g>				<path class="st1" d="M204.6,267.5c-0.5-1.2-0.2-2.6,0.2-3.7c0.4-1.3,0.3-2.7,0.6-4c0.1-0.5,0.2-0.9,0.6-1.3      c0.1-0.1,0.1-0.1,0.2-0.1c0.2,0,0.3,0.1,0.4,0.2c0.9,1.1,1.5,2.1,3,2.5c0.9,0.3,1.9,0.3,2.9,0.2c1.4-0.1,2.8-0.3,4.2-0.6      c-0.7-1.2-0.9-2.6-0.4-3.9c0.1-0.4,0.3-0.7,0.7-0.9c0.4-0.2,0.9-0.2,1.4,0c1,0.3,1.9,1.1,2.6,1.8c1.7,1.7,3.4,3.5,5.7,4.4      c1.2,0.5,2.6,0.7,3.5,1.6c1.3,1.1,1.6,2.9,1.8,4.5c0.2,1.7-0.8,2-2.2,2c-1.9,0-3.9,0.1-5.8,0.1c-3.9-0.1-7.8-0.3-11.7-0.8      c-1.5-0.2-3-0.4-4.4-0.6c-0.9-0.1-2.5-0.1-3.1-1C204.7,267.8,204.6,267.7,204.6,267.5z"></path>			</g>		</g>		<g>			<path class="st2" d="M226.5,204.3c0-18.3-0.1-36.5-0.3-54.8c-3.9,0-14.1,5.1-22.9,19.8c-4.8-16.2-12.9-26.4-27.2-19.8     c-0.2,18.3-0.3,36.5-0.3,54.8c0,16.8-0.8,34.7,0.3,51.2c0,0.7,0.1,1.4,0.3,2c3.5-1.1,7-0.7,10.5-0.8c2.4-0.1,4.8,0.8,7.3,0.3     c-1,0.2,12.1,2.6,17.8-0.6c1.2,0.2,2.4,0.3,3.5,0.3c3.5,0.1,7-0.3,10.5,0.8c0.2-0.6,0.2-1.3,0.3-2     C227.3,238.9,226.5,221.1,226.5,204.3z"></path>		</g>		<path class="st20" d="M239,108.1c0,0.2,0-0.4-0.1-0.8c-0.3-1.7-2.2-2.9-2.7-4.6c-0.4-1.2-0.8-2.3-1.5-3.3    c-0.2-0.3-0.4-0.5-0.6-0.7c-0.2-0.2-0.4-0.5-0.6-0.7c-0.1-0.1-1.3-1.9-1.2-2.1c0.1-0.4,1.2-1.2,2.8-0.2c0.7,0.4,1.6,1.7,2.1,2.4    c0.2,0.3,0.7,0.5,1,0.6c0.1,0,0.3,0,0.4,0c0.7-0.3,0.9-1.1,1.1-1.8c0.6-2,2.5-7.7,2.9-8.6c0.2-0.5,0.5-1.3,1-1.6    c0.5-0.2,1.2-0.2,1.4,0.3c0.1,0.3-0.1,1.4-0.2,1.7c-0.5,2-0.9,4.1-1,5.6c0.3,0.8,3.9-5.4,5.3-6.9c0.4-0.5,1.1-1,1.7-0.7    c0.4,0.2,0.5,0.6,0.5,1c0,0.4-0.6,1.3-0.8,1.7c-1.1,1.8-3.6,6.1-3.3,6.3c0.3,0.1,3.4-3.1,4.6-4.5c0.3-0.4,1.3-1.3,1.9-1.2    c0.4,0.1,0.7,0.5,0.8,0.9c0.2,0.9-4.7,6.9-4.7,7c0,0.2,0,0.8,1.1,0.3c1.2-0.5,4.5-3.2,5.3-2.3c0.3,0.3,0.2,0.7,0.1,1    c-0.1,0.3-0.6,0.6-0.9,0.9c-1,0.9-3.9,3.5-4.6,4.2c-0.6,0.7-1,1.4-1.5,2.2c-1,1.7-2,3.4-2.2,5.3c0,0.1,0,0.2-0.1,0.2    c-0.1,0-0.2,0.1-0.2,0.1c-1.8,0-3.6,0-5.4-0.5C240.5,109.1,239.4,109,239,108.1z"></path>		<g>			<path class="st5" d="M172.5,186.8c-0.8-0.7-1.5-1.5-1.9-2.4c-2.5-5.9-3.8-12.5-4.2-18.9c-0.2-2.7-0.3-5.5,0.2-8.2     c0.4-2.6,0.3-5.8,2.8-7.4c2.7-1.7,5.7-3.1,8.7-4.1c0.3-0.1,0.6-0.2,0.9,0c0.2,0.1,0.3,0.4,0.3,0.6c1.3,4.4,1.2,9.2,2.2,13.8     c1,5,2.3,10.3,4.7,14.9c0.5,1.1,1.1,2.3,1.3,3.5c0.2,1.5-0.7,3.8-1.5,5c-1.1,1.6-2.8,3.1-4.2,4.4c-1.5,1.4-3.8,1.3-5.6,0.7     C174.8,188.3,173.5,187.7,172.5,186.8z"></path>		</g>		<path class="st5" d="M215.7,140.4c7-3.9,12.2-7.2,15.9-14.4c3.4-6.6,4-12,5.3-18.8c4-1.1,9.3,0.1,12.1,1.8    c1.2,6.5-0.7,22.8-10.1,36.6c-3.6,5.2-15.2,18.4-20,22.5c-2.5-2.3-3-14.8-4.9-18.1C212.2,146.7,216.5,143.9,215.7,140.4z"></path>		<path class="st21" d="M224.5,167c-0.3,30.2-0.1,60.5,0.6,90.7"></path>		<path class="st22" d="M178.3,254.5c-0.2-25.6,0.2-51.2,1.2-76.6"></path>		<path class="st23" d="M195.8,131.8"></path>		<g>			<path class="st24" d="M189.8,119.5c0,0,9.5,6.4,22.2-0.1"></path>			<g>				<path class="st25" d="M222.9,100.7c-1.5-5-1-10.5-2.4-15.4c-0.4-1.4-2.6-4.2-4.3-4.1c-1.6,0.1-3.2,0.8-4.9,0.5      c-1.6-0.3-3.2-1.2-4.7-1.8c-3.5-1.3-7.2-2.1-10.5-4c-1.7-1-4-3.2-6-3.3c-1.8-0.1-3.4,2.7-4.5,4.1c-1.4,1.7-2.5,3.6-3.5,5.5      c-0.9,1.8-2.2,3.4-3,5.2c-0.9,2.1-2.4,4.3-3.1,6.5c-1.4,4.8-4.3,24.3-7.3,29.4c-9.1,15.4-8.1,41.7-8.1,42c0,5,13.2,3.8,17.1,7.5      c2.8,2.7,10.7,4.1,21.6,5.5c8.9,1.2,23.1-1.9,24.1-4.7c5.7-16.4,8.1-41.5,9.1-44C234.8,123.7,227,114.7,222.9,100.7z"></path>			</g>			<g>				<path class="st20" d="M199.1,122.9c-5.1,0-14.5-5.1-16.5-16c-0.4-2.2-0.3-4.3,0-6.5c0.3-2.4,0.8-4.7,1.6-7      c1.1-2.9,2.8-5.6,5.4-7.6L208,86c2.6,2,4.4,4.7,5.5,7.6c0.9,2.3,1.4,4.6,1.7,7c0.3,2.2,0.5,4.3,0.1,6.5      C213.5,117.9,204.1,123,199.1,122.9"></path>			</g>			<path class="st23" d="M165.7,133.1"></path>			<path class="st26" d="M239.6,130.7"></path>			<g>				<g>					<path class="st19" d="M194.9,112.5c-0.1,0-0.3,0.1-0.4,0.2c-0.3,0.3-0.3,0.9,0,1.2c2.4,2.3,6.3,2.3,8.6-0.1       c0.3-0.3,0.3-0.9,0-1.2c-0.3-0.3-0.9-0.3-1.2,0c-1.7,1.7-4.4,1.7-6.1,0.1C195.6,112.4,195.2,112.4,194.9,112.5z"></path>				</g>			</g>			<path class="st1" d="M216.2,102.3l-3.2,0c-0.2-3.3-3-5.8-6.4-5.8c-3.5,0-6.3,2.8-6.3,6.2c-0.9-0.5-2-0.4-2.9,0     c-0.1-3.4-2.9-6.2-6.4-6.1c-3.4,0-6.1,2.7-6.3,5.9l-3.4,0c-0.2,0-0.4,0.2-0.4,0.4c0,0.2,0.2,0.4,0.4,0.4l3.4,0     c0.2,3.3,3,5.8,6.4,5.8c3.2,0,5.8-2.4,6.3-5.4c0.4-0.4,0.9-0.6,1.5-0.6c0.6,0,1.1,0.2,1.5,0.5c0.5,3,3.1,5.3,6.4,5.3     c3.4,0,6.1-2.7,6.3-5.9l3.2,0c0.2,0,0.4-0.2,0.4-0.4S216.4,102.3,216.2,102.3z M191.1,108.4c-3.1,0-5.6-2.4-5.7-5.4     c0-3,2.5-5.5,5.6-5.5c3.1,0,5.6,2.4,5.7,5.4C196.7,105.9,194.2,108.4,191.1,108.4z M206.7,108.3c-3.1,0-5.6-2.4-5.7-5.4     c0-3,2.5-5.5,5.6-5.5c3.1,0,5.6,2.4,5.7,5.4C212.3,105.8,209.8,108.3,206.7,108.3z"></path>							<rect x="176.2" y="133.5" transform="matrix(1 3.292957e-03 -3.292957e-03 1 0.4472 -0.6028)" class="st1" width="14.2" height="3.9"></rect>			<g>				<path class="st9" d="M180.2,134.4l0,2.1l-0.5,0l0-0.9l-0.8,0l0,0.9l-0.5,0l0-2.1l0.5,0l0,0.8l0.8,0l0-0.8L180.2,134.4z"></path>				<path class="st9" d="M180.6,135.3c0.1-0.1,0.2-0.2,0.3-0.3c0.1-0.1,0.2-0.1,0.4-0.1c0.1,0,0.2,0,0.3,0.1c0.1,0,0.2,0.1,0.2,0.2      l0-0.2l0.5,0l0,1.7l-0.5,0l0-0.2c-0.1,0.1-0.1,0.1-0.2,0.2c-0.1,0-0.2,0.1-0.3,0.1c-0.1,0-0.3,0-0.4-0.1      c-0.1-0.1-0.2-0.2-0.3-0.3c-0.1-0.1-0.1-0.3-0.1-0.5C180.5,135.5,180.5,135.4,180.6,135.3z M181.6,135.4      c-0.1-0.1-0.2-0.1-0.3-0.1c-0.1,0-0.2,0-0.3,0.1c-0.1,0.1-0.1,0.2-0.1,0.3c0,0.1,0,0.2,0.1,0.3c0.1,0.1,0.2,0.1,0.3,0.1      c0.1,0,0.2,0,0.3-0.1c0.1-0.1,0.1-0.2,0.1-0.3C181.7,135.6,181.7,135.5,181.6,135.4z"></path>				<path class="st9" d="M184.1,135.1c0.1,0.1,0.2,0.3,0.2,0.5l0,1l-0.5,0l0-0.9c0-0.1,0-0.2-0.1-0.3c-0.1-0.1-0.1-0.1-0.2-0.1      c-0.1,0-0.2,0-0.2,0.1c-0.1,0.1-0.1,0.2-0.1,0.3l0,0.9l-0.5,0l0-1.7l0.5,0l0,0.2c0.1-0.1,0.1-0.1,0.2-0.2c0.1,0,0.2-0.1,0.3-0.1      C183.9,134.9,184,134.9,184.1,135.1z"></path>				<path class="st9" d="M186.2,135.1c0.1,0.1,0.2,0.3,0.2,0.5l0,1l-0.5,0l0-0.9c0-0.1,0-0.2-0.1-0.3c-0.1-0.1-0.1-0.1-0.2-0.1      c-0.1,0-0.2,0-0.2,0.1c-0.1,0.1-0.1,0.2-0.1,0.3l0,0.9l-0.5,0l0-1.7l0.5,0l0,0.2c0.1-0.1,0.1-0.1,0.2-0.2c0.1,0,0.2-0.1,0.3-0.1      C185.9,134.9,186.1,134.9,186.2,135.1z"></path>				<path class="st9" d="M186.7,135.3c0.1-0.1,0.2-0.2,0.3-0.3c0.1-0.1,0.2-0.1,0.4-0.1c0.1,0,0.2,0,0.3,0.1c0.1,0,0.2,0.1,0.2,0.2      l0-0.2l0.5,0l0,1.7l-0.5,0l0-0.2c-0.1,0.1-0.1,0.1-0.2,0.2c-0.1,0-0.2,0.1-0.3,0.1c-0.1,0-0.3,0-0.4-0.1      c-0.1-0.1-0.2-0.2-0.3-0.3c-0.1-0.1-0.1-0.3-0.1-0.5C186.6,135.6,186.7,135.4,186.7,135.3z M187.8,135.4      c-0.1-0.1-0.2-0.1-0.3-0.1c-0.1,0-0.2,0-0.3,0.1c-0.1,0.1-0.1,0.2-0.1,0.3c0,0.1,0,0.2,0.1,0.3c0.1,0.1,0.2,0.1,0.3,0.1      c0.1,0,0.2,0,0.3-0.1c0.1-0.1,0.1-0.2,0.1-0.3S187.9,135.5,187.8,135.4z"></path>			</g>			<path class="st25" d="M219,80.8c-2.4-5.1-8.1-13.9-21.8-13c-11.9,0.7-22.8,13.7-20.7,29.4c0.4,3.3,0.9,6.3,1.9,9.4     c0.5,1.5,0.7,3.2,1.2,4.8c0.6,1.6,1.4,3.1,2.1,4.7c-3.8-9.1,1-17.5,4.7-23.8c0.2-0.5,0.5-1,0.8-1.4c1.8-0.5,2.2-2,3.7-1.8     c1.7,0.2,2.2,1.4,4.1,0.7c1.9-0.7,1.2-1.7,3.5-1.4c1.3,0.2,2.2,1.3,3,1c0.8-0.3,1.2-1.4,2.6-0.7c1.4,0.7,2.3,1.3,3.3,0.6     c0.9-0.6,2.5-0.1,3.9,0.8c0.1,0.2,0.3,0.4,0.4,0.6c3.4,5.1,5.6,16.4,4.6,24c0.3-2.5,1.4-5.1,1.9-7.6c0.5-2.4,0.9-4.9,1-7.3     C219.3,93.2,221.9,86.9,219,80.8z"></path>			<polygon class="st27" points="212.7,87.7 221.5,95.5 221.4,93 213.9,86.5    "></polygon>			<polygon class="st27" points="187.2,88.4 176.1,97.8 176.3,95.2 186.1,86.8    "></polygon>			<path class="st28" d="M187.2,88C187.2,88,187.2,88,187.2,88c1.5-0.1,2.3-0.8,2.9-1.3c0.5-0.5,0.9-0.7,1.4-0.7     c0.5,0.1,0.9,0.3,1.3,0.5c0.7,0.4,1.5,0.8,2.9,0.2c0.8-0.3,1.2-0.7,1.5-1c0.4-0.4,0.5-0.5,1.6-0.4c0.4,0.1,0.9,0.3,1.3,0.5     c0.6,0.3,1.2,0.7,1.9,0.4c0.3-0.1,0.5-0.3,0.8-0.5c0.5-0.4,0.7-0.6,1.3-0.2l0.4,0.2c1.2,0.6,2.2,1.2,3.4,0.4     c0.6-0.4,2-0.1,3.2,0.8c0.5,0.3,1.1,0.2,1.4-0.2l0,0c-1.6-1.4-3.9-2.4-5.2-1.5c-0.7,0.5-1.2,0.2-2.3-0.4l-0.4-0.2     c-1.2-0.7-2-0.1-2.5,0.3c-0.2,0.1-0.3,0.3-0.5,0.3c-0.2,0.1-0.6-0.1-1-0.4c-0.5-0.3-1-0.6-1.6-0.7c-1.4-0.2-1.9,0.1-2.4,0.6     c-0.3,0.3-0.5,0.5-1.2,0.8c-0.9,0.4-1.4,0.2-2-0.2c-0.4-0.2-0.9-0.5-1.7-0.6c-1.1-0.1-1.7,0.4-2.2,0.9c-0.4,0.3-0.7,0.7-1.3,0.9     C187.6,86.9,187.3,87.4,187.2,88L187.2,88z"></path>			<path class="st29" d="M213.2,87.7h-0.6c-0.4,0-0.7-0.3-0.7-0.7v-0.6c0-0.4,0.3-0.7,0.7-0.7h0.6c0.4,0,0.7,0.3,0.7,0.7V87     C213.9,87.4,213.6,87.7,213.2,87.7z"></path>			<path class="st29" d="M186.8,88.7h-0.6c-0.4,0-0.7-0.3-0.7-0.7v-0.6c0-0.4,0.3-0.7,0.7-0.7h0.6c0.4,0,0.7,0.3,0.7,0.7V88     C187.6,88.4,187.2,88.7,186.8,88.7z"></path>			<g>				<path class="st1" d="M187.3,94.3c-0.2-1.4,2.9-1.3,4-1.2c0.6,0.1,1.4,0.1,1.8,0.6c0.2,0.3,0.1,0.7-0.2,0.9      c-0.8,0.3-1.7-0.1-2.5-0.1c-0.8,0-1.5,0-2.2,0.1C187.8,94.7,187.4,94.6,187.3,94.3z"></path>				<path class="st1" d="M190.9,99.6c2.5-0.2,2.7,3.6,0.1,3.5C188.6,103,188.8,100,190.9,99.6z"></path>				<path class="st1" d="M210.3,94.6c0.2-1.4-2.9-1.4-4-1.3c-0.6,0.1-1.4,0.1-1.8,0.6c-0.2,0.3-0.1,0.7,0.2,0.9      c0.8,0.4,1.7-0.1,2.5,0c0.8,0,1.5,0.1,2.2,0.2C209.8,95.1,210.2,94.9,210.3,94.6z"></path>				<path class="st1" d="M207.7,99.8c-2.5-0.3-2.8,3.6-0.2,3.5C210,103.3,209.8,100.2,207.7,99.8z"></path>				<polyline class="st1" points="208.3,100.1 209.9,99.5 208.9,100.7 208.3,100.3     "></polyline>				<polyline class="st1" points="190,100.1 188.4,99.6 189.4,100.8 190,100.3     "></polyline>			</g>			<g>				<path class="st30" d="M220.5,143.4h-8.9c-0.8,0-1.4-0.6-1.4-1.4v-10.1c0-0.8,0.6-1.4,1.4-1.4h8.9c0.8,0,1.4,0.6,1.4,1.4v10.1      C221.9,142.7,221.3,143.4,220.5,143.4z"></path>				<g>					<path class="st1" d="M212.1,139.4C212.1,139.4,212.1,139.4,212.1,139.4c0,0.1,0,0.1-0.1,0.1c0,0,0,0-0.1,0c0,0,0,0-0.1,0       c0,0-0.1,0-0.1,0c0,0,0,0-0.1,0c0,0,0,0,0-0.1s0,0,0-0.1v-0.5h-0.3v0.2h0.1v0.3c0,0.1,0,0.1,0,0.1c0,0,0,0.1,0.1,0.1       c0,0,0.1,0.1,0.1,0.1c0,0,0.1,0,0.1,0c0.1,0,0.1,0,0.1,0c0,0,0.1,0,0.1-0.1c0,0,0.1-0.1,0.1-0.1c0,0,0-0.1,0-0.1v-0.5h-0.2       V139.4z"></path>					<polygon class="st1" points="212.9,139.3 212.6,138.8 212.4,138.8 212.4,139.7 212.6,139.7 212.6,139.2 212.9,139.6 213,139.6        213.2,139.2 213.2,139.7 213.4,139.7 213.4,138.8 213.2,138.8      "></polygon>					<polygon class="st1" points="214.3,139.2 214.3,139.7 214.5,139.7 214.5,138.8 214.4,138.8 214,139.3 213.7,138.8 213.6,138.8        213.6,139.7 213.8,139.7 213.8,139.2 214,139.6 214.1,139.6      "></polygon>					<path class="st1" d="M215.3,139.7c0,0,0.1,0,0.1-0.1c0,0,0.1-0.1,0.1-0.1c0,0,0-0.1,0-0.1v-0.5h-0.2v0.5c0,0,0,0,0,0.1       s0,0,0,0.1c0,0,0,0-0.1,0c0,0,0,0-0.1,0c0,0-0.1,0-0.1,0c0,0,0,0-0.1,0c0,0,0,0,0-0.1s0,0,0-0.1v-0.5h-0.3v0.2h0.1v0.3       c0,0.1,0,0.1,0,0.1c0,0,0,0.1,0.1,0.1c0,0,0.1,0.1,0.1,0.1c0,0,0.1,0,0.1,0C215.2,139.8,215.2,139.7,215.3,139.7z"></path>					<polygon class="st1" points="215.8,138.8 215.6,138.8 215.6,139.1 215.8,139.1      "></polygon>					<polygon class="st1" points="216.1,138.8 215.9,138.8 215.9,139.7 216.5,139.7 216.5,139.6 216.1,139.6      "></polygon>					<path class="st1" d="M217.6,139.7h0.2v-0.2h-0.1l0,0c0,0,0-0.1,0.1-0.1c0,0,0-0.1,0-0.1c0-0.1,0-0.1,0-0.2       c0-0.1-0.1-0.1-0.1-0.1c0,0-0.1-0.1-0.1-0.1c-0.1,0-0.1,0-0.2,0c-0.1,0-0.1,0-0.2,0c-0.1,0-0.1,0.1-0.1,0.1       c0,0-0.1,0.1-0.1,0.1c0,0.1,0,0.1,0,0.2c0,0.1,0,0.1,0,0.2c0,0.1,0.1,0.1,0.1,0.1c0,0,0.1,0.1,0.1,0.1c0.1,0,0.1,0,0.2,0       c0,0,0.1,0,0.1,0C217.5,139.7,217.5,139.7,217.6,139.7L217.6,139.7z M217.4,139.3l-0.1,0.1l0.1,0.1c0,0-0.1,0-0.1,0       c0,0-0.1,0-0.1,0c0,0-0.1,0-0.1-0.1s0-0.1-0.1-0.1c0,0,0-0.1,0-0.1c0,0,0-0.1,0-0.1c0,0,0-0.1,0.1-0.1c0,0,0.1,0,0.1-0.1       c0,0,0.1,0,0.1,0c0,0,0.1,0,0.1,0c0,0,0.1,0,0.1,0.1c0,0,0,0.1,0.1,0.1c0,0,0,0.1,0,0.1c0,0,0,0.1,0,0.1L217.4,139.3z"></path>					<path class="st1" d="M218.5,139.4C218.5,139.4,218.5,139.4,218.5,139.4c0,0.1,0,0.1-0.1,0.1c0,0,0,0-0.1,0c0,0,0,0-0.1,0       c0,0-0.1,0-0.1,0c0,0,0,0-0.1,0c0,0,0,0,0-0.1s0,0,0-0.1v-0.5h-0.3v0.2h0.1v0.3c0,0.1,0,0.1,0,0.1c0,0,0,0.1,0.1,0.1       c0,0,0.1,0.1,0.1,0.1c0,0,0.1,0,0.1,0c0.1,0,0.1,0,0.1,0c0,0,0.1,0,0.1-0.1c0,0,0.1-0.1,0.1-0.1c0,0,0-0.1,0-0.1v-0.5h-0.2       V139.4z"></path>					<path class="st1" d="M219.5,138.9c0,0-0.1-0.1-0.1-0.1c0,0-0.1,0-0.1,0h-0.3v0.5h-0.1v0.2h0.1v0.2h0.2v-0.2h0.1l0.1,0.2h0.2       l-0.2-0.3c0,0,0.1,0,0.1-0.1s0,0,0.1-0.1c0,0,0-0.1,0-0.1c0,0,0-0.1,0-0.1c0,0,0-0.1,0-0.1C219.5,139,219.5,139,219.5,138.9z        M219.4,139.2C219.4,139.3,219.4,139.3,219.4,139.2C219.3,139.3,219.3,139.3,219.4,139.2c-0.1,0.1-0.1,0.1-0.1,0.1h-0.1V139       h0.1c0,0,0,0,0.1,0c0,0,0,0,0,0c0,0,0,0,0,0C219.4,139.1,219.4,139.2,219.4,139.2C219.4,139.2,219.4,139.2,219.4,139.2z"></path>					<path class="st1" d="M220.6,139.1c0-0.1-0.1-0.1-0.1-0.1c0,0-0.1-0.1-0.1-0.1c-0.1,0-0.1,0-0.2,0c-0.1,0-0.1,0-0.2,0       c-0.1,0-0.1,0.1-0.1,0.1c0,0-0.1,0.1-0.1,0.1c0,0.1,0,0.1,0,0.2c0,0.1,0,0.1,0,0.2c0,0.1,0.1,0.1,0.1,0.1c0,0,0.1,0.1,0.1,0.1       c0.1,0,0.1,0,0.2,0c0.1,0,0.1,0,0.2,0c0.1,0,0.1-0.1,0.1-0.1c0,0,0.1-0.1,0.1-0.1c0-0.1,0-0.1,0-0.2       C220.6,139.2,220.6,139.2,220.6,139.1z M220.4,139.4C220.4,139.4,220.4,139.5,220.4,139.4c-0.1,0.1-0.1,0.1-0.1,0.1       c0,0-0.1,0-0.1,0c0,0-0.1,0-0.1,0c0,0-0.1,0-0.1-0.1s0-0.1-0.1-0.1c0,0,0-0.1,0-0.1c0,0,0-0.1,0-0.1c0,0,0-0.1,0.1-0.1       c0,0,0.1,0,0.1-0.1c0,0,0.1,0,0.1,0c0,0,0.1,0,0.1,0c0,0,0.1,0,0.1,0.1c0,0,0,0.1,0.1,0.1c0,0,0,0.1,0,0.1       C220.4,139.3,220.4,139.4,220.4,139.4z"></path>					<path class="st1" d="M214.7,140.3c0,0-0.1-0.1-0.1-0.1c-0.1,0-0.1,0-0.2,0h-0.3v0.9h0.3c0.1,0,0.1,0,0.2,0       c0.1,0,0.1-0.1,0.1-0.1c0,0,0.1-0.1,0.1-0.1c0-0.1,0-0.1,0-0.2s0-0.1,0-0.2C214.8,140.4,214.8,140.3,214.7,140.3z M214.6,140.7       C214.6,140.7,214.6,140.8,214.6,140.7c-0.1,0.1-0.1,0.1-0.1,0.1c0,0-0.1,0-0.1,0h-0.1v-0.5h0.1c0,0,0.1,0,0.1,0       c0,0,0.1,0,0.1,0.1c0,0,0,0.1,0.1,0.1c0,0,0,0.1,0,0.1C214.7,140.6,214.6,140.7,214.6,140.7z"></path>					<polygon class="st1" points="215,141 215.6,141 215.6,140.9 215.2,140.9 215.2,140.7 215.4,140.7 215.4,140.5 215.2,140.5        215.2,140.3 215.6,140.3 215.6,140.1 215,140.1      "></polygon>					<path class="st1" d="M216.3,140.2c0,0-0.1-0.1-0.1-0.1c0,0-0.1,0-0.1,0h-0.3v0.5h-0.1v0.2h0.1v0.2h0.2v-0.2h0.1       c0,0,0.1,0,0.1,0c0,0,0.1,0,0.1-0.1c0,0,0.1-0.1,0.1-0.1c0,0,0-0.1,0-0.1s0-0.1,0-0.1C216.4,140.3,216.3,140.3,216.3,140.2z        M216.2,140.5C216.2,140.5,216.2,140.6,216.2,140.5C216.2,140.6,216.1,140.6,216.2,140.5c-0.1,0.1-0.1,0.1-0.1,0.1h-0.1v-0.3       h0.1c0,0,0,0,0.1,0c0,0,0,0,0,0c0,0,0,0,0,0C216.2,140.4,216.2,140.5,216.2,140.5C216.2,140.5,216.2,140.5,216.2,140.5z"></path>					<path class="st1" d="M217.3,140.3c0,0-0.1-0.1-0.1-0.1c-0.1,0-0.1,0-0.2,0c-0.1,0-0.1,0-0.2,0c-0.1,0-0.1,0.1-0.1,0.1       c0,0-0.1,0.1-0.1,0.1c0,0.1,0,0.1,0,0.2c0,0.1,0,0.1,0,0.2c0,0.1,0.1,0.1,0.1,0.1c0,0,0.1,0.1,0.1,0.1c0.1,0,0.1,0,0.2,0       c0.1,0,0.1,0,0.2,0c0.1,0,0.1-0.1,0.1-0.1s0.1-0.1,0.1-0.1c0-0.1,0-0.1,0-0.2c0-0.1,0-0.1,0-0.2       C217.4,140.4,217.4,140.3,217.3,140.3z M217.2,140.7C217.2,140.7,217.2,140.8,217.2,140.7c-0.1,0.1-0.1,0.1-0.1,0.1       c0,0-0.1,0-0.1,0c0,0-0.1,0-0.1,0c0,0-0.1,0-0.1-0.1c0,0,0-0.1-0.1-0.1c0,0,0-0.1,0-0.1c0,0,0-0.1,0-0.1c0,0,0-0.1,0.1-0.1       c0,0,0.1,0,0.1-0.1c0,0,0.1,0,0.1,0c0,0,0.1,0,0.1,0c0,0,0.1,0,0.1,0.1c0,0,0,0.1,0.1,0.1c0,0,0,0.1,0,0.1       C217.3,140.6,217.3,140.7,217.2,140.7z"></path>					<polygon class="st1" points="218.1,140.1 217.8,140.5 217.8,140.1 217.5,140.1 217.5,140.3 217.6,140.3 217.6,141 217.8,141        217.8,140.8 217.9,140.7 218.1,141 218.4,141 218,140.6 218.4,140.1      "></polygon>					<polygon class="st1" points="211.8,138.5 211.9,138.5 211.9,138.1 212,138.1 212,138.1 211.7,138.1 211.7,138.1 211.8,138.1             "></polygon>					<polygon class="st1" points="212.3,138.3 212.5,138.1 212.4,138.1 212.2,138.2 212.2,138.1 212.1,138.1 212.1,138.5        212.2,138.5 212.2,138.3 212.4,138.5 212.5,138.5      "></polygon>					<rect x="212.5" y="138.2" class="st1" width="0.3" height="0.1"></rect>					<path class="st1" d="M213.1,138.4C213,138.4,213,138.4,213.1,138.4C213,138.4,213,138.4,213.1,138.4l-0.2,0c0,0,0,0.1,0,0.1       C212.9,138.5,213,138.5,213.1,138.4C213,138.5,213,138.5,213.1,138.4C213.1,138.5,213.1,138.5,213.1,138.4c0.1,0.1,0.1,0,0.1,0       c0,0,0,0,0-0.1c0,0,0,0,0-0.1c0,0,0,0,0,0c0,0,0,0-0.1,0c0,0,0,0-0.1,0c0,0,0,0,0,0c0,0,0,0,0,0c0,0,0,0,0,0c0,0,0,0,0,0       c0,0,0,0,0,0h0.1c0,0,0-0.1,0-0.1c0,0-0.1,0-0.1,0c0,0-0.1,0-0.1,0c0,0,0,0.1,0,0.1c0,0,0,0,0,0.1c0,0,0,0,0,0c0,0,0,0,0.1,0       C213,138.3,213.1,138.3,213.1,138.4C213.1,138.3,213.1,138.3,213.1,138.4C213.1,138.4,213.1,138.4,213.1,138.4       C213.1,138.4,213.1,138.4,213.1,138.4C213.1,138.4,213.1,138.4,213.1,138.4z"></path>					<path class="st1" d="M213.7,138.4c0,0,0-0.1,0-0.1c0,0,0-0.1,0-0.1c0,0,0-0.1-0.1-0.1c0,0-0.1,0-0.1,0h-0.2v0.4h0.2       C213.5,138.5,213.5,138.5,213.7,138.4C213.6,138.4,213.6,138.4,213.7,138.4z M213.4,138.4L213.4,138.4l-0.1-0.3h0.1       c0,0,0.1,0,0.1,0c0,0,0,0.1,0,0.1S213.6,138.3,213.4,138.4C213.5,138.4,213.5,138.4,213.4,138.4z"></path>					<rect x="213.7" y="138.2" class="st1" width="0.3" height="0.1"></rect>					<path class="st1" d="M214.3,138.4C214.3,138.4,214.2,138.4,214.3,138.4C214.2,138.4,214.2,138.4,214.3,138.4l-0.2,0       c0,0,0,0.1,0,0.1C214.1,138.5,214.2,138.5,214.3,138.4C214.2,138.5,214.2,138.5,214.3,138.4       C214.3,138.5,214.3,138.5,214.3,138.4c0.1,0.1,0.1,0,0.1,0c0,0,0,0,0-0.1c0,0,0,0,0-0.1c0,0,0,0,0,0c0,0,0,0-0.1,0       c0,0,0,0-0.1,0c0,0,0,0,0,0c0,0,0,0,0,0c0,0,0,0,0,0c0,0,0,0,0,0s0,0,0,0h0.1c0,0,0-0.1,0-0.1c0,0-0.1,0-0.1,0c0,0-0.1,0-0.1,0       c0,0,0,0.1,0,0.1c0,0,0,0,0,0.1c0,0,0,0,0,0c0,0,0,0,0.1,0C214.3,138.3,214.3,138.3,214.3,138.4       C214.3,138.3,214.3,138.3,214.3,138.4C214.3,138.4,214.3,138.4,214.3,138.4C214.3,138.4,214.3,138.4,214.3,138.4       C214.3,138.4,214.3,138.4,214.3,138.4z"></path>					<polygon class="st1" points="215,138.5 215,138.1 214.9,138.1 214.8,138.4 214.6,138.1 214.5,138.1 214.5,138.5 214.6,138.5        214.6,138.2 214.7,138.5 214.8,138.5 214.9,138.2 214.9,138.5      "></polygon>					<path class="st1" d="M215.3,138.1C215.3,138.1,215.3,138.1,215.3,138.1l-0.3,0v0.4h0.1v-0.2h0.1c0,0,0.1,0,0.1,0       c0,0,0,0,0.1-0.1c0,0,0,0,0-0.1C215.4,138.2,215.4,138.1,215.3,138.1C215.4,138.1,215.4,138.1,215.3,138.1z M215.3,138.2       C215.3,138.2,215.3,138.3,215.3,138.2l-0.1,0v-0.1L215.3,138.2C215.3,138.1,215.3,138.1,215.3,138.2       C215.3,138.2,215.3,138.2,215.3,138.2C215.3,138.2,215.3,138.2,215.3,138.2z"></path>					<rect x="215.6" y="138.1" class="st1" width="0.1" height="0.4"></rect>					<path class="st1" d="M215.9,138.4C215.9,138.4,215.9,138.4,215.9,138.4C215.9,138.4,215.9,138.4,215.9,138.4l-0.2,0       c0,0,0,0.1,0,0.1C215.8,138.5,215.8,138.5,215.9,138.4C215.9,138.5,215.9,138.5,215.9,138.4C216,138.5,216,138.5,215.9,138.4       c0.1,0.1,0.1,0,0.1,0c0,0,0,0,0-0.1c0,0,0,0,0-0.1c0,0,0,0,0,0c0,0,0,0-0.1,0c0,0,0,0-0.1,0c0,0,0,0,0,0c0,0,0,0,0,0       c0,0,0,0,0,0c0,0,0,0,0,0c0,0,0,0,0,0h0.1c0,0,0-0.1,0-0.1c0,0-0.1,0-0.1,0c0,0-0.1,0-0.1,0s0,0.1,0,0.1c0,0,0,0,0,0.1       c0,0,0,0,0,0c0,0,0,0,0.1,0C215.9,138.3,215.9,138.3,215.9,138.4C216,138.3,216,138.3,215.9,138.4       C216,138.4,216,138.4,215.9,138.4C216,138.4,216,138.4,215.9,138.4C216,138.4,216,138.4,215.9,138.4z"></path>					<polygon class="st1" points="216.2,138.1 216.2,138.5 216.4,138.5 216.4,138.4 216.3,138.4 216.3,138.1      "></polygon>					<path class="st1" d="M216.4,138.5h0.1l0-0.1h0.2l0,0.1h0.1l-0.2-0.4h-0.1L216.4,138.5z M216.7,138.2l0.1,0.2h-0.1L216.7,138.2z       "></path>					<polygon class="st1" points="217.4,138.5 217.4,138.1 217.3,138.1 217.2,138.4 217.1,138.1 216.9,138.1 216.9,138.5 217,138.5        217,138.2 217.1,138.5 217.2,138.5 217.3,138.2 217.3,138.5      "></polygon>					<polygon class="st1" points="217.8,138.5 217.8,138.1 218,138.1 218,138.1 217.6,138.1 217.6,138.1 217.7,138.1 217.7,138.5             "></polygon>					<polygon class="st1" points="218.3,138.4 218.1,138.4 218.1,138.3 218.3,138.3 218.3,138.2 218.1,138.2 218.1,138.1        218.3,138.1 218.3,138.1 218,138.1 218,138.5 218.3,138.5      "></polygon>					<path class="st1" d="M218.5,138.3L218.5,138.3l0.1,0.2h0.1l-0.1-0.2c0,0,0.1,0,0.1,0s0,0,0-0.1c0,0,0,0,0-0.1c0,0,0,0-0.1,0       c0,0-0.1,0-0.1,0h-0.2v0.4h0.1V138.3z M218.5,138.1L218.5,138.1c0.1,0,0.1,0,0.1,0c0,0,0,0,0,0c0,0,0,0,0,0c0,0,0,0,0,0h-0.1       V138.1z"></path>					<path class="st1" d="M218.9,138.3L218.9,138.3c0.1,0,0.1,0,0.2,0c0,0,0,0,0.1-0.1c0,0,0,0,0-0.1c0,0,0-0.1,0-0.1c0,0,0,0-0.1,0       c0,0-0.1,0-0.1,0h-0.2v0.4h0.1V138.3z M218.9,138.1L218.9,138.1c0.1,0,0.1,0,0.1,0c0,0,0,0,0,0c0,0,0,0,0,0c0,0,0,0,0,0h-0.1       V138.1z"></path>					<path class="st1" d="M219.3,138.4h0.2l0,0.1h0.1l-0.2-0.4h-0.1l-0.2,0.4L219.3,138.4L219.3,138.4z M219.4,138.2l0.1,0.2h-0.1       L219.4,138.2z"></path>					<path class="st1" d="M219.9,138.5C219.9,138.4,220,138.4,219.9,138.5c0.1-0.1,0.1-0.1,0.1-0.2c0,0,0-0.1,0-0.1       c0,0,0-0.1-0.1-0.1c0,0-0.1,0-0.1,0h-0.2v0.4h0.2C219.8,138.5,219.9,138.5,219.9,138.5z M219.7,138.4v-0.3h0.1c0,0,0.1,0,0.1,0       c0,0,0,0.1,0,0.1s0,0.1,0,0.1C219.9,138.4,219.8,138.4,219.7,138.4L219.7,138.4z"></path>					<path class="st1" d="M220.2,138.5C220.2,138.5,220.2,138.5,220.2,138.5c0.1,0,0.2,0,0.2,0c0,0,0.1,0,0.1-0.1s0-0.1,0-0.1v-0.3       h-0.1v0.3c0,0,0,0,0,0.1C220.3,138.4,220.3,138.4,220.2,138.5C220.2,138.4,220.2,138.4,220.2,138.5c0-0.1,0-0.1,0-0.2v-0.3       h-0.1v0.3C220.1,138.4,220.1,138.4,220.2,138.5C220.1,138.4,220.1,138.5,220.2,138.5z"></path>					<path class="st1" d="M214.4,135.6c0,0.9,0.7,1.6,1.7,1.6c0.9,0,1.7-0.7,1.7-1.6c0,0,0-0.1,0-0.1c-0.1,0.9-0.8,1.5-1.7,1.5       c-0.9,0-1.6-0.7-1.7-1.5C214.4,135.5,214.4,135.5,214.4,135.6z"></path>					<path class="st1" d="M216.1,136.8c0.9,0,1.7-0.7,1.7-1.6c0,0,0-0.1,0-0.1c-0.1,0.9-0.8,1.5-1.7,1.5c-0.9,0-1.6-0.7-1.7-1.5       c0,0,0,0.1,0,0.1C214.4,136,215.2,136.8,216.1,136.8z"></path>					<path class="st1" d="M217.8,135.9c-0.1,0.9-0.8,1.5-1.7,1.5c-0.9,0-1.6-0.7-1.7-1.5c0,0,0,0.1,0,0.1c0,0.9,0.7,1.6,1.7,1.6       c0.9,0,1.7-0.7,1.7-1.6C217.8,136,217.8,135.9,217.8,135.9z"></path>					<path class="st1" d="M215.8,136.4c-0.1-0.4-0.3-0.7-0.6-1c0.3,0.3,0.5,0.5,0.8,0.9c0-0.2,0-0.6,0-0.6c-0.1-0.9-0.6-1.3-1.6-1.3       C214.4,135.6,215,136.2,215.8,136.4z"></path>					<path class="st1" d="M216.2,135.6c0,0,0,0.5,0,0.6c0.2-0.4,0.5-0.6,0.8-0.9c-0.3,0.3-0.5,0.7-0.6,1c0.8-0.2,1.4-0.7,1.4-2.1h0       C216.7,134.3,216.2,134.7,216.2,135.6z"></path>					<path class="st1" d="M216.1,135.2c0-0.3,0.2-0.5,0.4-0.7c0,0,0.1,0,0.1-0.1c0,0,0,0,0,0c0,0,0,0,0.1-0.1       c0.1-0.1,0.1-0.1,0.2-0.2c0.1-0.1,0.1-0.2,0-0.4v0l-0.2-0.2l-0.5-0.5l-0.5,0.5c0,0-0.1,0.1-0.1,0.1c0,0,0,0.1,0.1,0.1       c0.2,0.2,0.5,0.4,0.5,0.5c0-0.1,0.2-0.3,0.4-0.4l0,0c0.1-0.1,0.1,0,0.1,0.1c0,0,0,0,0,0c-0.2,0.2-0.5,0.4-0.5,0.6       c0-0.3-0.4-0.6-0.6-0.7c0,0-0.1-0.1-0.1-0.1v0c-0.1,0.1-0.2,0.2,0,0.4C215.6,134.4,216.1,134.7,216.1,135.2z M216.3,133.8       l-0.2,0.2l-0.2-0.2c0,0,0,0,0-0.1c0,0,0,0,0-0.1l0.2-0.2l0.2,0.2C216.3,133.8,216.3,133.8,216.3,133.8       C216.3,133.8,216.3,133.8,216.3,133.8z"></path>					<path class="st1" d="M215.8,133.2C215.9,133.2,215.9,133.2,215.8,133.2l0.2-0.2l-0.2-0.2c0,0,0,0,0,0c0,0,0,0,0,0l-0.2,0.2       L215.8,133.2C215.8,133.2,215.8,133.2,215.8,133.2z"></path>					<path class="st1" d="M216.3,133.2C216.3,133.2,216.3,133.2,216.3,133.2l0.2-0.2l-0.2-0.2c0,0,0,0,0,0s0,0,0,0l-0.2,0.2       L216.3,133.2C216.3,133.2,216.3,133.2,216.3,133.2z"></path>				</g>			</g>		</g>		<path class="st23" d="M190.4,161.2"></path>		<path class="st26" d="M225.2,158.5"></path>		<g>			<g>				<path class="st31" d="M193.7,163.2c0.4-2.3,0.9-4.6,1.3-6.9c0.3-1.4,0.5-2.8,0.8-4.2c0.1-0.7,0.3-1.4,0.4-2.1      c0.1-0.3,0.1-0.7,0.2-1c0.1-0.3,0-0.5-0.1-0.8c-0.3-0.7-0.8-1.3-1.3-1.7c-0.5-0.4-1.1-0.6-1.7-0.9c-0.4-0.3,0.2-0.7,0.4-0.9      c0.4-0.3,0.8-0.6,1.2-0.8c0.6-0.4,1.3-0.6,2-0.7c0.5-0.1,1,0,1.4,0.1c4.6,0.9,9.2,1.8,13.8,2.7c4.6,0.8,9.2,1.6,13.8,2.4      c0.2,0,0.5,0.1,0.6,0.3c0.2,0.2,0.1,0.5,0.1,0.7c-1.2,6.4-2.3,12.8-3.4,19.2c-1.1,6.3-2.6,12.6-3.5,18.9c0,0.1,0,0.2-0.1,0.3      c-0.1,0.1-0.3,0.1-0.5,0.1c-0.2,0-0.5-0.1-0.7-0.1c-2.5-0.4-4.9-0.8-7.4-1.3c-2-0.4-4.2-0.7-6.2-1.3c-2.1-0.1-4.2-0.7-6.2-1      c-2.5-0.4-4.9-0.9-7.3-1.4c-0.2,0-0.5-0.1-0.7-0.1c-0.2,0-0.4-0.1-0.4-0.2c0-0.1,0-0.2,0-0.3      C191.7,175.9,192.5,169.4,193.7,163.2z"></path>			</g>			<g>				<path class="st9" d="M192.6,163.5c0.3-1.4,0.5-2.8,0.8-4.2c0.4-2.1,0.8-4.2,1.2-6.4c0.2-1.1,0.4-2.1,0.6-3.2      c0.2-0.8,0.5-2,0.2-2.8c-0.1-0.3-0.4-0.6-0.6-0.8c-0.2-0.2-0.3-0.4-0.5-0.5c-0.1-0.1-0.3-0.1-0.3-0.4c0-0.1,0-0.1,0.1-0.2      c0.4-0.6,1-0.9,1.6-1.2c0.4-0.1,0.8-0.2,1.2-0.3c0.2,0,0.5-0.1,0.7,0c0.3,0.1,0.6,0.1,0.9,0.2c0.6,0.1,1.2,0.2,1.8,0.3      c1.2,0.2,2.4,0.5,3.5,0.7c2.4,0.5,4.7,0.9,7.1,1.4c4.6,0.8,9.2,1.6,13.8,2.4c0.2,0,0.5,0.1,0.6,0.3c0.2,0.2,0.1,0.5,0.1,0.7      c-1.2,6.4-2.3,12.8-3.4,19.2c-1,5.6-2.2,11.1-3.1,16.7c-0.1,0.5-0.1,0.9-0.2,1.4c-0.1,0.5,0,0.8-0.4,1c-0.8,0.4-1.6,0.8-2.4,1.1      c-0.1,0.1-0.3,0.1-0.4,0.1c-0.2,0-0.4-0.1-0.6-0.2c-1.3-0.7-2.6-1.3-3.9-1.8c-2.3-0.9-4.8-1-7.2-1.7c-2.1-0.1-4.2-0.7-6.2-1      c-2.5-0.4-4.9-0.9-7.3-1.4c-0.2,0-0.5-0.1-0.7-0.1c-0.2,0-0.4-0.1-0.4-0.2c0-0.1,0-0.2,0-0.3      C190.6,176.2,191.4,169.8,192.6,163.5z"></path>			</g>			<g>				<path class="st31" d="M189.5,164.9c1.2-6.4,2.5-12.8,3.7-19.2c0-0.2,0.1-0.5,0.3-0.6c0.2-0.1,0.5-0.1,0.7,0      c4.6,0.9,9.2,1.8,13.8,2.7c4.6,0.8,9.2,1.6,13.8,2.4c0.2,0,0.5,0.1,0.6,0.3c0.2,0.2,0.1,0.5,0.1,0.7c-1.2,6.4-2.3,12.8-3.4,19.2      c-1.1,6.3-2.6,12.6-3.5,18.9c0,0.1,0,0.2-0.1,0.3c-0.1,0.1-0.3,0.1-0.5,0.1c-0.2,0-0.5-0.1-0.7-0.1c-2.5-0.4-4.9-0.8-7.4-1.3      c-2-0.4-10.4-1.9-12.4-2.3c-2.5-0.4-4.9-0.9-7.3-1.4c-0.2,0-0.5-0.1-0.7-0.1c-0.2,0-0.4-0.1-0.4-0.2c0-0.1,0-0.2,0-0.3      C187.4,177.6,188.2,171.1,189.5,164.9z"></path>			</g>			<g>				<path class="st32" d="M188,183.4l25.9,4.8c0.1,0,0.2,0,0.3,0c0.1,0,0.2-0.1,0.3-0.1c0.2-0.1,0.3-0.3,0.3-0.5l6.5-35.6      c0.1-0.4-0.2-0.8-0.6-0.9l0,0l-25.9-4.7c-0.4-0.1-0.8,0.2-0.9,0.6l-6.5,35.6C187.3,182.9,187.6,183.3,188,183.4z M187.7,182.6      l6.5-35.6c0-0.1,0.1-0.2,0.2-0.3c0.1-0.1,0.2-0.1,0.3-0.1l25.9,4.7l0,0c0.1,0,0.2,0.1,0.3,0.2c0.1,0.1,0.1,0.2,0.1,0.3      l-6.5,35.6c0,0.1-0.1,0.2-0.2,0.3c-0.1,0.1-0.2,0.1-0.3,0.1l-25.9-4.8C187.8,183,187.7,182.8,187.7,182.6z"></path>				<path class="st32" d="M189.2,181.9l0,0.2c0.1,0,0.1,0,0.2,0c0.1,0.1,0.2,0.1,0.3,0.2l23,4.2c0.1,0,0.2,0,0.2,0      c0.1,0,0.1,0,0.2,0c0,0,0.1,0,0.1,0l0-0.2c0.1-0.1,0.2-0.2,0.3-0.4l6-32.7c0.1-0.4-0.2-0.8-0.6-0.8l0,0l-23-4.2      c-0.4-0.1-0.8,0.2-0.8,0.6l-6,32.6C189.1,181.5,189.2,181.7,189.2,181.9z M189.5,181.4l0.6-3c0.5,0.2,1,0.6,1.2,1.1      c0.2,0.5,0.1,1.1-0.2,1.5c-0.1,0.1-0.2,0.2-0.3,0.3c-0.3,0.3-0.7,0.4-1.1,0.4C189.5,181.6,189.5,181.5,189.5,181.4z M212.4,186      L212.4,186C212.3,186,212.3,186,212.4,186C212.3,186,212.4,186,212.4,186z M196.8,148.6l3.2,0.6c-0.2,0.5-0.6,0.9-1.1,1.1      c-0.5,0.2-1.2,0-1.6-0.3C197,149.6,196.8,149.1,196.8,148.6z M200.4,149.3l3.2,0.6c-0.2,0.5-0.6,0.9-1.1,1.1      c-0.5,0.2-1.2,0-1.6-0.3C200.6,150.3,200.4,149.8,200.4,149.3z M204,149.9l3.2,0.6c-0.2,0.5-0.6,0.9-1.1,1.1      c-0.5,0.2-1.2,0-1.6-0.3C204.2,151,204,150.5,204,149.9z M207.6,150.6l3.2,0.6c-0.2,0.5-0.6,0.9-1.1,1.1c-0.5,0.2-1.2,0-1.6-0.3      C207.8,151.6,207.6,151.1,207.6,150.6z M211.3,151.3l3.2,0.6c-0.2,0.5-0.6,0.9-1.1,1.1c-0.5,0.2-1.2,0-1.6-0.3      C211.4,152.3,211.2,151.8,211.3,151.3z M214.9,151.9l3.2,0.6c-0.2,0.5-0.6,0.9-1.1,1.1c-0.5,0.2-1.2,0-1.6-0.3      C215,153,214.8,152.4,214.9,151.9z M219.2,153.3l-0.6,3.3c-0.5-0.2-0.9-0.5-1.1-1c-0.2-0.5-0.1-1.2,0.3-1.6      C218,153.5,218.6,153.3,219.2,153.3z M218.5,157l-0.6,3.3c-0.5-0.2-0.9-0.5-1.1-1c-0.2-0.5-0.1-1.2,0.3-1.6      C217.4,157.2,217.9,156.9,218.5,157z M217.8,160.7l-0.6,3.3c-0.5-0.2-0.9-0.5-1.1-1c-0.2-0.5-0.1-1.2,0.3-1.6      C216.7,160.9,217.3,160.6,217.8,160.7z M217.1,164.3l-0.6,3.3c-0.5-0.2-0.9-0.5-1.1-1c-0.2-0.5-0.1-1.2,0.3-1.6      C216,164.5,216.6,164.3,217.1,164.3z M216.5,168l-0.6,3.3c-0.5-0.2-0.9-0.5-1.1-1c-0.2-0.5-0.1-1.2,0.3-1.6      C215.3,168.2,215.9,168,216.5,168z M215.8,171.7l-0.6,3.3c-0.5-0.2-0.9-0.5-1.1-1c-0.2-0.5-0.1-1.2,0.3-1.6      C214.7,171.9,215.2,171.7,215.8,171.7z M215.1,175.4l-0.6,3.3c-0.5-0.2-0.9-0.5-1.1-1c-0.2-0.5-0.1-1.2,0.3-1.6      C214,175.6,214.6,175.3,215.1,175.4z M214.4,179l-0.6,3.3c-0.5-0.2-0.9-0.5-1.1-1c-0.2-0.5-0.1-1.2,0.3-1.6      C213.3,179.3,213.9,179,214.4,179z M213.2,182.4c-0.4,0.1-0.9,0.4-1.1,0.7c-0.2,0.3-0.4,0.7-0.4,1.1c0,0,0,0,0,0      c-0.5-0.4-1.3-0.5-1.9-0.3c-0.4,0.1-0.7,0.4-1,0.8c-0.1-0.4-0.4-0.8-0.7-1.1c-0.5-0.4-1.3-0.5-1.9-0.3c-0.4,0.1-0.7,0.4-1,0.8      c-0.1-0.4-0.4-0.8-0.7-1.1c-0.5-0.4-1.3-0.5-1.9-0.3c-0.4,0.1-0.7,0.4-1,0.8c-0.1-0.4-0.4-0.8-0.7-1.1c-0.5-0.4-1.3-0.5-1.9-0.3      c-0.4,0.1-0.7,0.4-1,0.8c-0.1-0.4-0.4-0.8-0.7-1.1c-0.5-0.4-1.3-0.5-1.9-0.3c-0.4,0.1-0.7,0.4-1,0.8c-0.1-0.4-0.4-0.8-0.7-1.1      c-0.5-0.4-1.3-0.5-1.9-0.3c0,0,0,0-0.1,0c0.1-0.4,0.1-0.8,0-1.2c-0.1-0.4-0.4-0.8-0.8-1.1c0.4-0.1,0.8-0.3,1.1-0.6      c0.5-0.5,0.6-1.3,0.4-2c-0.1-0.4-0.4-0.8-0.8-1.1c0.4-0.1,0.8-0.3,1.1-0.6c0.5-0.5,0.6-1.3,0.4-2c-0.1-0.4-0.4-0.8-0.8-1.1      c0.4-0.1,0.8-0.3,1.1-0.6c0.5-0.5,0.6-1.3,0.4-2c-0.1-0.4-0.4-0.8-0.8-1.1c0.4-0.1,0.8-0.3,1.1-0.6c0.5-0.5,0.6-1.3,0.4-2      c-0.1-0.4-0.4-0.8-0.8-1.1c0.4-0.1,0.8-0.3,1.1-0.6c0.5-0.5,0.6-1.3,0.4-2c-0.1-0.4-0.4-0.8-0.8-1.1c0.4-0.1,0.8-0.3,1.1-0.6      c0.5-0.5,0.6-1.3,0.4-2c-0.1-0.4-0.4-0.8-0.8-1.1c0.4-0.1,0.8-0.3,1.1-0.6c0.5-0.5,0.6-1.3,0.4-2c-0.1-0.4-0.4-0.8-0.8-1.1      c0.4-0.1,0.8-0.3,1.1-0.6c0.5-0.5,0.6-1.3,0.4-1.9c0.1,0.1,0.1,0.2,0.2,0.2c0.4,0.4,1.1,0.6,1.6,0.5c0.1,0,0.2,0,0.3-0.1      c0.4-0.1,0.8-0.4,1.1-0.8c0.1,0.4,0.3,0.8,0.6,1c0.4,0.4,1.1,0.6,1.6,0.5c0.1,0,0.2,0,0.3-0.1c0.4-0.1,0.8-0.4,1.1-0.8      c0.1,0.4,0.3,0.8,0.6,1c0.4,0.4,1.1,0.6,1.6,0.5c0.1,0,0.2,0,0.3-0.1c0.4-0.1,0.8-0.4,1.1-0.8c0.1,0.4,0.3,0.8,0.6,1      c0.4,0.4,1.1,0.6,1.6,0.5c0.1,0,0.2,0,0.3-0.1c0.4-0.1,0.8-0.4,1.1-0.8c0.1,0.4,0.3,0.8,0.6,1c0.4,0.4,1.1,0.6,1.6,0.5      c0.1,0,0.2,0,0.3-0.1c0.4-0.1,0.8-0.4,1.1-0.8c0.1,0.4,0.3,0.8,0.6,1c0.4,0.4,1.1,0.6,1.6,0.5c0.1,0,0.2,0,0.3-0.1      c0.1,0,0.2-0.1,0.2-0.1c-0.4,0.5-0.4,1.2-0.2,1.8c0.1,0.4,0.4,0.7,0.8,1c-0.4,0.1-0.9,0.4-1.1,0.7c-0.4,0.5-0.6,1.3-0.3,2      c0.1,0.4,0.4,0.7,0.8,1c-0.4,0.1-0.9,0.4-1.1,0.7c-0.4,0.5-0.6,1.3-0.3,2c0.1,0.4,0.4,0.7,0.8,1c-0.4,0.1-0.9,0.4-1.1,0.7      c-0.4,0.5-0.6,1.3-0.3,2c0.1,0.4,0.4,0.7,0.8,1c-0.4,0.1-0.9,0.4-1.2,0.7c-0.4,0.5-0.6,1.3-0.3,2c0.1,0.4,0.4,0.7,0.8,1      c-0.4,0.1-0.9,0.4-1.1,0.7c-0.4,0.5-0.6,1.3-0.3,2c0.1,0.4,0.4,0.7,0.8,1c-0.4,0.1-0.9,0.4-1.1,0.7c-0.4,0.5-0.6,1.3-0.3,2      c0.1,0.4,0.4,0.7,0.8,1c-0.4,0.1-0.9,0.4-1.1,0.7c-0.4,0.5-0.6,1.3-0.3,2C212.5,181.9,212.8,182.2,213.2,182.4z M190.1,178      l0.6-3.3c0.5,0.2,1,0.6,1.2,1.1c0.2,0.6,0,1.2-0.3,1.6C191.2,177.8,190.6,178,190.1,178z M190.8,174.3l0.6-3.3      c0.5,0.2,1,0.6,1.2,1.1c0.2,0.6,0,1.2-0.3,1.6C191.9,174.2,191.3,174.4,190.8,174.3z M191.5,170.7l0.6-3.3      c0.5,0.2,1,0.6,1.2,1.1c0.2,0.6,0,1.2-0.3,1.6C192.5,170.5,192,170.7,191.5,170.7z M192.1,167l0.6-3.3c0.5,0.2,1,0.6,1.2,1.1      c0.2,0.6,0,1.2-0.3,1.6C193.2,166.8,192.7,167,192.1,167z M192.8,163.3l0.6-3.3c0.5,0.2,1,0.6,1.2,1.1c0.2,0.6,0,1.2-0.3,1.6      C193.9,163.1,193.3,163.3,192.8,163.3z M193.5,159.6l0.6-3.3c0.5,0.2,1,0.6,1.2,1.1c0.2,0.6,0,1.2-0.3,1.6      C194.6,159.4,194,159.7,193.5,159.6z M194.2,155.9l0.6-3.3c0.5,0.2,1,0.6,1.2,1.1c0.2,0.6,0,1.2-0.3,1.6      C195.2,155.8,194.7,156,194.2,155.9z M212,185.9l-3.2-0.6c0.1-0.5,0.5-0.9,1-1.1c0.5-0.2,1.2-0.1,1.6,0.2      c0.1,0.1,0.2,0.2,0.3,0.3c0,0.1,0,0.2,0.1,0.4c0.1,0.2,0.1,0.3,0.2,0.4C212,185.7,212,185.8,212,185.9z M205.1,184.7      c0.1-0.5,0.5-0.9,1-1.1c0.5-0.2,1.2-0.1,1.6,0.2c0.4,0.3,0.7,0.9,0.6,1.5L205.1,184.7z M201.5,184c0.1-0.5,0.5-0.9,1-1.1      c0.5-0.2,1.2-0.1,1.6,0.3c0.4,0.3,0.7,0.9,0.6,1.5L201.5,184z M197.9,183.3c0.1-0.5,0.5-0.9,1-1.1c0.5-0.2,1.2-0.1,1.6,0.2      c0.4,0.3,0.7,0.9,0.6,1.4L197.9,183.3z M194.3,182.7c0.1-0.5,0.5-0.9,1-1.1c0.5-0.2,1.2-0.1,1.6,0.2c0.4,0.3,0.7,0.9,0.6,1.4      L194.3,182.7z M190.7,182c0.1-0.2,0.2-0.4,0.3-0.5c0,0,0.1-0.1,0.1-0.1c0,0,0.1-0.1,0.1-0.1c0.1-0.1,0.3-0.2,0.5-0.3      c0.5-0.2,1.2-0.1,1.6,0.2c0.4,0.3,0.7,0.9,0.6,1.4L190.7,182z M190.4,181.9l-0.1,0C190.3,181.9,190.3,181.9,190.4,181.9      C190.4,181.9,190.4,181.9,190.4,181.9z M195.5,149c0.5,0.2,1,0.6,1.2,1.1c0.2,0.6,0,1.2-0.3,1.6c-0.3,0.4-0.9,0.6-1.4,0.6      L195.5,149z M196.5,148.6c0,0.3,0,0.5,0.1,0.8c-0.3-0.3-0.6-0.6-1-0.7c0.1-0.1,0.2-0.2,0.4-0.2L196.5,148.6z M219.2,153      c-0.4,0-0.7,0-1,0.2c0.1-0.2,0.2-0.4,0.3-0.6l0.5,0.1C219.1,152.7,219.2,152.8,219.2,153z M213.2,185.8c0,0.1-0.1,0.2-0.1,0.2      c-0.3-0.1-0.6-0.3-0.8-0.6c-0.1-0.3-0.2-0.6-0.3-0.8c-0.1-0.4,0.1-0.9,0.3-1.3c0.3-0.4,0.9-0.7,1.5-0.6L213.2,185.8z"></path>			</g>			<g>				<path class="st32" d="M202.9,175c-2.1-0.4-3.8-1.5-5-3.3c-1.2-1.7-1.6-3.8-1.3-5.9l0,0c0.4-2.1,1.5-3.8,3.3-5      c1.7-1.2,3.8-1.6,5.9-1.3c4.2,0.8,7.1,4.9,6.3,9.1c-0.4,2.1-1.5,3.8-3.3,5c-1,0.7-2.1,1.1-3.3,1.3      C204.7,175.1,203.8,175.1,202.9,175z M200.1,161.1c-1.6,1.1-2.7,2.8-3.1,4.8l0,0c-0.4,2,0.1,4,1.2,5.6c1.1,1.6,2.8,2.7,4.8,3.1      c2,0.4,4-0.1,5.6-1.2c1.6-1.1,2.7-2.8,3.1-4.8c0.7-4.1-1.9-8-6-8.7c-0.8-0.2-1.7-0.2-2.5,0C202.1,160,201,160.5,200.1,161.1z"></path>			</g>			<path class="st12" d="M224.2,150.5c-0.7,4.6-1.6,9.1-2.6,13.6"></path>			<path class="st12" d="M219.7,169.6c-0.4,3.5-1,6.9-1.7,10.3"></path>			<path class="st12" d="M219.6,177.2c-0.8,3.2-1.4,6.4-1.9,9.6"></path>			<path class="st12" d="M223.1,149.3c-5.2-0.9-10.4-1.9-15.5-3"></path>			<path class="st12" d="M204.7,146.2c-1.8-0.5-3.6-0.9-5.4-1.3"></path>		</g>		<g>			<g>				<g>					<g>						<path class="st20" d="M201.1,175.7c1.1,0,2.2-0.2,3.3-0.4c1.8-0.4,3.3-1.4,5.1-1.8c0.1,1.1,0.3,2.3,0.4,3.4        c0.1,1.1,0.3,2.2,0.4,3.2c0.1,1.1,0.4,2,0.2,3.1c-1.1-0.1-2.2-0.5-3.3-0.5c-0.6,0-1.3,0.2-1.9,0.3c-1.7,0.4-3.4,1.1-5,1.9        c-0.1,0.1-0.3,0.1-0.4,0c-0.1-0.1-0.1-0.1-0.1-0.2c-0.2-1.6-0.4-3.2-0.5-4.7c-0.1-0.9-0.1-1.7-0.2-2.6c0-0.6-0.3-1.4-0.3-1.9        C199.6,175.7,200.4,175.7,201.1,175.7z"></path>					</g>					<g>						<g>							<path class="st20" d="M220.9,174.2c-0.4,0.2-0.8,0.4-1.1,0.8c0.7-0.2,1.4-0.3,2-0.5c0.3-0.1,0.6-0.1,0.8,0.1         c0.1,0.1,0.2,0.2,0.2,0.4c0.2,0.9-0.5,1.7-1.1,2.3c0.5-0.1,0.9,0.4,1,0.9c0,0.5-0.3,0.9-0.6,1.3c-0.5,0.6-1.1,1.3-1.9,1.5         c0.4,0.1,0.5,0.6,0.4,0.9c-0.1,0.4-0.4,0.6-0.7,0.9c-1.5,1.2-3.9,0.8-5.7,0.6c-0.8-0.1-1.4,0-2.2,0c-0.9,0-1.8-0.2-2.7-0.3         c-0.8-0.1-1.7,0-2.2-0.8c-0.9-1.4-1.6-3.1-1.5-4.8c0-0.6,0.2-1.2,0.4-1.7c0.3-0.6,0.6-0.8,1.1-1.3c1-1,2-2,3.2-2.7         c1.5-0.9,3.2-1.1,4.8-1.7c0.7-0.3,2.5-0.8,2.1,0.6c-0.2,0.6-0.7,0.8-1.1,1.2c-0.1,0.1-1.5,1.3-1.5,1.3         c0.7,0.4,2.1,0.3,2.9,0.1c1.3-0.4,2.4-1.2,3.7-1.8c0.3-0.2,0.8-0.3,1.1-0.1c0.3,0.3,0.3,0.7,0.1,1.1         c-0.2,0.5-0.6,1.1-1.1,1.5C221.1,174,221,174.1,220.9,174.2z"></path>						</g>					</g>				</g>			</g>			<g>				<path class="st5" d="M180.5,189.2c3.9,0.5,25-3.7,24.6-4.9c-0.4-1.1-0.8-9.8-1-9.8c-6.3,0.5-18.7,1.6-25,0.6      C177.8,174.9,175.3,188.6,180.5,189.2z"></path>			</g>		</g>		<g>			<g>				<path class="st6" d="M173.9,187.8l0.8,0.3c0.2,0.1,0.5,0.2,0.7,0.2c0.5,0.1,1,0.2,1.5,0.2c0.5,0.1,1,0.2,1.5,0.2      c0.5,0,1,0.1,1.5,0.1c2,0,4.1-0.1,6.2-0.4c2.1-0.3,4.1-0.7,6.1-1.1l3.1-0.6c1.1-0.1,2.1-0.2,3.2-0.1l-3,1.1l-3.1,0.7      c-2.1,0.4-4.1,0.8-6.2,1.1c-2.1,0.3-4.2,0.5-6.3,0.4c-0.5,0-1.1,0-1.6-0.1c-0.5,0-1.1-0.1-1.6-0.2      C175.7,189.1,174.7,188.5,173.9,187.8z"></path>			</g>		</g>	</g></g></svg>