<svg xmlns="http://www.w3.org/2000/svg" viewBox="0 0 300 300"><defs><style>.cls-1{isolation:isolate;}.cls-2{fill:#eaeaea;}.cls-3{fill:#303030;}.cls-4{fill:#96ad77;}.cls-14,.cls-17,.cls-5{fill:none;}.cls-5{stroke:#557a35;stroke-dasharray:1 1;}.cls-14,.cls-5{stroke-linecap:round;stroke-width:0.38px;}.cls-17,.cls-5{stroke-miterlimit:10;}.cls-6{fill:#ffa68d;}.cls-7{fill:#f6f9de;}.cls-8{fill:#b4c68d;}.cls-9{opacity:0.1;}.cls-15,.cls-9{mix-blend-mode:multiply;}.cls-10{fill:#69aecc;}.cls-11{fill:#fff;}.cls-12{fill:#a8d9e5;}.cls-13{fill:#d4f3ff;}.cls-14{stroke:#ededed;stroke-linejoin:round;}.cls-15{opacity:0.15;}.cls-16{fill:#ffc9ac;}.cls-17{stroke:#b4c68d;stroke-width:0.5px;}.cls-18{fill:#111;}.cls-19{fill:#0f0f0f;}.cls-20{fill:#d85b52;}</style></defs><g class="cls-1"><g id="Layer_1" data-name="Layer 1"><path class="cls-2" d="M166.1,255.57l-4.71-.22a64.18,64.18,0,0,1-7.71-.68,5.93,5.93,0,0,1-2.3-.74,2,2,0,0,1-.74-.75,2.2,2.2,0,0,1-.2-.84,14.71,14.71,0,0,1,.37-3.67,27.78,27.78,0,0,0,.31-6.18c-.05-.89.17-1.75.12-2.66s-.21-1.64-.29-2.46c-.14-1.34-.29-2.69-.3-4,0-1.66,1.76-2.3,3.08-2.38a32.15,32.15,0,0,1,4.39,0,8.14,8.14,0,0,1,2.64.56,4.11,4.11,0,0,1,1,.6,5.67,5.67,0,0,1,1.69,4c.14,1.75-.69,3.34-.63,5,0,1.43-.61,2.77-.39,4.2a4.19,4.19,0,0,0,2,3,16.08,16.08,0,0,0,3.92,1.41,28.83,28.83,0,0,1,3.88,1.46,6,6,0,0,1,1.71,1.09,7.21,7.21,0,0,1,1,1.48,1.67,1.67,0,0,1,.27,1.49,1.36,1.36,0,0,1-1.28.56C171.35,255.79,168.72,255.68,166.1,255.57Z"></path><path class="cls-2" d="M151.21,243.44c6.85,3.23,10.88-.84,12.15-1.77q.38,4.14.76,8.28s-12.93.65-13,.2S151.21,243.44,151.21,243.44Z"></path><path class="cls-3" d="M149.71,253.45a5.48,5.48,0,0,1,.23-3.88c.44-1.34.3-2.82.6-4.2a2.93,2.93,0,0,1,.58-1.35.4.4,0,0,1,.22-.14c.16,0,.3.12.41.25.9,1.14,1.54,2.19,3,2.62a8.8,8.8,0,0,0,2.9.23,25.45,25.45,0,0,0,4.15-.59,4.83,4.83,0,0,1-.42-4.06,1.77,1.77,0,0,1,.67-1,1.66,1.66,0,0,1,1.38-.05,6.93,6.93,0,0,1,2.62,1.91c1.72,1.76,3.45,3.62,5.71,4.58a12.73,12.73,0,0,1,3.54,1.64c1.28,1.13,1.59,3,1.82,4.66s-.77,2-2.22,2.07c-1.95,0-3.89.09-5.84.07a113.58,113.58,0,0,1-11.66-.79c-1.48-.18-2.95-.39-4.42-.63-.94-.15-2.51-.13-3.08-1A2.21,2.21,0,0,1,149.71,253.45Z"></path><path class="cls-4" d="M164.55,239.79c-3.3-.55-6.59-.29-9.89-.27a60.91,60.91,0,0,1-6.87-.43c.06,0,.08-.1.09-.14.53-2.59-.23-5.89-.48-8.49-.52-5.52-1.15-11-1.8-16.53-.78-6.56-1.47-13.13-2.16-19.7-.62-5.83-2.21-12.21,0-17.78a4.9,4.9,0,0,1,1-1.61,5.13,5.13,0,0,1,2.37-1.16c6-1.65,12.34-1.79,18.6-1.93,5.33-.12,2.24,7.55,2.11,10.87-.26,6.23-.48,12.47-.74,18.71-.52,12.45-1.11,24.9-2,37.32A3.45,3.45,0,0,1,164.55,239.79Z"></path><path class="cls-5" d="M155.78,232.17c-1.35-17-1.91-34.09-1.67-51.11"></path><path class="cls-2" d="M141,258.3l-4.71-.21a66.29,66.29,0,0,1-7.71-.68,6.28,6.28,0,0,1-2.3-.74,2,2,0,0,1-.74-.75,2.47,2.47,0,0,1-.21-.85,15.13,15.13,0,0,1,.38-3.66,27.84,27.84,0,0,0,.31-6.18c-.06-.9.17-1.75.11-2.66s-.2-1.64-.28-2.46c-.14-1.35-.29-2.69-.3-4.05,0-1.66,1.76-2.3,3.08-2.38a30.63,30.63,0,0,1,4.39,0,8.19,8.19,0,0,1,2.64.55,4.46,4.46,0,0,1,1,.6,5.73,5.73,0,0,1,1.69,4c.13,1.74-.69,3.34-.64,5,.05,1.44-.6,2.77-.38,4.21a4.18,4.18,0,0,0,2.05,3,15.77,15.77,0,0,0,3.91,1.42,26.06,26.06,0,0,1,3.89,1.46,5.79,5.79,0,0,1,1.71,1.09,6.35,6.35,0,0,1,1,1.48,1.64,1.64,0,0,1,.28,1.49,1.41,1.41,0,0,1-1.29.56C146.26,258.52,143.63,258.41,141,258.3Z"></path><path class="cls-4" d="M139.16,243c-3.28-.71-6.58-.52-9.87-.6a55.13,55.13,0,0,1-6.87-.69c.06,0,.09-.11.1-.16.59-2.92-.08-6.69-.26-9.64-.38-6.28-.88-12.55-1.38-18.81-.61-7.47-1.13-14.94-1.66-22.42-.47-6.63-1.89-13.92.51-20.18a5.57,5.57,0,0,1,1-1.79,4.84,4.84,0,0,1,2.39-1.24c6.06-1.69,12.39-1.67,18.65-1.63,5.34,0,2.05,8.63,1.83,12.39-.42,7.07-.8,14.14-1.22,21.21-.83,14.11-1.75,28.22-3,42.28A4.22,4.22,0,0,1,139.16,243Z"></path><path class="cls-5" d="M130.46,236.53a142.18,142.18,0,0,1,3.68-55.42"></path><path class="cls-2" d="M126.06,246.32c6.84,3.24,10.87-.84,12.15-1.76l.75,8.27s-12.93.65-13,.2S126.06,246.32,126.06,246.32Z"></path><path class="cls-3" d="M124.55,256.33a5.59,5.59,0,0,1,.23-3.88,40.82,40.82,0,0,0,.61-4.2,2.78,2.78,0,0,1,.57-1.34.42.42,0,0,1,.22-.15.5.5,0,0,1,.41.25c.91,1.15,1.54,2.19,3,2.62a8.5,8.5,0,0,0,2.89.23,24.12,24.12,0,0,0,4.15-.59,4.86,4.86,0,0,1-.42-4.06,1.74,1.74,0,0,1,.68-1,1.7,1.7,0,0,1,1.38,0,6.87,6.87,0,0,1,2.61,1.91c1.72,1.75,3.45,3.61,5.71,4.58a12.24,12.24,0,0,1,3.55,1.64c1.27,1.13,1.58,3,1.82,4.65s-.78,2-2.23,2.07c-1.94,0-3.89.1-5.83.07a111,111,0,0,1-11.67-.79c-1.47-.18-2.95-.39-4.42-.63-.93-.15-2.51-.12-3.08-1A2.31,2.31,0,0,1,124.55,256.33Z"></path><path class="cls-6" d="M136.71,99.81a14.48,14.48,0,0,0,1.2-5.41,32.31,32.31,0,0,0-1.18-5A66.74,66.74,0,0,0,151,91.21s-.14,4.7-.16,5.13c0,1.09-.09,2.17-.07,3.27a1.36,1.36,0,0,0,0,.4,1.13,1.13,0,0,0,.6.56c.46.27.87.61,1.32.91.28.19.59.27.87.45a6.85,6.85,0,0,1,1.88,2.58,8.64,8.64,0,0,1,.38.88,2.64,2.64,0,0,1,.11,1c0,.76,0,1.52.08,2.27s.07,1.75.07,2.63c0,.45,0,.9,0,1.35a.43.43,0,0,0,0,0c-2.1.47-4.2,1-6.3,1.39a23.32,23.32,0,0,1-9.3-.22,73.21,73.21,0,0,1-7.75-2c.06-1.83,0-3.66.06-5.48.09-2.18,1.21-3.48,2.6-4.84A6.84,6.84,0,0,0,136.71,99.81Z"></path><path class="cls-7" d="M115.44,156.78c-1.29,12-2.43,26.27-.49,26.26l13.9-.09a113.65,113.65,0,0,1-.34-16q2.38,8.15,4.75,16.28c14.32-2.85,27.52,2.33,38.89-7.48-1.85-11.61-4.14-37.85-5.67-49.51A68.45,68.45,0,0,0,164,113.65c-1.61-4.84-4.77-8.79-7.9-12.51a1.09,1.09,0,0,0-1.18-.39,2.59,2.59,0,0,1-1.3.17s-.08,0-.1,0,0-.08,0-.12a21.29,21.29,0,0,0-.18-2.26,6.4,6.4,0,0,0-6.67,4,6.11,6.11,0,0,0-3.28-3.29,16.6,16.6,0,0,0-4.49-1.11c-.72-.1-3.53-1-4.09-.5s-.49,2.73-.62,3.4c-.1.41-4.7,1-5.3,1.3a18.9,18.9,0,0,0-5.51,3.51c-4,3.58-4.13,10.26-4.68,15.53-.68,6.37-.81,12.79-1.34,19.18C117.23,141.61,116.31,148.7,115.44,156.78Z"></path><path class="cls-7" d="M179.59,135a6.55,6.55,0,0,0,.37-3.12c-1-6.52-2.75-8.15-5.25-14.26-4.64-11.32-18-16.91-21.15-16.12a3.44,3.44,0,0,0-1.33,1,1.06,1.06,0,0,0,0,.68c1.26,4.54,3.83,8.75,5.46,13.25,1.79,4.94,3.47,10.25,3.8,15.53a12.46,12.46,0,0,0,.71,3.75c.59,1.39,2.64,2.94,4,3.57a31.82,31.82,0,0,0,6.06,1.61c2.05.47,4-.85,5.3-2.37A11.59,11.59,0,0,0,179.59,135Z"></path><path class="cls-8" d="M146.64,102.42l.9,9.57.64,9.59,1.24,19.17,1.19,19.19.54,9.59c.07,3.21.2,6.41.1,9.62-.07-3.21-.37-6.4-.6-9.59l-.54-9.59-1.19-19.18-1.25-19.18L147,112Z"></path><path class="cls-8" d="M150,106.5l.86,8.52.6,8.53,1.16,17.07,1.12,17.08.5,8.54c.06,2.85.19,5.71.07,8.56,0-2.85-.35-5.69-.57-8.53l-.51-8.54-1.11-17.07-1.16-17.07-.6-8.53Z"></path><path class="cls-8" d="M133.74,101.37c.84.42,1.67.84,2.53,1.22s1.64.87,2.48,1.27a22.31,22.31,0,0,0,5.23,1.79,7.84,7.84,0,0,0,2.69,0,11.74,11.74,0,0,0,4.89-2.39,10.36,10.36,0,0,0,2.07-1.85,9.42,9.42,0,0,1-1.75,2.24,12.33,12.33,0,0,1-5.1,2.49,8.25,8.25,0,0,1-2.89,0,23.38,23.38,0,0,1-5.36-1.82c-.85-.41-1.69-.83-2.51-1.29S134.46,102,133.74,101.37Z"></path><path class="cls-7" d="M117.37,144.6a6.64,6.64,0,0,1-1.21-2.91,60.87,60.87,0,0,1,1-19.82,37.94,37.94,0,0,1,2.39-8c1.15-2.47,1.87-5.65,4.76-6.54a37.52,37.52,0,0,1,9.69-1.63.79.79,0,0,1,1,.91c0,4.72-1.31,9.47-1.66,14.24-.39,5.24-.55,10.81.56,16a12.83,12.83,0,0,1,.34,3.8c-.2,1.5-1.75,3.54-2.86,4.51a31.26,31.26,0,0,1-5.39,3.2c-1.85,1-4.1.27-5.75-.85A11.55,11.55,0,0,1,117.37,144.6Z"></path><path class="cls-9" d="M173.54,125.87l-11.49-9.32a4.79,4.79,0,0,0-1.3-.8,5.81,5.81,0,0,0-2.21-.38,7.53,7.53,0,0,0-1.49.15c-.22.06-.77.13-.88.38a1.51,1.51,0,0,0-.21.23c-4.28,5.37-8.62,10.7-13,16S134.79,143,130.39,148a.43.43,0,0,0-.15.26c0,.17.15.32.3.44l.6.49c2,1.68,4.06,3.36,6.13,5,1.7,1.32,8.78,7,10.44,8.31,2,1.66,4.14,3.26,6.22,4.86l.62.48a.6.6,0,0,0,.5.19.44.44,0,0,0,.19-.17l.06,0a1.4,1.4,0,0,0,.45.1c.93.07,1.86.14,2.8.14a.82.82,0,0,0,.38-.09l.42.32c.14.11.32.24.49.19a.53.53,0,0,0,.22-.2C164,162.92,177.43,128.9,173.54,125.87Z"></path><path class="cls-7" d="M165.63,152.79c2.32-2.83,10.62,1.08,15.46.39s5.36-6.54,4.84-8.26-8.33-9.14-8.33-9.14"></path><path class="cls-10" d="M147.5,131.06l4.65-5.72,2.86-3.53,1.43-1.77c.22-.28.44-.55.67-.81a1.24,1.24,0,0,0,.28-.77,4.31,4.31,0,0,0-.4-2.27c-.3-.6-.75-1.09-1.1-1.66s.57-.56.85-.63a6.94,6.94,0,0,1,1.5-.15,5.84,5.84,0,0,1,2.21.37,4.88,4.88,0,0,1,1.3.81l11.49,9.31,11.65,9.11a1.14,1.14,0,0,1,.47.58.88.88,0,0,1-.27.71c-4.28,5.38-8.5,10.8-12.72,16.22s-8.69,10.44-12.61,15.85a.43.43,0,0,1-.22.2.63.63,0,0,1-.5-.18l-.62-.48c-2.08-1.61-4.17-3.2-6.21-4.86-1.67-1.36-3.59-2.71-5.15-4.25-1.85-1.17-3.6-2.74-5.3-4.06-2.07-1.62-4.1-3.3-6.13-5l-.6-.5c-.15-.11-.31-.26-.29-.44a.42.42,0,0,1,.14-.26C139.28,141.88,143.25,136.28,147.5,131.06Z"></path><path class="cls-11" d="M146.34,130.85c.95-1.17,1.9-2.33,2.84-3.5,1.44-1.76,2.87-3.53,4.3-5.29l2.14-2.66c.56-.69,1.48-1.57,1.59-2.46a2.69,2.69,0,0,0-.13-1.06,4,4,0,0,0-.19-.72c-.06-.13-.21-.28-.06-.46a.36.36,0,0,1,.15-.1,3.62,3.62,0,0,1,2.11-.26,5.27,5.27,0,0,1,1.25.35,2.33,2.33,0,0,1,.68.36c.23.21.48.39.72.59l1.48,1.2,2.95,2.39,5.92,4.8,11.65,9.11a1.08,1.08,0,0,1,.47.57.88.88,0,0,1-.27.71c-4.28,5.38-8.5,10.8-12.72,16.22-3.66,4.71-7.6,9.19-11.2,13.94l-.9,1.21c-.31.42-.39.71-.87.7-.94,0-1.88-.07-2.8-.14a1.1,1.1,0,0,1-.45-.09,1.23,1.23,0,0,1-.46-.52,28.23,28.23,0,0,0-2.78-3.64c-1.71-2-4-3.33-5.85-5.18-1.86-1.17-3.61-2.74-5.3-4.06-2.07-1.62-4.1-3.3-6.13-5l-.61-.49c-.14-.12-.3-.27-.29-.45a.5.5,0,0,1,.15-.26C138.13,141.66,142.1,136.06,146.34,130.85Z"></path><path class="cls-12" d="M142.7,130.54c4.34-5.33,8.67-10.66,13-16a.92.92,0,0,1,.64-.43,1.16,1.16,0,0,1,.66.33l11.49,9.32,11.66,9.1a1.14,1.14,0,0,1,.47.58.85.85,0,0,1-.28.71c-4.28,5.38-8.49,10.8-12.71,16.22s-8.7,10.44-12.62,15.85a.39.39,0,0,1-.22.2c-.16.05-.35-.07-.49-.18l-.62-.48c-2.09-1.61-4.18-3.2-6.22-4.86-1.66-1.35-8.75-7-10.44-8.31-2.08-1.62-4.1-3.3-6.13-5l-.61-.49c-.14-.12-.3-.27-.29-.45a.55.55,0,0,1,.14-.26C134.48,141.35,138.46,135.75,142.7,130.54Z"></path><path class="cls-13" d="M132.13,147.07l21.68,17.28a.72.72,0,0,0,.24.14.85.85,0,0,0,.36,0,.8.8,0,0,0,.55-.3l23.76-29.86a.81.81,0,0,0-.13-1.14h0L156.9,116a.82.82,0,0,0-1.15.13L132,145.93A.82.82,0,0,0,132.13,147.07Zm.16-.91L156,116.32a.44.44,0,0,1,.63-.07l21.69,17.26h0a.44.44,0,0,1,.17.31.45.45,0,0,1-.1.33L154.67,164a.4.4,0,0,1-.3.17.48.48,0,0,1-.33-.1l-21.68-17.29A.44.44,0,0,1,132.29,146.16Z"></path><path class="cls-13" d="M134.06,146.23l-.1.13.16.1a.69.69,0,0,0,.21.3l19.29,15.38a.72.72,0,0,0,.21.12l.18,0,.12.11.11-.14a.72.72,0,0,0,.44-.26L176.5,134.6a.76.76,0,0,0-.11-1.06h0l-19.3-15.36a.75.75,0,0,0-1.06.13l-21.8,27.39A.82.82,0,0,0,134.06,146.23Zm.46-.3,2-2.55a1.78,1.78,0,0,1-.46,2.89,2,2,0,0,0-.38.14,1.87,1.87,0,0,1-1.27-.18A.41.41,0,0,1,134.52,145.93Zm19,15.66-.06,0,0,0A.2.2,0,0,0,153.52,161.59Zm4.12-42.51,2.72,2.17a1.79,1.79,0,0,1-1.57.48,1.74,1.74,0,0,1-1.15-2.65Zm3,2.41,2.72,2.16a1.75,1.75,0,0,1-2.72-2.16Zm3,2.4,2.72,2.17a1.75,1.75,0,0,1-2.72-2.17Zm3,2.41,2.72,2.16a1.75,1.75,0,0,1-2.72-2.16Zm3,2.41,2.72,2.16a1.75,1.75,0,0,1-2.72-2.16Zm3,2.4,2.72,2.17a1.8,1.8,0,0,1-1.56.49,1.75,1.75,0,0,1-1.16-2.66Zm3.33,3.43-2.21,2.78a1.81,1.81,0,0,1-.52-1.51,1.78,1.78,0,0,1,2.73-1.27Zm-2.45,3.08-2.22,2.78a1.78,1.78,0,0,1,.54-2.91A1.85,1.85,0,0,1,173.63,137.62Zm-2.46,3.09L169,143.49a1.84,1.84,0,0,1-.52-1.51,1.8,1.8,0,0,1,1.05-1.4A1.82,1.82,0,0,1,171.17,140.71Zm-2.45,3.08-2.22,2.78a1.78,1.78,0,0,1,.54-2.91A1.85,1.85,0,0,1,168.72,143.79Zm-2.46,3.09-2.21,2.78a1.84,1.84,0,0,1-.52-1.51,1.8,1.8,0,0,1,1.05-1.4A1.82,1.82,0,0,1,166.26,146.88ZM163.8,150l-2.21,2.78A1.79,1.79,0,0,1,163.8,150Zm-2.45,3.09-2.22,2.78a1.83,1.83,0,0,1-.51-1.51,1.8,1.8,0,0,1,1-1.4A1.82,1.82,0,0,1,161.35,153.05Zm-2.46,3.08-2.21,2.78a1.82,1.82,0,0,1-.52-1.5,1.79,1.79,0,0,1,2.73-1.28ZM156,158.66a2.19,2.19,0,0,0-1.43.09,2.26,2.26,0,0,0-.94.82.14.14,0,0,0,0-.06,2.1,2.1,0,0,0-2.92-1,2.11,2.11,0,0,0-1.76-2.64,2.08,2.08,0,0,0-1.27.24,2.11,2.11,0,0,0-1.76-2.65,2.2,2.2,0,0,0-1.26.24,2.1,2.1,0,0,0-1.76-2.64,2.15,2.15,0,0,0-1.27.23,2.11,2.11,0,0,0-1.76-2.64,2.12,2.12,0,0,0-1.26.23,2.14,2.14,0,0,0-.1-1.39,2.17,2.17,0,0,0-1.66-1.25h-.09a2.27,2.27,0,0,0,.64-1.15,2.18,2.18,0,0,0-.23-1.42,2.14,2.14,0,0,0,2.45-3.09,2.13,2.13,0,0,0,1.32-.05,2.21,2.21,0,0,0,1.37-1.61,2.18,2.18,0,0,0-.23-1.42,2.14,2.14,0,0,0,2.45-3.09,2.16,2.16,0,0,0,1.33,0,2.14,2.14,0,0,0,1.13-3,2.11,2.11,0,0,0,2.68-1.66,2.25,2.25,0,0,0-.22-1.42,2.13,2.13,0,0,0,1.32-.05,2.14,2.14,0,0,0,1.13-3,2.11,2.11,0,0,0,2.68-1.66,2.12,2.12,0,0,0-.22-1.42,2.09,2.09,0,0,0,1.31,0,2.18,2.18,0,0,0,1.36-1.57,2,2,0,0,0,.08.33,2.15,2.15,0,0,0,1.29,1.25,1.67,1.67,0,0,0,.3.08,2.13,2.13,0,0,0,1.38-.21,2.08,2.08,0,0,0,.06,1.28,2.14,2.14,0,0,0,1.29,1.26l.3.08a2.15,2.15,0,0,0,1.38-.22,2.09,2.09,0,0,0,1.34,2.55l.3.08a2.2,2.2,0,0,0,1.38-.22,2.08,2.08,0,0,0,1.35,2.54,1.38,1.38,0,0,0,.29.08,2.13,2.13,0,0,0,1.38-.21,2.08,2.08,0,0,0,.06,1.28,2.2,2.2,0,0,0,1.29,1.26l.3.08a2.14,2.14,0,0,0,1.38-.22,2.09,2.09,0,0,0,1.34,2.55l.3.08.26,0a2.16,2.16,0,0,0-1.11,1.61,2.23,2.23,0,0,0,.23,1.29,2.11,2.11,0,0,0-1.42.1,2.14,2.14,0,0,0-1,3,2.23,2.23,0,0,0-1.42.1,2.15,2.15,0,0,0-1,3,2.13,2.13,0,0,0-1.43.1,2.14,2.14,0,0,0-1,3,2.23,2.23,0,0,0-1.42.1,2.15,2.15,0,0,0-1,3,2.13,2.13,0,0,0-1.43.1,2.2,2.2,0,0,0-1.27,1.69,2.14,2.14,0,0,0,.24,1.29,2.15,2.15,0,0,0-2.7,1.79,2.26,2.26,0,0,0,.25,1.3,2.15,2.15,0,0,0-2.46,3.09Zm-19.26-15.58L139,140.3a1.81,1.81,0,0,1,.51,1.61,1.78,1.78,0,0,1-2.73,1.17Zm2.46-3.08,2.21-2.79a1.81,1.81,0,0,1,.52,1.62,1.79,1.79,0,0,1-2.73,1.17Zm2.45-3.09,2.22-2.78a1.79,1.79,0,0,1-.62,3A1.85,1.85,0,0,1,141.69,136.91Zm2.46-3.09,2.22-2.78a1.83,1.83,0,0,1,.51,1.62,1.78,1.78,0,0,1-2.73,1.16Zm2.46-3.08,2.21-2.78a1.78,1.78,0,0,1-.62,3A1.82,1.82,0,0,1,146.61,130.74Zm2.45-3.09,2.22-2.78a1.83,1.83,0,0,1,.51,1.62,1.78,1.78,0,0,1-2.73,1.16Zm2.46-3.08,2.21-2.78a1.77,1.77,0,0,1-.62,2.95A1.79,1.79,0,0,1,151.52,124.57Zm1.65,36.75-2.72-2.17a1.77,1.77,0,0,1,1.49-.53,1.8,1.8,0,0,1,1.38,1,2.58,2.58,0,0,1,.12.42,2.54,2.54,0,0,0-.1.37,2.44,2.44,0,0,0,0,.54A1.54,1.54,0,0,1,153.17,161.32Zm-5.74-4.58a1.74,1.74,0,0,1,2.86.5,1.77,1.77,0,0,1-.14,1.67Zm-3-2.41a1.74,1.74,0,0,1,2.86.51,1.81,1.81,0,0,1-.14,1.66Zm-3-2.41a1.75,1.75,0,0,1,2.72,2.17Zm-3-2.41a1.75,1.75,0,0,1,2.86.51,1.81,1.81,0,0,1-.14,1.66Zm-3-2.41a1.73,1.73,0,0,1,.52-.36,1.39,1.39,0,0,0,.19-.06.59.59,0,0,0,.14-.06,1.91,1.91,0,0,1,.63,0,1.76,1.76,0,0,1,1.24,2.69Zm-.29-.23-.1-.09.17,0Zm21.13-28.17a1.81,1.81,0,0,1,.52,1.62,1.83,1.83,0,0,1-1.13,1.34,1.81,1.81,0,0,1-1.6-.17Zm1.17.15a2.26,2.26,0,0,0-.3.74,2.17,2.17,0,0,0-.62-1.15.38.38,0,0,1,.43,0Zm18.93,15.39a2.06,2.06,0,0,0-1.05-.33,2.31,2.31,0,0,0,.53-.4l.4.31A.39.39,0,0,1,176.28,134.24ZM154.4,161.78a.38.38,0,0,1-.25.14,1.79,1.79,0,0,1-.43-.91,2.29,2.29,0,0,0,.09-.9,1.8,1.8,0,0,1,.95-1,1.82,1.82,0,0,1,1.68.13Z"></path><path class="cls-13" d="M150.22,146.62A8.26,8.26,0,0,1,148.9,135h0A8.25,8.25,0,1,1,152.61,148,8.39,8.39,0,0,1,150.22,146.62Zm4.24-14.29a7.77,7.77,0,0,0-5.27,2.92h0a7.88,7.88,0,0,0,1.25,11.08A7.89,7.89,0,1,0,160.27,134a8.06,8.06,0,0,0-2.29-1.27A7.87,7.87,0,0,0,154.46,132.33Z"></path><path class="cls-14" d="M182.17,134.49q-4.39,5.83-9.14,11.38"></path><path class="cls-14" d="M164.57,157q-3.42,3.87-6.56,8"></path><path class="cls-14" d="M181.7,132.79q-6.58-5.08-12.95-10.45"></path><path class="cls-14" d="M166.13,120.7c-1.42-1.32-2.89-2.61-4.39-3.85"></path><g class="cls-15"><path d="M148.89,148.5a15.1,15.1,0,0,0,3.18,1.21c1.81.46,3.7.3,5.5.84-.45,1.09-.82,2.22-1.25,3.33s-.81,2.11-1.21,3.16a10.41,10.41,0,0,1-1.34,2.93,20.42,20.42,0,0,0-2.84-2,9.33,9.33,0,0,0-1.87-.62,25.17,25.17,0,0,0-5.46-.73c-.16,0-.37,0-.42-.2a.4.4,0,0,1,0-.24c.58-1.55,1.2-3.07,1.85-4.58.36-.81.72-1.62,1.1-2.42.26-.57.42-1.41.7-1.89A14.45,14.45,0,0,0,148.89,148.5Z"></path><path d="M167.66,156.73a3.59,3.59,0,0,0-1.39.19l2.11.55a1,1,0,0,1,.7.43.69.69,0,0,1,0,.47c-.21.9-1.24,1.31-2.14,1.56a.89.89,0,0,1,.45,1.25,2.23,2.23,0,0,1-1.16.95,4.08,4.08,0,0,1-2.46.43.78.78,0,0,1,0,1.05,1.9,1.9,0,0,1-1,.49c-2,.42-4-1.19-5.53-2.22-.66-.43-1.32-.65-2-1a24,24,0,0,1-2.3-1.58c-.71-.53-1.52-.85-1.59-1.84a8.42,8.42,0,0,1,1-5.1,4.85,4.85,0,0,1,1.23-1.36,3.68,3.68,0,0,1,1.58-.63,18.87,18.87,0,0,1,4.25-.92c1.79,0,3.46.62,5.22.79.73.08,2.67.47,1.58,1.55a2.51,2.51,0,0,1-1.6.51,18.52,18.52,0,0,0-2,.48,4.69,4.69,0,0,0,2.58,1.44,25.58,25.58,0,0,0,4.2.16c.4,0,.88.11,1,.48s-.14.8-.46,1.07a3.55,3.55,0,0,1-1.72.8A3.87,3.87,0,0,1,167.66,156.73Z"></path><path d="M131.91,136.66a8.1,8.1,0,0,0-3-1.36c-2.57-.53-5.42-.68-7.78.62a7.56,7.56,0,0,0-3.88,7.29c.76,6.15,7.44,8.74,12.47,10.75,1.62.65,18.37,5.56,18.58,4.25.18-1.15,4.06-9.35,3.9-9.42a86.53,86.53,0,0,1-17.09-9.63C134,138.35,133,137.42,131.91,136.66Z"></path></g><path class="cls-16" d="M148.19,146.4a15.67,15.67,0,0,0,3.24,1.23c1.85.47,3.77.3,5.61.86-.47,1.11-.84,2.26-1.28,3.39l-1.23,3.22a10.29,10.29,0,0,1-1.37,3,21.08,21.08,0,0,0-2.88-2.08,9.84,9.84,0,0,0-1.92-.64,25.3,25.3,0,0,0-5.55-.74c-.17,0-.39,0-.43-.2a.37.37,0,0,1,0-.25q.89-2.35,1.9-4.67c.35-.82.73-1.64,1.11-2.45.27-.58.43-1.44.71-1.94A14.14,14.14,0,0,0,148.19,146.4Z"></path><path class="cls-16" d="M167.31,154.79a3.69,3.69,0,0,0-1.41.19l2.15.56a1,1,0,0,1,.72.44.76.76,0,0,1,0,.47c-.22.92-1.27,1.34-2.18,1.59a.92.92,0,0,1,.45,1.28,2.28,2.28,0,0,1-1.18,1,4.24,4.24,0,0,1-2.51.44.79.79,0,0,1-.05,1.07,2,2,0,0,1-1.06.5c-2,.42-4-1.22-5.64-2.26-.67-.45-1.34-.67-2-1a25.13,25.13,0,0,1-2.35-1.62c-.73-.53-1.55-.86-1.62-1.87a8.68,8.68,0,0,1,1-5.2,5.16,5.16,0,0,1,1.25-1.38,3.78,3.78,0,0,1,1.62-.64,18.51,18.51,0,0,1,4.33-.94c1.82,0,3.53.63,5.32.81.74.07,2.72.47,1.61,1.57a2.54,2.54,0,0,1-1.63.52,19.26,19.26,0,0,0-2,.49,4.83,4.83,0,0,0,2.63,1.47,26.56,26.56,0,0,0,4.28.16c.41,0,.89.11,1.05.49s-.13.82-.46,1.09a3.71,3.71,0,0,1-1.75.81A4.21,4.21,0,0,1,167.31,154.79Z"></path><path class="cls-7" d="M130.89,134.33a8.29,8.29,0,0,0-3-1.38c-2.62-.54-5.53-.69-7.93.64a7.68,7.68,0,0,0-4,7.42c.77,6.27,7.58,8.91,12.7,11,1.65.66,18.72,5.66,18.93,4.32.19-1.17,4.13-9.52,4-9.59a88.47,88.47,0,0,1-17.41-9.81C133,136.06,132,135.11,130.89,134.33Z"></path><path class="cls-16" d="M170.79,139.6a3.75,3.75,0,0,1,.75,1.15c-.58-.41-1.17-.81-1.76-1.21a1,1,0,0,0-.77-.25.77.77,0,0,0-.36.28c-.53.74-.17,1.77.21,2.59a.89.89,0,0,0-1.22.48,2.19,2.19,0,0,0,0,1.47,4.06,4.06,0,0,0,1.26,2.1.76.76,0,0,0-.75.71,1.88,1.88,0,0,0,.3,1.09c.95,1.72,3.44,2.18,5.2,2.68.74.22,1.33.56,2,.82a23.58,23.58,0,0,0,2.66.69c.84.2,1.6.59,2.38,0a8.36,8.36,0,0,0,3.18-4,4.67,4.67,0,0,0,.22-1.78,3.52,3.52,0,0,0-.55-1.58,18.4,18.4,0,0,0-2-3.75c-1.11-1.35-2.67-2.17-3.93-3.36-.52-.5-2.06-1.69-2.16-.19a2.43,2.43,0,0,0,.65,1.51,18.24,18.24,0,0,1,.92,1.8,4.58,4.58,0,0,1-2.72-1,25.9,25.9,0,0,1-2.81-3c-.27-.29-.64-.58-1-.46s-.51.61-.5,1a3.53,3.53,0,0,0,.5,1.79A3.8,3.8,0,0,0,170.79,139.6Z"></path><path class="cls-8" d="M116.16,140.91a8.7,8.7,0,0,0,1.87,4.22,13.6,13.6,0,0,0,3.52,3,29.38,29.38,0,0,0,4.12,2.17c.71.32,1.43.61,2.16.91A23,23,0,0,0,130,152c3,.93,6,1.78,9,2.57,1.52.39,3,.76,4.56,1.09.77.15,1.53.3,2.3.41a8.93,8.93,0,0,0,1.14.1,1.76,1.76,0,0,0,.49,0s0,0,0,0l0,0v0a2.81,2.81,0,0,1,.08-.31c1.09-3,2.48-5.79,3.68-8.67.07-.17.15-.38.19-.51v0a.17.17,0,0,0,0,.13.28.28,0,0,0,.12.1l-.07,0-.13-.06-.27-.12-1.08-.48-2.13-1q-2.13-1-4.21-2.13a79.6,79.6,0,0,1-8-4.93c-.63-.46-1.26-.94-1.87-1.44l-1.79-1.52a9.86,9.86,0,0,0-4-2.28,10,10,0,0,1,4.19,2.08c1.24,1,2.48,1.9,3.8,2.75a77.53,77.53,0,0,0,8,4.9c1.38.74,2.78,1.44,4.19,2.12l2.12,1,1.07.47.27.12.13.06.07,0a.29.29,0,0,1,.13.14.22.22,0,0,1,0,.17v0a4.92,4.92,0,0,1-.22.59c-1.2,2.9-2.6,5.73-3.66,8.63a1.61,1.61,0,0,0-.07.25v0a.36.36,0,0,1,0,.1.85.85,0,0,1-.1.14.89.89,0,0,1-.22.13,2,2,0,0,1-.67.07,9.4,9.4,0,0,1-1.2-.1c-.79-.11-1.56-.26-2.33-.42-1.54-.33-3.06-.7-4.58-1.09-3-.8-6.06-1.64-9.06-2.58-.75-.23-1.5-.54-2.22-.83s-1.45-.59-2.17-.91a30.52,30.52,0,0,1-4.2-2.2,13.67,13.67,0,0,1-3.44-3.26A8.83,8.83,0,0,1,116.16,140.91Z"></path><path class="cls-17" d="M139.54,155.26q2.52-5.85,5.22-11.62"></path><rect class="cls-18" x="130.12" y="119.16" width="12.24" height="3.39"></rect><path class="cls-11" d="M133.79,119.86v2h-.49V121h-.75v.82h-.49v-2h.49v.78h.75v-.78Z"></path><path class="cls-11" d="M134.13,120.63a.65.65,0,0,1,.25-.29.71.71,0,0,1,.35-.1.7.7,0,0,1,.3.07.55.55,0,0,1,.19.18v-.22h.49v1.58h-.49v-.23a.41.41,0,0,1-.19.18.6.6,0,0,1-.3.07.62.62,0,0,1-.35-.1.65.65,0,0,1-.25-.29.94.94,0,0,1-.09-.43A.93.93,0,0,1,134.13,120.63Zm1,.14a.33.33,0,0,0-.24-.1.33.33,0,0,0-.25.1.37.37,0,0,0-.1.28.38.38,0,0,0,.1.29.34.34,0,0,0,.25.11.34.34,0,0,0,.24-.11.37.37,0,0,0,.1-.28A.39.39,0,0,0,135.12,120.77Z"></path><path class="cls-11" d="M137.47,120.43a.69.69,0,0,1,.16.49v.93h-.48V121a.37.37,0,0,0-.08-.25.29.29,0,0,0-.22-.08.26.26,0,0,0-.22.08.33.33,0,0,0-.09.25v.86h-.48v-1.58h.48v.21a.55.55,0,0,1,.2-.17.64.64,0,0,1,.28-.06A.58.58,0,0,1,137.47,120.43Z"></path><path class="cls-11" d="M138,120a.26.26,0,0,1-.08-.19.27.27,0,0,1,.08-.19.31.31,0,0,1,.21-.07.3.3,0,0,1,.21.07.27.27,0,0,1,.08.19.26.26,0,0,1-.08.19.3.3,0,0,1-.21.07A.31.31,0,0,1,138,120Zm.45.24v1.58H138v-1.58Z"></path><path class="cls-11" d="M139.6,120.67h-.26v1.18h-.49v-1.18h-.17v-.4h.17v0a.57.57,0,0,1,.17-.44.72.72,0,0,1,.49-.15h.08V120a.29.29,0,0,0-.2,0,.25.25,0,0,0,0,.17v0h.26Z"></path><path class="cls-6" d="M122.64,72.79a5.74,5.74,0,0,0-5.8,5.68h0a5.75,5.75,0,0,0,5.68,5.81l3.09,0,.13-11.48Z"></path><path class="cls-6" d="M168.54,73.3a5.76,5.76,0,0,1,5.68,5.81h0a5.75,5.75,0,0,1-5.81,5.68l-3.09,0,.13-11.48Z"></path><circle class="cls-16" cx="145.59" cy="73.54" r="22.98" transform="translate(-9.36 124.49) rotate(-45)"></circle><path class="cls-19" d="M130.27,70.51a.9.9,0,0,1-.47-.13,1,1,0,0,1-.34-1.31,6.61,6.61,0,0,1,9-2.35,1,1,0,0,1,.34,1.31,1,1,0,0,1-1.31.34A4.7,4.7,0,0,0,131.11,70,1,1,0,0,1,130.27,70.51Z"></path><path class="cls-19" d="M161,70.85a1,1,0,0,1-.83-.49,4.69,4.69,0,0,0-6.38-1.81,1,1,0,0,1-1.3-.37.94.94,0,0,1,.37-1.3,6.6,6.6,0,0,1,9,2.55,1,1,0,0,1-.37,1.3A1,1,0,0,1,161,70.85Z"></path><path class="cls-19" d="M167.7,79.8c-.93-3-.2-8.88-1.09-11.27-2.85-1.11-4.25-3.51-5-6.49a14.11,14.11,0,0,0-.46-1.81,3,3,0,0,0-1.31-1.63,13.08,13.08,0,0,1-12.75,2.53c-2.65-.92-4.93-2.69-7.56-3.67s-6-.94-7.77,1.24c.52,2-1,4.28-2.51,5.71S126,67,124.83,68.73c-1.72,2.67-.15,6.78-1.68,9.81a13.11,13.11,0,0,1-1.62-9.83C122,66.78,122.9,65,123.25,63c.54-2.92-.18-6,.34-8.9a10.66,10.66,0,0,1,13.31-8.43,47,47,0,0,1,10.62-4.14,16.24,16.24,0,0,1,11.29.74c3.44,1.74,6,5.47,5.64,9.31a7.5,7.5,0,0,1,4.49,4.84,17.47,17.47,0,0,1,.62,6.8,50.72,50.72,0,0,0-.28,6.86c.11,1.64.46,3.28.42,4.93A6.85,6.85,0,0,1,167.7,79.8Z"></path><path class="cls-19" d="M135.49,78.55a2,2,0,1,1,2.07-2A2,2,0,0,1,135.49,78.55Z"></path><path class="cls-19" d="M155.85,78.77a2,2,0,1,1,2.06-2A2.05,2.05,0,0,1,155.85,78.77Z"></path><path class="cls-20" d="M141.8,85.25a1,1,0,0,0-.43.24,1,1,0,0,0,0,1.35,6.61,6.61,0,0,0,9.34.24,1,1,0,0,0-1.32-1.39,4.69,4.69,0,0,1-6.64-.17A.94.94,0,0,0,141.8,85.25Z"></path><path class="cls-4" d="M148.17,240.35a8.26,8.26,0,0,0,1.19,0q1.26,0,2.52.06c3.35.06,6.7,0,10,0a10.09,10.09,0,0,0,2.13,0,5.47,5.47,0,0,0,1.51-.3.65.65,0,0,0,.17-.46c.16-2,.24-4,.22-6,0-.42.22-1.27-.18-1.58s-1.77-.11-2.31-.08c-2.72.16-5.45.12-8.17.09-1.36,0-2.73,0-4.09,0-1,0-1.93,0-2.89,0a2.22,2.22,0,0,0-.73.08c-.33.13-.24,0-.28.42a12.37,12.37,0,0,0,0,1.61c0,.44,0,.87,0,1.3,0,.83.07,1.66.11,2.49a6.64,6.64,0,0,0,.11,2A.7.7,0,0,0,148.17,240.35Z"></path><path class="cls-4" d="M122.76,243.68a7.38,7.38,0,0,0,1.19.06c.84.06,1.68.1,2.51.14,3.35.14,6.7.18,10,.29a10,10,0,0,0,2.12,0,5.49,5.49,0,0,0,1.52-.26.65.65,0,0,0,.18-.45q.33-3,.38-6c0-.41.25-1.26-.13-1.59s-1.77-.15-2.31-.13c-2.73.08-5.45,0-8.17-.13-1.36-.05-2.72-.1-4.09-.11-1,0-1.92-.08-2.89,0a2.52,2.52,0,0,0-.73.06c-.34.12-.24,0-.29.42a12.36,12.36,0,0,0,0,1.61c0,.43,0,.86,0,1.29,0,.84,0,1.67,0,2.5a6.68,6.68,0,0,0,0,2A.69.69,0,0,0,122.76,243.68Z"></path></g></g></svg>