<svg xmlns="http://www.w3.org/2000/svg" id="Layer_1" data-name="Layer 1" viewBox="0 0 300 300"><defs><style>.cls-1{fill:#eaeaea;}.cls-2{fill:#303030;}.cls-3{fill:#96ad77;}.cls-4{fill:#ffd8bb;}.cls-5{fill:#f6f9de;}.cls-18,.cls-6,.cls-7,.cls-8{fill:none;stroke-linecap:round;}.cls-6,.cls-7{stroke:#2f4732;}.cls-15,.cls-6,.cls-7{stroke-miterlimit:10;}.cls-6{stroke-width:0.45px;stroke-dasharray:1.21 1.21;}.cls-7{stroke-width:0.42px;stroke-dasharray:1.13 1.13;}.cls-8{stroke:#f19969;}.cls-18,.cls-8{stroke-linejoin:round;stroke-width:0.38px;}.cls-9{fill:#fdffe6;}.cls-10{fill:#d85b52;}.cls-11,.cls-15{fill:#fff;}.cls-12{fill:#bbbf7b;}.cls-13{fill:#679b49;}.cls-14{fill:#892020;}.cls-15{stroke:#2b2b2b;stroke-width:0.39px;}.cls-16{fill:#ff9e0f;}.cls-17{fill:#ffbe4b;}.cls-18{stroke:#ededed;}.cls-19{fill:#b4c68d;}</style></defs><path class="cls-1" d="M124.07,225.57a4.83,4.83,0,0,0-1,.61,5.69,5.69,0,0,0-1.78,4c-.14,1.77.73,3.39.67,5.11.53,2.8.56,7.61,2.88,9.5a3.94,3.94,0,0,0,2.6.82,6.34,6.34,0,0,0,4.42-2.23,8.37,8.37,0,0,0,2.42-4.34,21.68,21.68,0,0,0-.09-2.79c-.15-3,.54-5.92.57-8.89,0-1.68-1.86-2.33-3.26-2.41a34.07,34.07,0,0,0-4.63,0A8.76,8.76,0,0,0,124.07,225.57Z"></path><path class="cls-2" d="M136.16,248.55a5.1,5.1,0,0,0-.23-3.74c-.44-1.28-.3-2.7-.6-4a2.66,2.66,0,0,0-.58-1.3.46.46,0,0,0-.22-.14c-.16,0-.3.12-.41.24-.9,1.11-1.53,2.11-3,2.53a9,9,0,0,1-2.89.22,26.22,26.22,0,0,1-4.15-.57,4.57,4.57,0,0,0,.42-3.91,1.68,1.68,0,0,0-.68-.93,1.74,1.74,0,0,0-1.38,0,6.91,6.91,0,0,0-2.61,1.84c-1.72,1.69-3.45,3.49-5.71,4.41a12.61,12.61,0,0,0-3.54,1.59c-1.28,1.08-1.59,2.85-1.82,4.48s.78,2,2.22,2c2,0,3.89.09,5.84.06a116.23,116.23,0,0,0,11.65-.76c1.48-.17,3-.38,4.43-.6.93-.15,2.5-.13,3.07-1A2.21,2.21,0,0,0,136.16,248.55Z"></path><path class="cls-1" d="M158.21,225.57a4.59,4.59,0,0,1,1,.61,5.65,5.65,0,0,1,1.78,4c.14,1.77-.73,3.39-.67,5.11-.53,2.8-.55,7.61-2.87,9.5a4,4,0,0,1-2.61.82,6.32,6.32,0,0,1-4.41-2.23,8.37,8.37,0,0,1-2.42-4.34,18.59,18.59,0,0,1,.09-2.79c.14-3-.54-5.92-.57-8.89,0-1.68,1.86-2.33,3.25-2.41a34.07,34.07,0,0,1,4.63,0A8.76,8.76,0,0,1,158.21,225.57Z"></path><path class="cls-2" d="M146.12,248.55a5.21,5.21,0,0,1,.23-3.74,37.78,37.78,0,0,0,.61-4,2.64,2.64,0,0,1,.57-1.3.46.46,0,0,1,.22-.14c.16,0,.3.12.41.24.91,1.11,1.54,2.11,3,2.53a9,9,0,0,0,2.89.22,26.51,26.51,0,0,0,4.16-.57,4.54,4.54,0,0,1-.43-3.91,1.78,1.78,0,0,1,.68-.93,1.74,1.74,0,0,1,1.38,0,6.94,6.94,0,0,1,2.62,1.84c1.71,1.69,3.44,3.49,5.7,4.41a12.61,12.61,0,0,1,3.54,1.59c1.28,1.08,1.59,2.85,1.82,4.48s-.77,2-2.22,2c-1.94,0-3.89.09-5.83.06a116.43,116.43,0,0,1-11.66-.76c-1.48-.17-3-.38-4.42-.6-.93-.15-2.51-.13-3.08-1A2.21,2.21,0,0,1,146.12,248.55Z"></path><path class="cls-3" d="M168,185.27q0-27.37-.29-54.75c-3.9,0-14.07,5.06-22.92,19.81-4.81-16.2-12.91-26.39-27.22-19.81q-.27,27.38-.29,54.75c0,16.84-.77,34.68.3,51.23a9.35,9.35,0,0,0,.29,2c3.47-1.07,7-.72,10.46-.8,2.42-.05,4.85.78,7.26.26-1,.21,12.15,2.61,17.82-.56a32.5,32.5,0,0,0,3.54.3c3.49.08,7-.27,10.46.8a9.38,9.38,0,0,0,.28-2C168.81,220,168.05,202.11,168,185.27Z"></path><path class="cls-4" d="M180.55,89.13c0,.2,0-.41-.08-.75-.31-1.71-2.16-2.93-2.73-4.59a12.65,12.65,0,0,0-1.52-3.35c-.18-.26-.38-.51-.58-.75l-.55-.69a10.1,10.1,0,0,1-1.25-2.07c.13-.43,1.16-1.22,2.82-.17a11.2,11.2,0,0,1,2.09,2.36,1.92,1.92,0,0,0,1,.62.63.63,0,0,0,.41,0,2.58,2.58,0,0,0,1.14-1.77c.58-2,2.48-7.7,2.92-8.64.23-.51.48-1.34,1-1.59s1.24-.2,1.44.33a5.34,5.34,0,0,1-.2,1.67,33.69,33.69,0,0,0-1,5.64c.3.81,3.89-5.38,5.26-6.91.42-.46,1.07-1,1.68-.67a1,1,0,0,1,.49,1,6.75,6.75,0,0,1-.82,1.66c-1.15,1.78-3.58,6.1-3.33,6.29s3.35-3.06,4.61-4.47c.33-.37,1.32-1.32,1.85-1.22a1.13,1.13,0,0,1,.79.88c.2.86-4.72,6.94-4.72,7s0,.77,1.14.3,4.46-3.21,5.29-2.31a.93.93,0,0,1,.07,1,4.07,4.07,0,0,1-.87.89c-1,.89-3.92,3.45-4.58,4.2a14.48,14.48,0,0,0-1.48,2.16,13.53,13.53,0,0,0-2.24,5.35.37.37,0,0,1-.1.24.39.39,0,0,1-.24,0,21.52,21.52,0,0,1-5.38-.47C182,90.08,180.87,90,180.55,89.13Z"></path><path class="cls-5" d="M114,167.8a6.58,6.58,0,0,1-1.9-2.41,59.51,59.51,0,0,1-4.23-18.9,37.08,37.08,0,0,1,.15-8.16c.44-2.62.28-5.8,2.77-7.38a36.74,36.74,0,0,1,8.67-4.08,1.07,1.07,0,0,1,.91,0,1,1,0,0,1,.31.58c1.25,4.43,1.24,9.24,2.16,13.82,1,5,2.31,10.3,4.71,14.87a12.29,12.29,0,0,1,1.31,3.49,8.88,8.88,0,0,1-1.51,5,29.91,29.91,0,0,1-4.23,4.42c-1.47,1.43-3.78,1.32-5.62.71A11.42,11.42,0,0,1,114,167.8Z"></path><path class="cls-5" d="M157.24,121.41c7-4,12.23-7.23,15.87-14.36,3.35-6.58,4-12,5.31-18.85,4-1.07,9.25.12,12.15,1.84,1.16,6.48-.74,22.81-10.14,36.63-3.58,5.24-15.17,18.37-20,22.49-2.5-2.31-3-14.78-4.85-18.09S158,124.92,157.24,121.41Z"></path><path class="cls-6" d="M166,148c-.27,30.24-.09,60.53.55,90.71"></path><path class="cls-7" d="M119.86,235.56c-.19-25.57.2-51.18,1.18-76.58"></path><path class="cls-8" d="M131.34,100.52s9.51,6.35,22.25-.12"></path><path class="cls-9" d="M164.45,81.73c-1.48-5-1-10.48-2.45-15.39-.43-1.43-2.56-4.19-4.33-4.08s-3.21.78-4.87.47A30.39,30.39,0,0,1,148.13,61c-3.5-1.3-7.19-2.12-10.46-4-1.69-1-4-3.19-6-3.26-1.84-.07-3.41,2.71-4.53,4.08a28.33,28.33,0,0,0-3.51,5.54c-.89,1.82-2.15,3.38-3,5.25-.94,2.09-2.42,4.3-3.08,6.48-1.45,4.78-4.28,24.29-7.31,29.42-9.14,15.45-8.12,41.74-8.12,42,0,5,13.16,3.75,17.15,7.5,2.83,2.67,10.71,4.07,21.55,5.51,8.93,1.18,23.1-1.94,24.06-4.69,5.73-16.42,8.12-41.49,9.11-44C176.35,104.71,168.54,95.67,164.45,81.73Z"></path><path class="cls-4" d="M140.58,104c-5.07,0-14.52-5.14-16.52-16a19.66,19.66,0,0,1,0-6.45,33,33,0,0,1,1.62-7,16.49,16.49,0,0,1,5.44-7.58l18.39.1a17.1,17.1,0,0,1,5.55,7.64,34.16,34.16,0,0,1,1.72,7,20,20,0,0,1,.1,6.46C155,99,145.65,104,140.58,104"></path><path class="cls-10" d="M136.46,93.47a.92.92,0,0,0-.39.23.88.88,0,0,0,0,1.25,6.1,6.1,0,0,0,8.62-.11.88.88,0,0,0,0-1.25.89.89,0,0,0-1.25,0,4.33,4.33,0,0,1-6.12.09A.87.87,0,0,0,136.46,93.47Z"></path><path class="cls-2" d="M157.75,83.34l-3.18,0a6.37,6.37,0,0,0-12.72.44,3.07,3.07,0,0,0-2.87,0,6.38,6.38,0,0,0-12.73-.21l-3.38,0a.37.37,0,1,0,0,.74l3.37,0a6.39,6.39,0,0,0,12.67.42,2.29,2.29,0,0,1,3-.06,6.38,6.38,0,0,0,12.66-.63l3.18,0a.36.36,0,0,0,.37-.37A.38.38,0,0,0,157.75,83.34Zm-25.09,6.1a5.5,5.5,0,1,1,5.56-5.54A5.56,5.56,0,0,1,132.66,89.44Zm15.61-.14a5.5,5.5,0,1,1,5.57-5.55A5.56,5.56,0,0,1,148.27,89.3Z"></path><rect class="cls-2" x="117.68" y="114.57" width="14.22" height="3.94" transform="translate(0.38 -0.41) rotate(0.19)"></rect><path class="cls-11" d="M121.71,115.44v2.15h-.52v-.88h-.81v.88h-.52v-2.14h.52v.84h.81v-.84Z"></path><path class="cls-11" d="M122.08,116.27a.66.66,0,0,1,.27-.3.7.7,0,0,1,.38-.11.62.62,0,0,1,.31.08.48.48,0,0,1,.21.19v-.24h.53v1.7h-.52v-.24a.55.55,0,0,1-.21.19.66.66,0,0,1-.32.07.65.65,0,0,1-.38-.11.79.79,0,0,1-.27-.3,1.16,1.16,0,0,1-.1-.47A1,1,0,0,1,122.08,116.27Zm1.06.16a.36.36,0,0,0-.26-.11.33.33,0,0,0-.26.11.37.37,0,0,0-.11.3.43.43,0,0,0,.1.31.34.34,0,0,0,.27.12.36.36,0,0,0,.26-.11.45.45,0,0,0,.11-.31A.41.41,0,0,0,123.14,116.43Z"></path><path class="cls-11" d="M125.67,116.07a.76.76,0,0,1,.18.53v1h-.52v-.93a.36.36,0,0,0-.09-.26.34.34,0,0,0-.48,0,.36.36,0,0,0-.09.26v.93h-.52v-1.7h.53v.23a.46.46,0,0,1,.21-.18.6.6,0,0,1,.3-.06A.62.62,0,0,1,125.67,116.07Z"></path><path class="cls-11" d="M127.73,116.08a.76.76,0,0,1,.18.53v1h-.52v-.93a.4.4,0,0,0-.09-.27.36.36,0,0,0-.48,0,.38.38,0,0,0-.09.27v.92h-.52v-1.7h.53v.22A.62.62,0,0,1,127,116a.6.6,0,0,1,.3-.07A.63.63,0,0,1,127.73,116.08Z"></path><path class="cls-11" d="M128.27,116.29a.66.66,0,0,1,.27-.3.7.7,0,0,1,.38-.11.69.69,0,0,1,.32.08.46.46,0,0,1,.2.19v-.24H130v1.7h-.52v-.24a.55.55,0,0,1-.21.19.56.56,0,0,1-.32.07.72.72,0,0,1-.38-.1.91.91,0,0,1-.27-.31,1,1,0,0,1-.09-.47A1,1,0,0,1,128.27,116.29Zm1.06.16a.36.36,0,0,0-.26-.11.33.33,0,0,0-.26.11.37.37,0,0,0-.11.3.43.43,0,0,0,.1.31.36.36,0,0,0,.27.12.36.36,0,0,0,.26-.11.45.45,0,0,0,.11-.31A.41.41,0,0,0,129.33,116.45Z"></path><path class="cls-9" d="M160.5,61.83c-2.39-5.06-8.07-13.86-21.75-13C126.86,49.54,116,62.48,118,78.25a49.45,49.45,0,0,0,1.88,9.36c.51,1.55.66,3.22,1.19,4.79s1.39,3.11,2.06,4.7c-3.83-9.14,1-17.5,4.66-23.83a10.88,10.88,0,0,1,.8-1.41c1.82-.46,2.16-2,3.72-1.83,1.72.22,2.15,1.42,4.07.7s1.24-1.67,3.46-1.36c1.25.17,2.16,1.29,3,1s1.24-1.37,2.61-.68,2.27,1.26,3.35.57c.88-.56,2.47-.14,3.87.78l.42.58c3.39,5.07,5.63,16.38,4.65,24,.32-2.51,1.35-5.09,1.86-7.59a43.43,43.43,0,0,0,1-7.27C160.83,74.19,163.41,68,160.5,61.83Z"></path><polygon class="cls-12" points="154.2 68.72 163.01 76.54 162.91 74.05 155.44 67.48 154.2 68.72"></polygon><polygon class="cls-12" points="128.72 69.41 117.67 78.86 117.79 76.18 127.64 67.83 128.72 69.41"></polygon><path class="cls-13" d="M128.72,69h0a4.24,4.24,0,0,0,2.91-1.35c.55-.49.86-.75,1.42-.67a4.08,4.08,0,0,1,1.34.47,2.92,2.92,0,0,0,2.85.21,4.22,4.22,0,0,0,1.53-1c.35-.35.51-.5,1.56-.35a3.88,3.88,0,0,1,1.26.54,2.09,2.09,0,0,0,1.88.43,3.34,3.34,0,0,0,.76-.5c.46-.38.7-.56,1.34-.22l.36.19c1.18.64,2.2,1.19,3.4.37.63-.43,2-.06,3.2.82a1.07,1.07,0,0,0,1.43-.2h0c-1.57-1.45-3.86-2.43-5.21-1.52-.66.45-1.19.2-2.34-.42l-.37-.2a2,2,0,0,0-2.45.33,2.45,2.45,0,0,1-.51.35c-.2.09-.58-.13-1-.36a4.63,4.63,0,0,0-1.63-.68c-1.44-.21-1.87.1-2.42.65a3.19,3.19,0,0,1-1.19.79,2,2,0,0,1-2-.17,4.93,4.93,0,0,0-1.67-.58,2.62,2.62,0,0,0-2.23.93,4.15,4.15,0,0,1-1.28.88,1.63,1.63,0,0,0-1,1.28Z"></path><rect class="cls-14" x="153.42" y="66.7" width="2.02" height="2.02" rx="0.73"></rect><rect class="cls-14" x="127.08" y="67.71" width="2.02" height="2.02" rx="0.73"></rect><path class="cls-2" d="M128.81,75.27c-.15-1.44,2.9-1.32,4-1.19a2.89,2.89,0,0,1,1.82.63.59.59,0,0,1-.25.87c-.77.34-1.66-.11-2.48-.06a15.84,15.84,0,0,0-2.22.14A.73.73,0,0,1,128.81,75.27Z"></path><path class="cls-2" d="M132.44,80.61a1.78,1.78,0,1,1,.12,3.54C130.11,84.07,130.31,81,132.44,80.61Z"></path><path class="cls-2" d="M151.82,75.61c.18-1.44-2.87-1.39-4-1.28a2.82,2.82,0,0,0-1.83.58.59.59,0,0,0,.22.88c.77.35,1.66-.07,2.49,0a14.2,14.2,0,0,1,2.21.19A.73.73,0,0,0,151.82,75.61Z"></path><path class="cls-2" d="M149.24,80.82a1.78,1.78,0,1,0-.2,3.54C151.49,84.33,151.36,81.24,149.24,80.82Z"></path><polyline class="cls-2" points="149.82 81.12 151.44 80.48 150.46 81.73 149.83 81.33"></polyline><polyline class="cls-2" points="131.57 81.14 129.93 80.57 130.95 81.78 131.57 81.35"></polyline><rect class="cls-15" x="151.7" y="111.46" width="11.75" height="12.93" rx="1.44"></rect><path class="cls-2" d="M153.65,120.4a.19.19,0,0,1,0,.07.21.21,0,0,1,0,.06.09.09,0,0,1-.06,0h-.15l-.06,0,0-.06a.17.17,0,0,1,0-.07v-.54H153v.19h.08v.35a.32.32,0,0,0,0,.14.37.37,0,0,0,.2.2.39.39,0,0,0,.3,0,.42.42,0,0,0,.12-.08.36.36,0,0,0,.08-.12.32.32,0,0,0,0-.14v-.54h-.19Z"></path><polygon class="cls-2" points="154.45 120.33 154.14 119.86 153.97 119.86 153.97 120.76 154.16 120.76 154.16 120.23 154.39 120.58 154.52 120.58 154.75 120.23 154.75 120.76 154.94 120.76 154.94 119.86 154.77 119.86 154.45 120.33"></polygon><polygon class="cls-2" points="155.87 120.23 155.87 120.76 156.06 120.76 156.06 119.86 155.89 119.86 155.57 120.33 155.26 119.86 155.09 119.86 155.09 120.76 155.28 120.76 155.28 120.23 155.51 120.58 155.63 120.58 155.87 120.23"></polygon><path class="cls-2" d="M156.79,120.74a.42.42,0,0,0,.12-.08.36.36,0,0,0,.08-.12.32.32,0,0,0,0-.14v-.54h-.19v.54a.17.17,0,0,1,0,.07l0,.06a.09.09,0,0,1-.06,0h-.15l-.06,0,0-.06a.17.17,0,0,1,0-.07v-.54h-.27v.19h.08v.35a.32.32,0,0,0,0,.14.37.37,0,0,0,.2.2.39.39,0,0,0,.3,0Z"></path><polygon class="cls-2" points="157.29 119.86 157.13 119.86 157.15 120.11 157.28 120.11 157.29 119.86"></polygon><polygon class="cls-2" points="157.61 119.86 157.42 119.86 157.42 120.76 157.99 120.76 157.99 120.57 157.61 120.57 157.61 119.86"></polygon><path class="cls-2" d="M159.16,120.76h.19v-.19h-.12a.45.45,0,0,0,.06-.12.51.51,0,0,0,0-.13.39.39,0,0,0,0-.18.65.65,0,0,0-.1-.15.38.38,0,0,0-.15-.09.37.37,0,0,0-.18,0,.34.34,0,0,0-.18,0,.38.38,0,0,0-.15.09.65.65,0,0,0-.1.15.42.42,0,0,0,0,.36.49.49,0,0,0,.1.15.56.56,0,0,0,.15.1.48.48,0,0,0,.18,0,.34.34,0,0,0,.14,0l.12,0Zm-.19-.45-.13.13.12.12-.12,0a.22.22,0,0,1-.11,0,.24.24,0,0,1-.09-.06l-.06-.08a.31.31,0,0,1,0-.22l.06-.08a.24.24,0,0,1,.09-.06.31.31,0,0,1,.22,0,.24.24,0,0,1,.09.06l.06.08a.43.43,0,0,1,0,.11.2.2,0,0,1,0,.11Z"></path><path class="cls-2" d="M160.05,120.4a.17.17,0,0,1,0,.07l0,.06a.09.09,0,0,1-.06,0h-.15l-.06,0,0-.06a.17.17,0,0,1,0-.07v-.54h-.27v.19h.08v.35a.32.32,0,0,0,0,.14.37.37,0,0,0,.2.2.39.39,0,0,0,.3,0,.42.42,0,0,0,.12-.08.36.36,0,0,0,.08-.12.32.32,0,0,0,0-.14v-.54h-.19Z"></path><path class="cls-2" d="M161,120a.26.26,0,0,0-.11-.07.31.31,0,0,0-.13,0h-.34v.48h-.07v.19h.07v.23h.19v-.23h.11l.14.23h.22l-.16-.27a.18.18,0,0,0,.07,0l.06-.07s0-.05,0-.08a.29.29,0,0,0,0-.09.28.28,0,0,0,0-.13A.3.3,0,0,0,161,120Zm-.11.29a.05.05,0,0,1,0,0l0,0h-.2v-.29h.2l0,0a.05.05,0,0,1,0,0,.14.14,0,0,1,0,.06S160.92,120.23,160.91,120.25Z"></path><path class="cls-2" d="M162.11,120.13a.65.65,0,0,0-.1-.15.38.38,0,0,0-.15-.09.39.39,0,0,0-.18,0,.34.34,0,0,0-.18,0,.38.38,0,0,0-.15.09.44.44,0,0,0-.1.15.42.42,0,0,0,0,.36.36.36,0,0,0,.1.15.56.56,0,0,0,.15.1.48.48,0,0,0,.18,0,.57.57,0,0,0,.18,0,.56.56,0,0,0,.15-.1.49.49,0,0,0,.1-.15.43.43,0,0,0,0-.36Zm-.17.29-.06.08a.24.24,0,0,1-.09.06.22.22,0,0,1-.11,0,.2.2,0,0,1-.11,0,.24.24,0,0,1-.09-.06l-.06-.08a.31.31,0,0,1,0-.22l.06-.08a.24.24,0,0,1,.09-.06.2.2,0,0,1,.11,0,.22.22,0,0,1,.11,0,.24.24,0,0,1,.09.06l.06.08a.31.31,0,0,1,0,.22Z"></path><path class="cls-2" d="M156.23,121.29a.5.5,0,0,0-.14-.1.57.57,0,0,0-.18,0h-.3v.9h.3a.39.39,0,0,0,.18,0,.34.34,0,0,0,.14-.09.31.31,0,0,0,.1-.15.33.33,0,0,0,0-.17.39.39,0,0,0,0-.18A.33.33,0,0,0,156.23,121.29Zm-.07.42-.06.08a.15.15,0,0,1-.09.06l-.1,0h-.11v-.52h.11a.16.16,0,0,1,.1,0,.19.19,0,0,1,.09,0l.06.09a.26.26,0,0,1,0,.2Z"></path><polygon class="cls-2" points="156.51 122.06 157.07 122.06 157.07 121.87 156.7 121.87 156.7 121.7 156.97 121.7 156.97 121.51 156.7 121.51 156.7 121.35 157.07 121.35 157.07 121.16 156.51 121.16 156.51 122.06"></polygon><path class="cls-2" d="M157.82,121.26a.21.21,0,0,0-.11-.07.28.28,0,0,0-.13,0h-.33v.48h-.08v.19h.08v.23h.19v-.23h.14a.28.28,0,0,0,.13,0,.21.21,0,0,0,.11-.07.31.31,0,0,0,.08-.11.51.51,0,0,0,0-.13.59.59,0,0,0,0-.13A.39.39,0,0,0,157.82,121.26Zm-.1.29,0,0-.05,0h-.2v-.29h.2l.05,0,0,0a.09.09,0,0,1,0,0A.13.13,0,0,1,157.72,121.55Z"></path><path class="cls-2" d="M158.83,121.28a.71.71,0,0,0-.14-.1.58.58,0,0,0-.19,0,.57.57,0,0,0-.18,0,.56.56,0,0,0-.15.1.78.78,0,0,0-.1.15.42.42,0,0,0,0,.36.71.71,0,0,0,.1.14.31.31,0,0,0,.15.1.39.39,0,0,0,.18,0,.41.41,0,0,0,.19,0,.33.33,0,0,0,.14-.1.49.49,0,0,0,.11-.14.56.56,0,0,0,0-.36A.53.53,0,0,0,158.83,121.28Zm-.07.44a.16.16,0,0,1-.06.08.18.18,0,0,1-.09.06l-.11,0-.1,0a.15.15,0,0,1-.09-.06.16.16,0,0,1-.06-.08.31.31,0,0,1,0-.22.16.16,0,0,1,.06-.08.15.15,0,0,1,.09-.06.16.16,0,0,1,.1,0,.2.2,0,0,1,.11,0,.18.18,0,0,1,.09.06.16.16,0,0,1,.06.08.31.31,0,0,1,0,.22Z"></path><polygon class="cls-2" points="159.65 121.16 159.34 121.51 159.34 121.16 159.07 121.16 159.07 121.35 159.14 121.35 159.14 122.06 159.34 122.06 159.34 121.79 159.4 121.73 159.67 122.06 159.91 122.06 159.53 121.58 159.91 121.16 159.65 121.16"></polygon><polygon class="cls-2" points="153.35 119.51 153.45 119.51 153.45 119.16 153.57 119.16 153.57 119.08 153.23 119.08 153.23 119.16 153.35 119.16 153.35 119.51"></polygon><polygon class="cls-2" points="153.83 119.29 154 119.08 153.88 119.08 153.73 119.27 153.73 119.08 153.62 119.08 153.62 119.51 153.73 119.51 153.73 119.32 153.88 119.51 154.01 119.51 153.83 119.29"></polygon><rect class="cls-2" x="154.06" y="119.25" width="0.28" height="0.09"></rect><path class="cls-2" d="M154.58,119.43h0a.05.05,0,0,1,0,0h-.12s0,.05,0,.07a.1.1,0,0,0,.06,0l.09,0,.08,0a.1.1,0,0,0,.06,0,.14.14,0,0,0,0-.07.14.14,0,0,0,0-.06.1.1,0,0,0,0,0l-.07,0-.06,0,0,0s0,0,0,0h.07s0,0,0,0h.11a.11.11,0,0,0-.05-.09.14.14,0,0,0-.11,0,.16.16,0,0,0-.12,0,.1.1,0,0,0,0,.09.08.08,0,0,0,0,.07l0,0,.07,0,0,0h0s0,0,0,0,0,0,0,0Z"></path><path class="cls-2" d="M155.18,119.41a.24.24,0,0,0,0-.12.2.2,0,0,0,0-.11.14.14,0,0,0-.08-.07.21.21,0,0,0-.12,0h-.17v.43H155a.21.21,0,0,0,.12,0A.14.14,0,0,0,155.18,119.41Zm-.21,0h-.05v-.25H155a.17.17,0,0,1,.1,0,.12.12,0,0,1,0,.09.15.15,0,0,1,0,.1A.17.17,0,0,1,155,119.42Z"></path><rect class="cls-2" x="155.26" y="119.25" width="0.28" height="0.09"></rect><path class="cls-2" d="M155.79,119.43h0s0,0,0,0h-.12a.09.09,0,0,0,0,.07.1.1,0,0,0,.06,0l.09,0,.08,0s0,0,.06,0a.14.14,0,0,0,0-.07.14.14,0,0,0,0-.06l-.05,0-.07,0-.06,0,0,0s0,0,0,0h.07a0,0,0,0,1,0,0H156a.11.11,0,0,0,0-.09.15.15,0,0,0-.11,0,.16.16,0,0,0-.12,0,.11.11,0,0,0,0,.09.14.14,0,0,0,0,.07l.05,0,.07,0,.05,0h0a.05.05,0,0,1,0,.06Z"></path><polygon class="cls-2" points="156.52 119.51 156.52 119.08 156.4 119.08 156.27 119.38 156.15 119.08 156.02 119.08 156.02 119.51 156.13 119.51 156.13 119.25 156.23 119.51 156.32 119.51 156.41 119.25 156.41 119.51 156.52 119.51"></polygon><path class="cls-2" d="M156.86,119.1s-.05,0-.09,0h-.17v.43h.11v-.15h.06l.09,0s0,0,.06,0a.19.19,0,0,0,0-.07.14.14,0,0,0,0-.07S156.89,119.11,156.86,119.1Zm-.05.16h-.1v-.11h.06l0,0a.05.05,0,0,1,0,0A.08.08,0,0,1,156.81,119.26Z"></path><rect class="cls-2" x="157.13" y="119.08" width="0.11" height="0.43"></rect><path class="cls-2" d="M157.47,119.43h0a.05.05,0,0,1,0,0h-.11a.14.14,0,0,0,0,.07l.06,0,.09,0,.09,0a.12.12,0,0,0,.05,0,.08.08,0,0,0,0-.07.07.07,0,0,0,0-.06l0,0-.07,0-.07,0,0,0s0,0,0,0,0,0,0,0h0s0,0,0,0h.12a.13.13,0,0,0,0-.09.2.2,0,0,0-.24,0,.1.1,0,0,0,0,.09.14.14,0,0,0,0,.07l.05,0,.07,0,0,0h0a0,0,0,0,1,0,0s0,0,0,0Z"></path><polygon class="cls-2" points="157.7 119.08 157.7 119.51 157.95 119.51 157.95 119.43 157.81 119.43 157.81 119.08 157.7 119.08"></polygon><path class="cls-2" d="M158,119.51h.11l0-.08h.16l0,.08h.11l-.16-.43h-.12Zm.22-.32.05.16h-.1Z"></path><polygon class="cls-2" points="158.96 119.51 158.96 119.08 158.84 119.08 158.71 119.38 158.59 119.08 158.46 119.08 158.46 119.51 158.57 119.51 158.57 119.25 158.67 119.51 158.75 119.51 158.85 119.25 158.85 119.51 158.96 119.51"></polygon><polygon class="cls-2" points="159.37 119.51 159.37 119.16 159.49 119.16 159.49 119.08 159.15 119.08 159.15 119.16 159.26 119.16 159.26 119.51 159.37 119.51"></polygon><polygon class="cls-2" points="159.81 119.43 159.65 119.43 159.65 119.33 159.79 119.33 159.79 119.25 159.65 119.25 159.65 119.16 159.81 119.16 159.81 119.08 159.54 119.08 159.54 119.51 159.81 119.51 159.81 119.43"></polygon><path class="cls-2" d="M160,119.35h0l.09.16h.12l-.1-.17a.18.18,0,0,0,.07,0,.11.11,0,0,0,0-.08.25.25,0,0,0,0-.07.09.09,0,0,0-.06,0s-.05,0-.09,0h-.18v.43H160Zm0-.18h.11a0,0,0,0,1,0,.08H160Z"></path><path class="cls-2" d="M160.4,119.36h.07l.09,0,.05,0a.19.19,0,0,0,0-.07.14.14,0,0,0,0-.07.08.08,0,0,0-.05-.05.15.15,0,0,0-.09,0h-.18v.43h.11Zm0-.2h.06l0,0s0,0,0,0a.06.06,0,0,1,0,0h-.11Z"></path><path class="cls-2" d="M160.8,119.43H161l0,.08h.11l-.16-.43h-.12l-.16.43h.11Zm.08-.24.05.16h-.11Z"></path><path class="cls-2" d="M161.44,119.48a.18.18,0,0,0,.08-.07.24.24,0,0,0,0-.12.2.2,0,0,0,0-.11.18.18,0,0,0-.08-.07.28.28,0,0,0-.13,0h-.16v.43h.16A.28.28,0,0,0,161.44,119.48Zm-.18-.06v-.25h.05a.12.12,0,0,1,.09,0,.1.1,0,0,1,0,.09.12.12,0,0,1,0,.1.12.12,0,0,1-.09,0Z"></path><path class="cls-2" d="M161.69,119.5l.1,0,.09,0a.23.23,0,0,0,.07-.07s0-.05,0-.09v-.26h-.1v.26a.14.14,0,0,1,0,.06l-.06,0a.08.08,0,0,1-.06,0,.14.14,0,0,1,0-.06v-.26h-.11v.26a.17.17,0,0,0,0,.1S161.67,119.48,161.69,119.5Z"></path><path class="cls-2" d="M155.93,116.59a1.68,1.68,0,0,0,3.35,0v-.13a1.68,1.68,0,0,1-3.35,0A.57.57,0,0,0,155.93,116.59Z"></path><path class="cls-2" d="M157.6,117.8a1.66,1.66,0,0,0,1.68-1.64V116a1.68,1.68,0,0,1-1.68,1.51,1.65,1.65,0,0,1-1.67-1.51v.13A1.65,1.65,0,0,0,157.6,117.8Z"></path><path class="cls-2" d="M159.28,116.88a1.68,1.68,0,0,1-3.35,0,.56.56,0,0,0,0,.13,1.68,1.68,0,0,0,3.35,0Z"></path><path class="cls-2" d="M157.37,117.39a3,3,0,0,0-.61-1,2.77,2.77,0,0,1,.77.9c0-.17,0-.61,0-.64-.06-.94-.58-1.31-1.59-1.31C155.93,116.67,156.52,117.19,157.37,117.39Z"></path><path class="cls-2" d="M157.68,116.63s0,.47,0,.64a2.92,2.92,0,0,1,.78-.9,3.21,3.21,0,0,0-.62,1c.85-.2,1.45-.72,1.45-2.07h0C158.26,115.32,157.75,115.69,157.68,116.63Z"></path><path class="cls-2" d="M157.6,116.24a1.07,1.07,0,0,1,.38-.73l.08-.07h0l.07-.06.17-.16c.14-.13.1-.24,0-.35h0l-.2-.19-.5-.49-.5.5a.14.14,0,0,0,0,.25c.16.17.48.42.5.5A2,2,0,0,1,158,115l0,0c.06,0,.11,0,.07.07l0,0c-.2.19-.48.42-.49.63,0-.25-.42-.55-.61-.74a.31.31,0,0,1-.08-.1h0c-.12.11-.16.22,0,.35S157.58,115.73,157.6,116.24Zm.21-1.38-.21.21-.21-.21a.09.09,0,0,1,0-.06.09.09,0,0,1,0,0l.21-.21.21.21,0,0S157.83,114.84,157.81,114.86Z"></path><path class="cls-2" d="M157.37,114.2l0,0,.18-.19-.18-.18,0,0s0,0-.05,0l-.19.18.19.19Z"></path><path class="cls-2" d="M157.84,114.2l0,0,.19-.19-.19-.18a.05.05,0,0,0,0,0,.05.05,0,0,0-.05,0l-.19.18.19.19Z"></path><path class="cls-16" d="M135.23,144.19c.45-2.29.89-4.57,1.34-6.86l.81-4.24c.14-.7.27-1.41.4-2.12.07-.33.13-.66.21-1a1.18,1.18,0,0,0-.11-.76,4.16,4.16,0,0,0-1.35-1.72c-.52-.37-1.12-.58-1.66-.9s.23-.72.43-.91a7.15,7.15,0,0,1,1.18-.79,5.62,5.62,0,0,1,2-.68,4.65,4.65,0,0,1,1.44.1L153.72,127l13.81,2.41a1,1,0,0,1,.65.27.83.83,0,0,1,.09.72c-1.17,6.41-2.28,12.83-3.39,19.25s-2.61,12.61-3.47,18.89a.48.48,0,0,1-.09.26.57.57,0,0,1-.5.07l-.73-.12c-2.46-.41-4.92-.81-7.37-1.29-2-.39-4.21-.66-6.21-1.26-2.07-.15-4.23-.68-6.24-1-2.46-.42-4.9-.92-7.35-1.41l-.73-.15a.57.57,0,0,1-.44-.24.45.45,0,0,1,0-.28C133.19,156.9,134,150.45,135.23,144.19Z"></path><path class="cls-11" d="M134.17,144.52c.27-1.39.54-2.79.82-4.19q.62-3.17,1.22-6.35c.21-1.06.41-2.12.61-3.17a5.87,5.87,0,0,0,.23-2.77,2.93,2.93,0,0,0-.58-.84,4.74,4.74,0,0,0-.49-.51c-.1-.09-.3-.14-.25-.35a.35.35,0,0,1,.08-.16,3.48,3.48,0,0,1,1.65-1.16,5.6,5.6,0,0,1,1.2-.26,2,2,0,0,1,.73,0c.28.07.57.11.86.17l1.77.34,3.55.68,7.09,1.37,13.81,2.41a1.1,1.1,0,0,1,.65.27.83.83,0,0,1,.09.72c-1.18,6.41-2.28,12.83-3.39,19.25-1,5.57-2.25,11.08-3.14,16.66l-.21,1.41c-.07.5,0,.77-.42,1-.79.42-1.6.78-2.4,1.13a1.36,1.36,0,0,1-.42.13,1.24,1.24,0,0,1-.62-.23,25.41,25.41,0,0,0-3.94-1.8c-2.33-.91-4.83-1-7.22-1.73-2.07-.15-4.24-.68-6.24-1-2.46-.43-4.9-.93-7.35-1.42l-.73-.14c-.17,0-.37-.09-.44-.24a.42.42,0,0,1,0-.29C132.13,157.24,133,150.78,134.17,144.52Z"></path><path class="cls-16" d="M131,145.89c1.25-6.39,2.5-12.79,3.67-19.2a.87.87,0,0,1,.34-.64,1.08,1.08,0,0,1,.71,0l13.77,2.66,13.82,2.41a1,1,0,0,1,.65.27.86.86,0,0,1,.09.72c-1.18,6.41-2.29,12.83-3.4,19.25S158,164,157.17,170.23a.49.49,0,0,1-.1.26.57.57,0,0,1-.5.07l-.73-.12c-2.46-.41-4.92-.81-7.37-1.29-2-.39-10.44-1.94-12.45-2.29-2.45-.42-4.9-.92-7.34-1.41l-.73-.15c-.17,0-.38-.09-.44-.24a.45.45,0,0,1,0-.28C128.94,158.6,129.77,152.15,131,145.89Z"></path><path class="cls-17" d="M129.53,164.44l25.85,4.77a.77.77,0,0,0,.26,0,.7.7,0,0,0,.32-.13.73.73,0,0,0,.33-.5L162.83,133a.79.79,0,0,0-.63-.9h0l-25.85-4.75a.77.77,0,0,0-.9.62l-6.53,35.56A.77.77,0,0,0,129.53,164.44Zm-.27-.84L135.79,128a.39.39,0,0,1,.18-.27.45.45,0,0,1,.32-.07l25.85,4.75h0a.43.43,0,0,1,.28.18.45.45,0,0,1,.07.32L156,168.53a.47.47,0,0,1-.18.28.42.42,0,0,1-.33.06l-25.85-4.77A.42.42,0,0,1,129.26,163.6Z"></path><path class="cls-17" d="M130.77,162.87l0,.16h.18a.58.58,0,0,0,.31.16l23,4.25a1,1,0,0,0,.24,0,.49.49,0,0,0,.16,0l.15,0,0-.16a.77.77,0,0,0,.26-.42l6-32.67a.72.72,0,0,0-.57-.84h0l-23-4.22a.72.72,0,0,0-.83.58l-6,32.65A.68.68,0,0,0,130.77,162.87Zm.25-.45.55-3a1.71,1.71,0,0,1,1.16,1.12,1.78,1.78,0,0,1-.25,1.5,2.27,2.27,0,0,0-.26.28,1.76,1.76,0,0,1-1.14.42A.36.36,0,0,1,131,162.42ZM153.9,167h-.06v0Zm-15.54-37.39,3.24.59a1.66,1.66,0,0,1-3.24-.59Zm3.6.66,3.25.6a1.67,1.67,0,0,1-2.69.77A1.73,1.73,0,0,1,142,130.3Zm3.61.66,3.24.6a1.66,1.66,0,0,1-2.69.77A1.69,1.69,0,0,1,145.57,131Zm3.6.66,3.24.6a1.66,1.66,0,0,1-1.09,1.11,1.7,1.7,0,0,1-1.59-.34A1.73,1.73,0,0,1,149.17,131.62Zm3.61.67,3.24.59a1.66,1.66,0,0,1-2.69.77A1.68,1.68,0,0,1,152.78,132.29Zm3.6.66,3.24.59a1.66,1.66,0,0,1-3.24-.59Zm4.31,1.38-.61,3.31a1.69,1.69,0,0,1,.61-3.31ZM160,138l-.61,3.32a1.72,1.72,0,0,1-1.11-1A1.7,1.7,0,0,1,160,138Zm-.68,3.68-.61,3.31a1.68,1.68,0,0,1-.85-2.67A1.71,1.71,0,0,1,159.34,141.68Zm-.68,3.68-.6,3.31a1.72,1.72,0,0,1-1.11-1,1.75,1.75,0,0,1,.25-1.64A1.73,1.73,0,0,1,158.66,145.36ZM158,149l-.61,3.32a1.69,1.69,0,0,1-.85-2.68A1.77,1.77,0,0,1,158,149Zm-.68,3.68L156.7,156a1.71,1.71,0,0,1-.85-2.68A1.75,1.75,0,0,1,157.31,152.71Zm-.67,3.68L156,159.7a1.68,1.68,0,0,1-.85-2.67A1.71,1.71,0,0,1,156.64,156.39Zm-.68,3.68-.61,3.31a1.69,1.69,0,0,1,.61-3.31Zm-1.26,3.38a2,2,0,0,0-1.57,1.82l0,0a2,2,0,0,0-1.94-.3,2,2,0,0,0-1,.76,2,2,0,0,0-.7-1.12,2,2,0,0,0-1.95-.3,2,2,0,0,0-.95.76,2,2,0,0,0-2.65-1.43,2.11,2.11,0,0,0-1,.76,2,2,0,0,0-3.6-.66,2,2,0,0,0-3.61-.66,2,2,0,0,0-2.65-1.42l-.07,0a2,2,0,0,0-.81-2.33,2.09,2.09,0,0,0,1.08-.63,2,2,0,0,0-.4-3.05,2,2,0,0,0,.67-3.68,2,2,0,0,0,1.08-.63,2.05,2.05,0,0,0,.42-2,2.1,2.1,0,0,0-.82-1.08,2,2,0,0,0,1.5-2.6,2.07,2.07,0,0,0-.83-1.08A2.12,2.12,0,0,0,136,144a2,2,0,0,0-.41-3,2,2,0,0,0,.67-3.68,2,2,0,0,0,1.09-.63,2.08,2.08,0,0,0,.41-2,2,2,0,0,0-.82-1.08A2,2,0,0,0,138,133a2.09,2.09,0,0,0,.43-1.92,2.39,2.39,0,0,0,.22.23,2,2,0,0,0,1.64.48l.28-.07a2,2,0,0,0,1.06-.79,2.09,2.09,0,0,0,.62,1.05,2.07,2.07,0,0,0,1.64.47,1.53,1.53,0,0,0,.29-.07,2,2,0,0,0,1.06-.79,2,2,0,0,0,2.26,1.52,1.4,1.4,0,0,0,.28-.06,2.07,2.07,0,0,0,1.06-.8,2,2,0,0,0,2.26,1.52,1.27,1.27,0,0,0,.28-.06,2,2,0,0,0,1.06-.8,2.05,2.05,0,0,0,.62,1,2.08,2.08,0,0,0,1.64.48l.29-.07a2.05,2.05,0,0,0,1.06-.8,2,2,0,0,0,.62,1,2,2,0,0,0,1.64.48l.28-.07a.92.92,0,0,0,.23-.09,2,2,0,0,0,.57,2.82,2.12,2.12,0,0,0-1.15.72,2.07,2.07,0,0,0-.3,2,2,2,0,0,0,.78,1,2,2,0,0,0-1.15.73,2.09,2.09,0,0,0-.31,2,2.06,2.06,0,0,0,.78,1,2.12,2.12,0,0,0-1.15.72,2.07,2.07,0,0,0-.3,2,2,2,0,0,0,.78,1,2.09,2.09,0,0,0-1.15.72,2.05,2.05,0,0,0-.31,2,2.09,2.09,0,0,0,.78,1,2,2,0,0,0-1.15.72,2.1,2.1,0,0,0-.31,2,2,2,0,0,0,.79,1,2,2,0,0,0-.68,3.68,2,2,0,0,0-1.46,2.7A2.09,2.09,0,0,0,154.7,163.45ZM131.64,159l.61-3.32a1.69,1.69,0,0,1,.8,2.75A1.71,1.71,0,0,1,131.64,159Zm.67-3.68.61-3.32a1.69,1.69,0,0,1,.81,2.75A1.73,1.73,0,0,1,132.31,155.35Zm.68-3.68.61-3.32a1.71,1.71,0,0,1,.81,2.76A1.75,1.75,0,0,1,133,151.67Zm.68-3.68.61-3.31a1.72,1.72,0,0,1,1.15,1.12,1.69,1.69,0,0,1-1.76,2.19Zm.67-3.67L135,141a1.7,1.7,0,0,1,1.15,1.12,1.69,1.69,0,0,1-1.76,2.2Zm.68-3.68.61-3.32a1.76,1.76,0,0,1,1.15,1.12,1.7,1.7,0,0,1-1.76,2.2Zm.67-3.68.61-3.32a1.71,1.71,0,0,1,.81,2.76A1.75,1.75,0,0,1,135.69,137Zm17.8,30-3.24-.6a1.67,1.67,0,0,1,1-1.11,1.7,1.7,0,0,1,1.61.25,2.65,2.65,0,0,1,.29.29,1.36,1.36,0,0,0,.09.36,2,2,0,0,0,.24.45A1.45,1.45,0,0,1,153.49,167Zm-6.85-1.27a1.66,1.66,0,0,1,2.63-.85,1.69,1.69,0,0,1,.62,1.45ZM143,165a1.66,1.66,0,0,1,1-1.1,1.65,1.65,0,0,1,2.23,1.7Zm-3.61-.67a1.75,1.75,0,0,1,1-1.1,1.71,1.71,0,0,1,1.61.25,1.67,1.67,0,0,1,.63,1.45Zm-3.6-.66a1.66,1.66,0,0,1,2.62-.85,1.68,1.68,0,0,1,.62,1.45Zm-3.6-.67a1.57,1.57,0,0,1,.27-.53l.14-.13.09-.12a1.74,1.74,0,0,1,.5-.31,1.69,1.69,0,0,1,1.61.25,1.71,1.71,0,0,1,.63,1.44Zm-.35-.06-.12,0,.15-.07Zm5.1-33a1.76,1.76,0,0,1,1.15,1.12,1.7,1.7,0,0,1-1.76,2.2Zm1-.39a2.14,2.14,0,0,0,.08.75,2,2,0,0,0-1-.69.35.35,0,0,1,.37-.17Zm22.71,4.4a2.2,2.2,0,0,0-1,.2,1.86,1.86,0,0,0,.27-.57l.48.08A.38.38,0,0,1,160.73,134Zm-6,32.82a.43.43,0,0,1-.14.23,1.78,1.78,0,0,1-.78-.57,1.94,1.94,0,0,0-.33-.8,1.78,1.78,0,0,1,.35-1.28,1.74,1.74,0,0,1,1.46-.64Z"></path><path class="cls-17" d="M144.46,156a7.83,7.83,0,0,1-6.29-9.11h0a7.82,7.82,0,1,1,12.14,7.86,7.88,7.88,0,0,1-3.26,1.3A8.05,8.05,0,0,1,144.46,156Zm-2.84-13.85a7.49,7.49,0,0,0-3.11,4.81h0a7.48,7.48,0,1,0,8.71-6,7.45,7.45,0,0,0-5.6,1.2Z"></path><path class="cls-18" d="M165.77,131.57q-1.08,6.84-2.56,13.6"></path><path class="cls-18" d="M161.27,150.62q-.65,5.17-1.66,10.29"></path><path class="cls-18" d="M161.1,158.27q-1.12,4.77-1.92,9.6"></path><path class="cls-18" d="M164.61,130.35q-7.79-1.31-15.5-2.95"></path><path class="cls-18" d="M146.19,127.2q-2.69-.7-5.4-1.26"></path><path class="cls-4" d="M142.66,156.71a14.86,14.86,0,0,0,3.26-.42c1.76-.43,3.3-1.43,5.07-1.79.12,1.14.31,2.27.45,3.41s.28,2.16.41,3.25a9.82,9.82,0,0,1,.19,3.1,19.72,19.72,0,0,0-3.34-.45,9.85,9.85,0,0,0-1.88.32,24.58,24.58,0,0,0-5,1.87c-.14.07-.33.13-.44,0a.35.35,0,0,1-.08-.22c-.21-1.58-.38-3.17-.51-4.75-.06-.85-.12-1.7-.16-2.56,0-.6-.29-1.39-.27-1.93A14.68,14.68,0,0,0,142.66,156.71Z"></path><path class="cls-4" d="M162.41,155.18a3.45,3.45,0,0,0-1.1.79l2.05-.49a.94.94,0,0,1,.79.05.71.71,0,0,1,.23.38c.23.87-.47,1.69-1.11,2.31.47-.12.93.38.95.87a2.14,2.14,0,0,1-.56,1.33,4,4,0,0,1-1.9,1.49.76.76,0,0,1,.44.92,1.89,1.89,0,0,1-.67.89c-1.48,1.25-3.93.79-5.72.62-.76-.06-1.42,0-2.16,0a22,22,0,0,1-2.68-.31c-.85-.12-1.68,0-2.2-.83a8.25,8.25,0,0,1-1.51-4.79,4.64,4.64,0,0,1,.43-1.71,3.44,3.44,0,0,1,1.07-1.26,17.66,17.66,0,0,1,3.2-2.72c1.5-.85,3.23-1.05,4.81-1.7.65-.27,2.48-.81,2,.6-.18.57-.68.84-1.13,1.16a17.87,17.87,0,0,0-1.49,1.32,4.48,4.48,0,0,0,2.85.06,25.23,25.23,0,0,0,3.66-1.78c.35-.17.79-.31,1.09-.06s.25.74.1,1.11a3.49,3.49,0,0,1-1.1,1.47Z"></path><path class="cls-5" d="M122,170.17c3.93.45,25-3.71,24.55-4.92-.37-1.06-.8-9.81-1-9.8-6.3.5-18.7,1.58-25,.64C119.35,155.9,116.83,169.57,122,170.17Z"></path><path class="cls-19" d="M115.47,168.84l.76.26a2.91,2.91,0,0,0,.73.2,8.64,8.64,0,0,0,1.52.18,9.23,9.23,0,0,0,1.49.22c.51,0,1,.1,1.53.09a40,40,0,0,0,6.16-.42c2.06-.28,4.1-.66,6.14-1.07l3.06-.65c1.06-.05,2.11-.16,3.18-.14l-3,1.12-3.07.65c-2.05.42-4.12.79-6.2,1.08a40.48,40.48,0,0,1-6.33.43c-.53,0-1.06,0-1.6-.09a11,11,0,0,1-1.6-.24A7.54,7.54,0,0,1,115.47,168.84Z"></path></svg>