<?xml version="1.0" encoding="UTF-8"?>
<!-- Generator: Adobe Illustrator 24.2.2, SVG Export Plug-In . SVG Version: 6.00 Build 0)  -->
<svg xmlns="http://www.w3.org/2000/svg" xmlns:xlink="http://www.w3.org/1999/xlink" version="1.1" id="Layer_1" x="0px" y="0px" viewBox="0 0 1080 1080" style="enable-background:new 0 0 1080 1080;" xml:space="preserve">
<style type="text/css">
	.st0{fill:#F4F7DE;}
	.st1{fill:#F7A48D;}
	.st2{fill:#FBC7AC;}
	.st3{fill:#101010;}
	.st4{fill:#F7F8F9;}
	.st5{fill:#FFFFFF;stroke:#000000;stroke-width:1;stroke-miterlimit:10.0001;}
	.st6{fill:#020202;}
	.st7{fill:#94AC77;}
	.st8{fill:#94AC77;stroke:#94AC77;stroke-miterlimit:10;}
	.st9{fill:#FFFFFF;stroke:#2B2B2B;stroke-width:0.75;stroke-miterlimit:10;}
	.st10{fill:#303030;}
	.st11{fill:#DADDBF;}
	.st12{fill:none;stroke:#9CBB7D;stroke-miterlimit:10;}
	.st13{fill:none;stroke:#83A96B;stroke-miterlimit:10;}
	.st14{fill:none;stroke:#F09869;stroke-width:0.75;stroke-linecap:round;stroke-linejoin:round;stroke-miterlimit:10;}
	.st15{fill:#FAFAE5;}
	.st16{fill:#FCD6BB;}
	.st17{fill:#30302F;}
	.st18{fill:#DBDADA;}
	.st19{fill:#5C8D7B;}
	.st20{fill:#FFFFFF;stroke:#1B1C1C;stroke-width:1;stroke-miterlimit:9.9997;}
	.st21{fill-rule:evenodd;clip-rule:evenodd;fill:#EA6C2D;}
	.st22{fill-rule:evenodd;clip-rule:evenodd;fill:#538949;}
	.st23{fill-rule:evenodd;clip-rule:evenodd;fill:#131313;}
	.st24{fill-rule:evenodd;clip-rule:evenodd;fill:#EC713D;}
	.st25{opacity:0.45;fill-rule:evenodd;clip-rule:evenodd;fill:#B3B3B3;enable-background:new    ;}
	.st26{fill-rule:evenodd;clip-rule:evenodd;fill:#68CB5C;}
	.st27{fill-rule:evenodd;clip-rule:evenodd;fill:#C63D00;}
	.st28{fill-rule:evenodd;clip-rule:evenodd;fill:#FD7818;}
	.st29{fill-rule:evenodd;clip-rule:evenodd;fill:#9E236F;}
	.st30{fill:#F7A692;}
	.st31{enable-background:new    ;}
	.st32{fill:#FFFFFF;}
</style>
<g id="Maskot">
	<g>
		<path class="st0" d="M865,558.5L840.3,528c-18.9,7.1-36.2,19.1-33-20.2l-3.4-3c-13.9-12-32.2-17.8-50.5-16.1l0,0L678,669.1    c0,0,72.5,21.4,152.1-26.7C831,641.9,865,558.5,865,558.5z"></path>
		<path class="st0" d="M780.3,636l22.1,14.9l30.5-59.5l28.3-37.6c0,0,13,7.7,0.9,46.3c-8.5,27-18.5,56.9-18.5,56.9l-6.7,18.3    c0,0-4.9,17.8-10.7,23.3s-25.1,9.7-34.5,5s-29.4-40.9-29.4-40.9C775.6,654.9,783.3,643.5,780.3,636z"></path>
		<path class="st1" d="M774.6,632.2l-1.2,0.6l-11.6,9.3c0,0-2.3,7.7-2.1,8.2c0.1,0.5,5.3,11.3,5.3,11.3    c15.9-9.4,15.4-21.5,15.4-21.5S775.2,633.1,774.6,632.2z"></path>
		<g>
			<path class="st2" d="M847.1,509.7c0,0-10.6,14.1-9.7,23.4c-6.2,2.5-23.4,5.1-23.4,5.1s-10.3-17.5-10-19.6     c6.4-6.4,10-14.2,11.8-22.9L847.1,509.7z"></path>
			<path class="st1" d="M838.6,525.1c2.7-7.6,8.6-15,8.6-15l-30-13.5C814.3,512.2,825.9,519.8,838.6,525.1z"></path>
			<path class="st1" d="M796.7,445.3c-6.8-3-14.7,0.1-17.7,6.9l0,0c-3,6.8,0.1,14.7,6.9,17.7l6.6,2.9l10.9-24.6L796.7,445.3z"></path>
			<path class="st1" d="M908.8,481.7c7.8,3.4,11.3,12.5,7.9,20.3l0,0c-3.4,7.8-12.5,11.3-20.3,7.9l-7.6-3.3l12.4-28.1L908.8,481.7z"></path>
			
				<ellipse transform="matrix(0.7071 -0.7071 0.7071 0.7071 -74.3351 736.6604)" class="st2" cx="852.1" cy="458.1" rx="61.5" ry="61.5"></ellipse>
			<g>
				<g>
					<path class="st3" d="M817.6,434.6c-0.4-0.2-0.8-0.5-1-0.8c-0.8-1.1-0.6-2.7,0.5-3.6c7.8-5.8,18.9-4.1,24.7,3.7       c0.8,1.1,0.6,2.7-0.5,3.6c-1.1,0.8-2.7,0.6-3.6-0.5c-4.1-5.6-12-6.8-17.6-2.6C819.3,434.9,818.4,434.9,817.6,434.6z"></path>
				</g>
				<g>
					<path class="st3" d="M892.7,467.7c-0.8-0.4-1.4-1.1-1.5-2.1c-0.7-6.9-6.9-11.9-13.8-11.2c-1.4,0.1-2.7-0.9-2.8-2.3       s0.9-2.7,2.3-2.8c9.7-1,18.4,6,19.4,15.7c0.1,1.4-0.9,2.7-2.3,2.8C893.6,467.9,893.1,467.9,892.7,467.7z"></path>
				</g>
			</g>
			<path class="st4" d="M850.9,493.4c-4.7,1.5-9.9,1-14.2-1.2s-7.7-6.3-9.2-10.9c-0.3,3.8-1.1,7,0.1,10.6c1.1,3.6,3.5,6.9,6.9,8.6     c2.7,1.3,5.9,1.5,8.7,0.5C845.9,499.9,849.7,496.1,850.9,493.4z"></path>
			<path class="st3" d="M899.9,496.8c0.8-8.3,8.8-22.1,9.2-28.9c-5.8-5.7-6.8-13.1-5.4-21.2c0.3-1.7,0.7-3.3,0.8-5     c0-1.7-0.3-4.2-1.5-5.4c-11.5,3.9-25,1-34-7.2c-5.5-5.1-9.3-11.8-14.7-17s-13.8-8.6-20.4-5.1c-0.9,5.5-7,9.5-12.2,11.4     s-10.9,2.8-15.5,5.9c-7,4.8-7.5,16.5-14.5,22.4c-1.3-9.1,0.9-18.5,6.3-25.9c3.2-4.3,7.3-7.8,10.2-12.2     c4.4-6.6,5.8-14.9,10.2-21.5c4.3-6.6,11.5-11.3,19.3-12.6c7.8-1.3,16.1,0.9,22.3,5.8c10.3-0.9,20.3-0.5,30.5,1s20.3,5.8,27,13.7     s9,19.8,4.1,28.8c4.6,4,6.4,10.5,5.9,16.6c-0.4,6.1-2.9,11.9-5.6,17.4c-2.8,5.5-5.9,10.8-7.9,16.6c-1.5,4.2-2.3,8.6-4.1,12.6     C908,491.1,904.1,495.5,899.9,496.8z"></path>
			<g>
				<path class="st3" d="M821.9,459.8c-2.8-1.2-4-4.5-2.8-7.2c1.2-2.8,4.5-4,7.2-2.8c2.8,1.2,4,4.5,2.8,7.2      C827.9,459.8,824.7,461.1,821.9,459.8z"></path>
				<path class="st3" d="M871.8,481.8c-2.8-1.2-4-4.5-2.8-7.2c1.2-2.8,4.5-4,7.2-2.8c2.8,1.2,4,4.5,2.8,7.2      C877.8,481.8,874.6,483,871.8,481.8z"></path>
			</g>
		</g>
		<g>
			
				<rect x="768.8" y="527.5" transform="matrix(0.5653 -0.8249 0.8249 0.5653 -112.5602 874.4658)" class="st5" width="9.2" height="33.1"></rect>
			<g>
				<path class="st6" d="M769.8,538.2l-3,4.4l-0.9-0.6l1.3-1.9l-1.9-1.3l-1.3,1.9l-0.9-0.6l3-4.4l0.9,0.6l-1.2,1.8l1.9,1.3l1.2-1.8      L769.8,538.2z"></path>
				<path class="st6" d="M769.5,540.5c0.3-0.2,0.7-0.3,1-0.2c0.3,0,0.7,0.1,1,0.3s0.5,0.4,0.6,0.6c0.1,0.2,0.2,0.5,0.2,0.7l0.3-0.5      l0.9,0.6l-2.4,3.5l-0.9-0.6l0.4-0.5c-0.2,0.1-0.5,0.1-0.7,0.1c-0.3,0-0.5-0.1-0.8-0.3s-0.5-0.5-0.6-0.8s-0.2-0.7-0.1-1      c0-0.4,0.2-0.7,0.4-1.1C768.9,540.9,769.1,540.7,769.5,540.5z M771.6,542.5c0-0.2,0-0.4-0.1-0.6c-0.1-0.2-0.2-0.3-0.4-0.4      c-0.2-0.1-0.3-0.2-0.5-0.2s-0.4,0-0.6,0.1c-0.2,0.1-0.4,0.2-0.5,0.5c-0.1,0.2-0.2,0.4-0.3,0.6c0,0.2,0,0.4,0.1,0.6      c0.1,0.2,0.2,0.3,0.4,0.4c0.2,0.1,0.3,0.2,0.5,0.2s0.4,0,0.6-0.1c0.2-0.1,0.4-0.3,0.5-0.5C771.5,543,771.6,542.8,771.6,542.5z"></path>
				<path class="st6" d="M777,545c0.1,0.4,0,0.9-0.4,1.4l-1.4,2.1l-0.9-0.6l1.3-1.9c0.2-0.3,0.3-0.5,0.2-0.8c0-0.2-0.2-0.5-0.4-0.6      c-0.2-0.2-0.5-0.2-0.7-0.2s-0.5,0.2-0.7,0.5l-1.3,1.9l-0.9-0.6l2.4-3.5l0.9,0.6l-0.3,0.4c0.2-0.1,0.5-0.1,0.7,0      c0.2,0,0.5,0.1,0.7,0.3C776.7,544.2,776.9,544.6,777,545z"></path>
				<path class="st6" d="M779.4,546.1l-2.4,3.5l-0.9-0.6l2.4-3.5L779.4,546.1z M778.9,545c0-0.2,0-0.3,0.1-0.5      c0.1-0.1,0.2-0.2,0.4-0.3c0.2,0,0.3,0,0.5,0.1s0.3,0.2,0.3,0.4s0,0.3-0.1,0.5c-0.1,0.1-0.2,0.2-0.4,0.3c-0.2,0-0.3,0-0.5-0.1      C779.1,545.3,779,545.1,778.9,545z"></path>
				<path class="st6" d="M781.3,548.5l-0.6-0.4l-1.9,2.8l-0.9-0.6l1.9-2.8l-0.4-0.3l0.5-0.7l0.4,0.3l0.1-0.2c0.3-0.4,0.6-0.7,1-0.7      s0.8,0.1,1.3,0.5l-0.5,0.7c-0.2-0.2-0.4-0.2-0.5-0.2s-0.3,0.1-0.4,0.3l-0.1,0.1l0.6,0.4L781.3,548.5z"></path>
			</g>
		</g>
		<g>
			<path class="st7" d="M813.1,534.5c-3.3,6.6-6.8,13.2-10.3,19.8c-3.5,6.5-7.1,13-10.8,19.5c-3.7,6.4-7.4,12.9-11.2,19.3     c-3.8,6.4-7.7,12.7-11.6,19c3.3-6.6,6.7-13.2,10.3-19.8c3.5-6.5,7.1-13,10.8-19.5c3.7-6.4,7.4-12.9,11.2-19.3     C805.2,547.1,809.1,540.8,813.1,534.5z"></path>
		</g>
		<path class="st0" d="M842,527.8l5.7,6.2c1.8,1.9,1.6,4.9-0.4,6.6c-4.4,3.8-12.7,9.8-23.6,13c-2.3,0.7-4.7-0.6-5.5-2.9    c-1.5-4.4-2.6-7.9-3.3-10.5c-0.8-2.7,1-5.4,3.8-5.7c5-0.5,12.4-2.2,16.8-6.9C837.3,525.8,840.3,525.9,842,527.8z"></path>
		<path class="st0" d="M808.8,506.1l-8.8-5.4c-2.6-1.6-5.9-0.2-6.6,2.7c-1.9,7.6-3.9,21.2,2,31.6c0.9,1.6,2.7,2.5,4.5,2.2    c3.6-0.5,6.2-0.9,8.1-1.3c2.7-0.5,4.3-3.3,3.4-6c-1.6-4.5-3.1-11.6-0.8-18.4C811.5,509.5,810.7,507.2,808.8,506.1z"></path>
		<g>
			<g>
				<g>
					<path class="st7" d="M858.3,571.3c0,0-0.1,0.2-0.4,0.5c-0.3,0.3-0.7,0.8-1.3,1.4c-1.1,1.2-2.8,3-4.8,5.2       c-4.2,4.5-10.2,10.8-17.3,18.4v-0.1c-5,9.2-10.9,20-17.1,31.5c-4.5,8.3-8.9,16.2-12.8,23.5l-0.1-0.5c5,3.7,9.2,7.9,12.3,12.2       s5.2,8.6,6.5,12.4c1.3,3.8,1.9,6.9,2.2,9c0.2,1.1,0.2,1.9,0.3,2.5s0.1,0.9,0.1,0.9s-0.1-0.3-0.2-0.8c-0.1-0.6-0.2-1.4-0.4-2.4       c-0.4-2.1-1-5.2-2.4-8.9c-1.3-3.7-3.4-8-6.5-12.2c-3.1-4.3-7.2-8.4-12.2-12l-0.2-0.2l0.2-0.3c3.9-7.2,8.3-15.2,12.8-23.5       c6.3-11.5,12.2-22.3,17.2-31.5l0,0l0,0c7.2-7.5,13.2-13.8,17.4-18.2c2.1-2.2,3.7-3.9,4.9-5.1c0.5-0.6,1-1,1.3-1.3       C858.1,571.4,858.2,571.3,858.3,571.3z"></path>
					<path class="st7" d="M858.3,571.3c-1.9,2.2-3.9,4.3-5.8,6.5l-5.9,6.4l-11.7,12.9l-0.8-0.6v-0.1l0.8,0.5l-30,55l-0.7,1.2       l-0.3-1.4l-0.1-0.5l-0.2-1.3l1,0.8c5.9,4.4,11.2,9.8,14.9,16.2s6,13.6,6.6,21.1v0.1c0,0,0,0,0,0.1c-0.6,0.8-1.2-0.2-1,0       c0-0.1,0-0.1,0-0.2v-0.2l-0.1-0.3l-0.1-0.7l-0.2-1.4c-0.1-0.9-0.3-1.8-0.5-2.7c-0.4-1.8-0.9-3.5-1.4-5.3       c-1.1-3.4-2.6-6.8-4.5-9.9c-3.7-6.2-8.9-11.5-14.8-15.8l-0.4-0.3l0.2-0.4l15.1-27.7l15.1-27.6v-0.1l0,0l12.2-12.4l6.1-6.2       C854.1,575.4,856.1,573.3,858.3,571.3z M858.3,571.3c-2.1,2-4,4.2-6,6.3l-5.9,6.4l-11.9,12.8l0.1-0.1L804.4,652l-0.1-0.6       c6,4.3,11.3,9.7,15.1,16.1c1.9,3.2,3.4,6.6,4.6,10.1c0.6,1.8,1.1,3.5,1.4,5.4c0.2,0.9,0.4,1.8,0.5,2.7l0.2,1.4l0.1,0.7l0.1,0.3       v0.2c0,0,0,0.1,0,0c0.3,0.3-0.3-0.7-0.9,0c0,0.1,0,0.1,0,0.1l0,0c-0.5-7.2-2.8-14.3-6.4-20.6c-3.7-6.3-8.8-11.6-14.7-15.9       l0.8-0.5l0.1,0.5l-0.9-0.1l30-55l0.8,0.5v0.1l-0.8-0.6l12.1-12.5l6-6.3C854.3,575.5,856.3,573.5,858.3,571.3z"></path>
				</g>
			</g>
		</g>
		<g>
			<path class="st8" d="M779.7,690.5c0,0-0.1-0.2-0.4-0.5c-0.2-0.4-0.6-0.9-1-1.5c-0.9-1.4-2.1-3.3-3.6-5.7     c-3.1-4.9-7.5-11.9-12.5-19.9l-0.2-0.2l0.3-0.1c4.7-2.5,9.6-5.9,13.4-10.6c1.9-2.4,3.4-5,4.3-7.8c0.5-1.4,0.7-2.8,0.8-4.2     c0-0.7,0-1.4-0.1-2c-0.1-0.3-0.1-0.7-0.2-1c-0.1-0.3-0.3-0.6-0.4-0.7l0.3-0.5c7.9,5.3,14.6,9.8,19.4,13c2.3,1.6,4.2,2.9,5.5,3.8     c0.6,0.4,1.1,0.8,1.5,1c0.3,0.2,0.5,0.4,0.5,0.4s-0.2-0.1-0.5-0.3c-0.4-0.2-0.9-0.6-1.5-1c-1.4-0.9-3.3-2.1-5.6-3.6     c-4.8-3.2-11.6-7.6-19.5-12.8l0.3-0.5c0.4,0.3,0.5,0.7,0.6,1s0.2,0.7,0.2,1.1c0.1,0.7,0.1,1.4,0.1,2.2c-0.1,1.4-0.4,2.9-0.8,4.3     c-0.9,2.8-2.5,5.5-4.4,8c-3.9,4.8-8.9,8.2-13.6,10.7l0.1-0.4c5,8.1,9.3,15.1,12.4,20.1c1.5,2.4,2.7,4.4,3.5,5.8     c0.4,0.6,0.7,1.2,0.9,1.6C779.6,690.3,779.7,690.5,779.7,690.5z"></path>
		</g>
		<g>
			<path class="st9" d="M815.9,606.1l-14-7.1c-2-1-2.8-3.4-1.8-5.4l8.2-16.1c1-2,3.4-2.8,5.4-1.8l14,7.1c2,1,2.8,3.4,1.8,5.4     l-8.2,16.1C820.3,606.4,817.9,607.2,815.9,606.1z"></path>
			<g>
				<path class="st10" d="M805.5,591.8L805.5,591.8l-0.2,0.2h-0.1c-0.1,0-0.1,0-0.1,0l-0.1-0.1l-0.1-0.1v-0.1c0-0.1,0-0.1,0-0.1      l0.5-1l-0.5-0.2l-0.2,0.3l0.1,0.1l-0.3,0.6c0,0.1-0.1,0.2-0.1,0.3s0,0.2,0,0.3s0.1,0.2,0.1,0.3c0.1,0.1,0.1,0.1,0.2,0.2      s0.2,0.1,0.3,0.1s0.2,0,0.3,0s0.2-0.1,0.3-0.1c0.1-0.1,0.1-0.1,0.2-0.2l0.5-1l-0.3-0.2L805.5,591.8z"></path>
				<polygon class="st10" points="807,592.4 806.9,591.3 806.6,591.2 805.8,592.8 806.1,592.9 806.6,592 806.7,592.8 806.9,593       807.7,592.5 807.2,593.5 807.5,593.7 808.3,592 808,591.9     "></polygon>
				<polygon class="st10" points="809.7,593.6 809.2,594.5 809.5,594.7 810.4,593.1 810,592.9 809,593.5 808.9,592.3 808.6,592.2       807.8,593.8 808.1,594 808.6,593 808.7,593.9 808.9,594     "></polygon>
				<path class="st10" d="M810.9,595.3c0.1,0,0.2,0,0.3,0s0.2-0.1,0.3-0.1c0.1-0.1,0.1-0.1,0.2-0.2l0.5-1l-0.3-0.2l-0.5,1l-0.1,0.1      l-0.1,0.1h-0.1c-0.1,0-0.1,0-0.1,0l-0.1-0.1l-0.1-0.1v-0.1c0-0.1,0-0.1,0-0.1l0.5-1l-0.5-0.2l-0.2,0.3l0.1,0.1l-0.3,0.6      c0,0.1-0.1,0.2-0.1,0.3s0,0.2,0,0.3s0.1,0.2,0.1,0.3c0.1,0.1,0.1,0.1,0.2,0.2C810.7,595.3,810.8,595.3,810.9,595.3z"></path>
				<polygon class="st10" points="812.6,594.2 812.3,594 812.1,594.5 812.3,594.6     "></polygon>
				<polygon class="st10" points="813.1,594.5 812.8,594.3 812,595.9 813,596.4 813.2,596.1 812.5,595.8     "></polygon>
				<path class="st10" d="M815.1,597.5l0.3,0.2l0.2-0.3l-0.2-0.1l0,0c0.1,0,0.1-0.1,0.2-0.2c0.1-0.1,0.1-0.1,0.2-0.2      c0.1-0.1,0.1-0.2,0.1-0.4c0-0.1,0-0.2,0-0.4c0-0.1-0.1-0.2-0.2-0.3c-0.1-0.1-0.2-0.2-0.3-0.2c-0.1-0.1-0.2-0.1-0.4-0.1      c-0.1,0-0.2,0-0.4,0c-0.1,0-0.2,0.1-0.3,0.2c-0.1,0.1-0.2,0.2-0.2,0.3c-0.1,0.1-0.1,0.2-0.1,0.4c0,0.1,0,0.2,0,0.4      c0,0.1,0.1,0.2,0.2,0.3c0.1,0.1,0.2,0.2,0.3,0.2s0.2,0.1,0.3,0.1S815,597.4,815.1,597.5L815.1,597.5z M815.2,596.5l-0.4,0.1      l0.1,0.3c-0.1,0-0.2,0-0.2-0.1c-0.1,0-0.1-0.1-0.2-0.1c0-0.1-0.1-0.1-0.1-0.2c0-0.1,0-0.1,0-0.2c0-0.1,0-0.1,0.1-0.2      c0-0.1,0.1-0.1,0.1-0.2c0.1,0,0.1-0.1,0.2-0.1c0.1,0,0.1,0,0.2,0c0.1,0,0.1,0,0.2,0.1c0.1,0,0.1,0.1,0.2,0.1      c0,0.1,0.1,0.1,0.1,0.2c0,0.1,0,0.1,0,0.2c0,0.1,0,0.1-0.1,0.2c0,0.1-0.1,0.1-0.2,0.2L815.2,596.5z"></path>
				<path class="st10" d="M817,597.7L817,597.7l-0.2,0.2h-0.1c-0.1,0-0.1,0-0.1,0l-0.1-0.1l-0.1-0.1v-0.1c0-0.1,0-0.1,0-0.1l0.5-1      l-0.5-0.2l-0.2,0.3l0.1,0.1l-0.3,0.6c0,0.1-0.1,0.2-0.1,0.3s0,0.2,0,0.3s0.1,0.2,0.1,0.3c0.1,0.1,0.1,0.1,0.2,0.2      c0.1,0,0.2,0.1,0.3,0.1s0.2,0,0.3,0s0.2-0.1,0.3-0.1c0.1-0.1,0.1-0.1,0.2-0.2l0.5-1l-0.3-0.2L817,597.7z"></path>
				<path class="st10" d="M819.2,597.8c0-0.1-0.1-0.2-0.1-0.2c-0.1-0.1-0.1-0.1-0.2-0.2l-0.6-0.3l-0.4,0.9l-0.1-0.1l-0.2,0.3      l0.1,0.1l-0.2,0.4l0.3,0.2l0.2-0.4l0.2,0.1v0.5l0.4,0.2v-0.6c0.1,0,0.1,0,0.2,0c0.1,0,0.1,0,0.2-0.1c0.1,0,0.1-0.1,0.1-0.1      s0.1-0.1,0.1-0.2c0-0.1,0.1-0.2,0.1-0.3C819.2,597.9,819.2,597.9,819.2,597.8z M818.7,598.2      C818.7,598.2,818.6,598.2,818.7,598.2l-0.2,0.1h-0.1l-0.3-0.1l0.3-0.5l0.3,0.1c0,0,0.1,0,0.1,0.1c0,0,0,0.1,0.1,0.1v0.1      C818.8,598,818.8,598.1,818.7,598.2C818.8,598.2,818.8,598.2,818.7,598.2z"></path>
				<path class="st10" d="M821,599.1c0-0.1,0-0.2,0-0.4c0-0.1-0.1-0.2-0.2-0.3c-0.1-0.1-0.2-0.2-0.3-0.2c-0.1-0.1-0.2-0.1-0.4-0.1      c-0.1,0-0.2,0-0.4,0c-0.1,0-0.2,0.1-0.3,0.2c-0.1,0.1-0.2,0.2-0.2,0.3c-0.1,0.1-0.1,0.2-0.1,0.4c0,0.1,0,0.2,0,0.4      c0,0.1,0.1,0.2,0.2,0.3c0.1,0.1,0.2,0.2,0.3,0.2c0.1,0.1,0.2,0.1,0.4,0.1c0.1,0,0.2,0,0.4,0c0.1,0,0.2-0.1,0.3-0.2      c0.1-0.1,0.2-0.2,0.2-0.3C821,599.3,821,599.2,821,599.1z M820.4,599.4c-0.1,0-0.1,0.1-0.2,0.1c-0.1,0-0.1,0-0.2,0      c-0.1,0-0.1,0-0.2-0.1c-0.1,0-0.1-0.1-0.2-0.1c0-0.1-0.1-0.1-0.1-0.2c0-0.1,0-0.1,0-0.2c0-0.1,0-0.1,0.1-0.2      c0-0.1,0.1-0.1,0.1-0.2c0.1,0,0.1-0.1,0.2-0.1c0.1,0,0.1,0,0.2,0c0.1,0,0.1,0,0.2,0.1c0.1,0,0.1,0.1,0.2,0.1      c0,0.1,0.1,0.1,0.1,0.2c0,0.1,0,0.1,0,0.2c0,0.1,0,0.1-0.1,0.2C820.5,599.3,820.5,599.4,820.4,599.4z"></path>
				<path class="st10" d="M809.4,595.8c0-0.1-0.1-0.2-0.2-0.3c-0.1-0.1-0.2-0.2-0.3-0.2l-0.5-0.3l-0.8,1.6l0.5,0.3      c0.1,0.1,0.2,0.1,0.4,0.1s0.2,0,0.3,0s0.2-0.1,0.3-0.2s0.2-0.2,0.2-0.3c0.1-0.1,0.1-0.2,0.1-0.3      C809.4,596,809.4,595.9,809.4,595.8z M808.8,596.5c-0.1,0-0.1,0.1-0.2,0.1c-0.1,0-0.1,0-0.2,0c-0.1,0-0.1,0-0.2-0.1l-0.2-0.1      l0.5-0.9l0.2,0.1c0.1,0,0.1,0.1,0.2,0.1c0,0.1,0.1,0.1,0.1,0.2c0,0.1,0,0.1,0,0.2c0,0.1,0,0.1-0.1,0.2      C808.9,596.4,808.9,596.4,808.8,596.5z"></path>
				<polygon class="st10" points="809.1,597.4 810.2,597.9 810.3,597.6 809.7,597.3 809.8,597 810.3,597.2 810.5,596.9 810,596.6       810.1,596.3 810.8,596.7 811,596.3 810,595.8     "></polygon>
				<path class="st10" d="M812.3,597.2c0-0.1-0.1-0.2-0.1-0.2c-0.1-0.1-0.1-0.1-0.2-0.2l-0.6-0.3l-0.4,0.9l-0.1-0.1l-0.2,0.3      l0.1,0.1l-0.2,0.4l0.3,0.2l0.2-0.4l0.3,0.1c0.1,0,0.2,0.1,0.3,0.1s0.2,0,0.3,0s0.2-0.1,0.2-0.1c0.1-0.1,0.1-0.1,0.2-0.2      s0.1-0.2,0.1-0.3C812.3,597.4,812.3,597.3,812.3,597.2z M811.8,597.6C811.8,597.6,811.7,597.6,811.8,597.6l-0.2,0.1h-0.1      l-0.3-0.1l0.3-0.5l0.3,0.1c0,0,0.1,0,0.1,0.1c0,0,0,0.1,0.1,0.1v0.1C811.9,597.5,811.9,597.5,811.8,597.6      C811.9,597.6,811.8,597.6,811.8,597.6z"></path>
				<path class="st10" d="M814,598.2c0-0.1-0.1-0.2-0.2-0.3c-0.1-0.1-0.2-0.2-0.3-0.2c-0.1-0.1-0.2-0.1-0.4-0.1c-0.1,0-0.2,0-0.4,0      c-0.1,0-0.2,0.1-0.3,0.2c-0.1,0.1-0.2,0.2-0.2,0.3c-0.1,0.1-0.1,0.2-0.1,0.4c0,0.1,0,0.2,0,0.4c0,0.1,0.1,0.2,0.2,0.3      c0.1,0.1,0.2,0.2,0.3,0.2c0.1,0.1,0.2,0.1,0.4,0.1c0.1,0,0.2,0,0.4,0c0.1,0,0.2-0.1,0.3-0.2c0.1-0.1,0.2-0.2,0.2-0.3      s0.1-0.2,0.1-0.4C814.1,598.4,814.1,598.3,814,598.2z M813.5,598.9c-0.1,0-0.1,0.1-0.2,0.1c-0.1,0-0.1,0-0.2,0      c-0.1,0-0.1,0-0.2-0.1c-0.1,0-0.1-0.1-0.2-0.1c0-0.1-0.1-0.1-0.1-0.2c0-0.1,0-0.1,0-0.2c0-0.1,0-0.1,0.1-0.2      c0-0.1,0.1-0.1,0.1-0.2c0.1,0,0.1-0.1,0.2-0.1c0.1,0,0.1,0,0.2,0c0.1,0,0.1,0,0.2,0.1c0.1,0,0.1,0.1,0.2,0.1      c0,0.1,0.1,0.1,0.1,0.2c0,0.1,0,0.1,0,0.2c0,0.1,0,0.1-0.1,0.2C813.6,598.8,813.6,598.8,813.5,598.9z"></path>
				<polygon class="st10" points="815.6,598.7 814.7,599 815.1,598.4 814.6,598.2 814.4,598.5 814.5,598.6 813.9,599.8 814.2,600       814.5,599.5 814.7,599.5 814.8,600.3 815.3,600.5 815,599.3 816.1,598.9     "></polygon>
				<polygon class="st10" points="805.8,590 806,590.1 806.3,589.4 806.5,589.5 806.6,589.4 806,589.1 805.9,589.2 806.1,589.3           "></polygon>
				<polygon class="st10" points="806.9,590 807.4,589.8 807.1,589.7 806.7,589.9 806.9,589.5 806.7,589.4 806.3,590.2 806.5,590.3       806.7,590 806.8,590.4 807,590.6     "></polygon>
				
					<rect x="807.4" y="590.1" transform="matrix(0.4528 -0.8916 0.8916 0.4528 -84.4967 1043.0598)" class="st10" width="0.2" height="0.6"></rect>
				<path class="st10" d="M808.1,590.9C808.1,590.9,808,590.9,808.1,590.9C808,590.8,808,590.8,808.1,590.9l-0.3-0.2      c0,0.1,0,0.1,0,0.2c0,0.1,0,0.1,0.1,0.1l0.1,0.1c0.1,0,0.1,0,0.2,0c0.1,0,0.1,0,0.1,0l0.1-0.1v-0.1v-0.1l-0.1-0.1l-0.1-0.1v-0.1      l0,0c0,0,0,0,0.1,0c0,0,0,0,0.1,0.1c0,0,0,0,0,0.1l0.2,0.1c0-0.1,0-0.1,0-0.2c0-0.1-0.1-0.1-0.2-0.2c-0.1,0-0.2-0.1-0.2,0      s-0.1,0.1-0.2,0.1v0.1v0.1l0.1,0.1L808.1,590.9C808.2,590.9,808.2,590.9,808.1,590.9c0.1,0.1,0.1,0.1,0.1,0.2      C808.2,590.9,808.2,591,808.1,590.9C808.1,591,808.1,591,808.1,590.9z"></path>
				<path class="st10" d="M809.2,591.4c0.1,0,0.1-0.1,0.2-0.2c0-0.1,0.1-0.2,0.1-0.2s0-0.1-0.1-0.2c0-0.1-0.1-0.1-0.2-0.2l-0.3-0.2      l-0.4,0.8l0.3,0.2c0.1,0,0.2,0.1,0.2,0.1C809.1,591.5,809.1,591.5,809.2,591.4z M808.8,591.3L808.8,591.3l0.1-0.5h0.1      c0.1,0,0.1,0.1,0.1,0.1c0,0.1,0,0.1,0,0.2c0,0.1-0.1,0.1-0.1,0.1C808.9,591.3,808.9,591.3,808.8,591.3z"></path>
				
					<rect x="809.6" y="591.1" transform="matrix(0.4528 -0.8916 0.8916 0.4528 -84.2652 1045.5961)" class="st10" width="0.2" height="0.6"></rect>
				<path class="st10" d="M810.3,592C810.2,592,810.2,592,810.3,592C810.2,591.9,810.2,591.9,810.3,592l-0.3-0.2c0,0.1,0,0.1,0,0.2      c0,0.1,0,0.1,0.1,0.1l0.1,0.1c0.1,0,0.1,0,0.2,0s0.1,0,0.1,0l0.1-0.1V592v-0.1l-0.1-0.1l-0.1-0.1v-0.1l0,0c0,0,0,0,0.1,0      c0,0,0,0,0.1,0.1c0,0,0,0,0,0.1l0.2,0.1c0-0.1,0-0.1,0-0.2c0-0.1-0.1-0.1-0.2-0.2c-0.1,0-0.2-0.1-0.2,0s-0.1,0.1-0.2,0.1v0.1      v0.1l0.1,0.1L810.3,592C810.4,592,810.4,592,810.3,592c0.1,0.1,0.1,0.1,0.1,0.2C810.4,592,810.4,592.1,810.3,592      C810.3,592.1,810.3,592.1,810.3,592z"></path>
				<polygon class="st10" points="811.5,592.9 811.9,592.1 811.7,592 811.2,592.4 811.2,591.7 811,591.6 810.6,592.4 810.8,592.5       811,592 811,592.6 811.1,592.7 811.5,592.3 811.3,592.8     "></polygon>
				<path class="st10" d="M812.5,592.4L812.5,592.4l-0.4-0.3l-0.4,0.8l0.2,0.1l0.1-0.3l0.1,0.1c0.1,0,0.1,0,0.2,0s0.1,0,0.1,0      l0.1-0.1v-0.1C812.5,592.5,812.5,592.5,812.5,592.4z M812.3,592.7C812.2,592.7,812.2,592.7,812.3,592.7l-0.2-0.1l0.1-0.2      l0.1,0.1c0,0,0.1,0,0.1,0.1C812.3,592.5,812.3,592.6,812.3,592.7C812.3,592.6,812.3,592.7,812.3,592.7z"></path>
				
					<rect x="812.4" y="593" transform="matrix(0.4528 -0.8916 0.8916 0.4528 -84.0131 1049.3131)" class="st10" width="0.9" height="0.2"></rect>
				<path class="st10" d="M813.3,593.6C813.3,593.6,813.2,593.5,813.3,593.6C813.2,593.5,813.2,593.5,813.3,593.6l-0.3-0.2      c0,0.1,0,0.1,0,0.2c0,0.1,0,0.1,0.1,0.1l0.1,0.1c0.1,0,0.1,0,0.2,0s0.1,0,0.1,0l0.1-0.1v-0.1v-0.1l-0.1-0.1l-0.1-0.1v-0.1l0,0      c0,0,0,0,0.1,0c0,0,0,0,0.1,0.1c0,0,0,0,0,0.1l0.2,0.1c0-0.1,0-0.1,0-0.2s-0.1-0.1-0.2-0.2c-0.1,0-0.2-0.1-0.2,0      s-0.1,0.1-0.2,0.1v0.1v0.1l0.1,0.1L813.3,593.6C813.4,593.6,813.4,593.6,813.3,593.6c0.1,0.2,0.1,0.1,0.1,0.2      C813.4,593.6,813.4,593.6,813.3,593.6L813.3,593.6z"></path>
				<polygon class="st10" points="814,593.2 813.6,593.9 814.1,594.2 814.1,594 813.9,593.9 814.2,593.3     "></polygon>
				<path class="st10" d="M814.1,594.2l0.2,0.1l0.1-0.1l0.3,0.2v0.2l0.2,0.1l0.1-0.9l-0.2-0.1L814.1,594.2z M814.8,593.8v0.3      l-0.2-0.1L814.8,593.8z"></path>
				<polygon class="st10" points="815.9,595.1 816.3,594.3 816.1,594.2 815.6,594.6 815.6,594 815.4,593.9 815,594.6 815.2,594.7       815.4,594.3 815.4,594.8 815.5,594.9 815.9,594.5 815.7,595     "></polygon>
				<polygon class="st10" points="816.6,595.5 817,594.8 817.2,594.9 817.2,594.8 816.6,594.5 816.5,594.6 816.8,594.7 816.4,595.4           "></polygon>
				<polygon class="st10" points="817.5,595.7 817.2,595.6 817.3,595.4 817.6,595.5 817.6,595.4 817.4,595.2 817.5,595.1       817.7,595.2 817.8,595.1 817.3,594.8 816.9,595.6 817.4,595.9     "></polygon>
				<path class="st10" d="M817.9,595.7L817.9,595.7l0.1,0.4l0.2,0.1v-0.4c0.1,0,0.1,0,0.2,0c0.1,0,0.1-0.1,0.1-0.1v-0.1      c0,0,0-0.1-0.1-0.1l-0.1-0.1l-0.3-0.2l-0.4,0.8l0.2,0.1L817.9,595.7z M818.1,595.4L818.1,595.4c0.1,0.1,0.2,0.1,0.2,0.2v0.1      c0,0,0,0.1-0.1,0.1h-0.1l-0.1-0.1L818.1,595.4z"></path>
				<path class="st10" d="M818.6,596.1L818.6,596.1c0.2,0.1,0.2,0.1,0.3,0.1c0.1,0,0.1,0,0.1,0l0.1-0.1V596c0,0,0-0.1-0.1-0.1      l-0.1-0.1l-0.3-0.2l-0.4,0.8l0.2,0.1L818.6,596.1z M818.8,595.8L818.8,595.8c0.1,0.1,0.2,0.1,0.2,0.2v0.1c0,0,0,0.1-0.1,0.1      h-0.1l-0.1-0.1L818.8,595.8z"></path>
				<path class="st10" d="M819.3,596.6l0.3,0.2v0.2l0.2,0.1l0.1-0.9l-0.2-0.1l-0.7,0.6l0.2,0.1L819.3,596.6z M819.6,596.3v0.3      l-0.2-0.1L819.6,596.3z"></path>
				<path class="st10" d="M820.4,597.3c0.1,0,0.2,0,0.2-0.1c0.1,0,0.1-0.1,0.2-0.2c0-0.1,0.1-0.2,0.1-0.2c0-0.1,0-0.1-0.1-0.2      c0-0.1-0.1-0.1-0.2-0.2l-0.3-0.2l-0.4,0.8l0.3,0.2C820.2,597.3,820.3,597.3,820.4,597.3z M820.1,597l0.2-0.5h0.1      c0.1,0,0.1,0.1,0.1,0.1c0,0.1,0,0.1,0,0.2c0,0.1-0.1,0.1-0.1,0.1S820.3,597.1,820.1,597L820.1,597z"></path>
				<path class="st10" d="M820.8,597.6L820.8,597.6c0.2,0.1,0.2,0.1,0.3,0.1c0.1,0,0.1,0,0.2,0c0.1,0,0.1-0.1,0.1-0.2l0.2-0.5      l-0.2-0.1l-0.2,0.5l-0.1,0.1H821l-0.1-0.1v-0.1l0.2-0.5l-0.2-0.1l-0.2,0.5c0,0.1-0.1,0.1,0,0.2      C820.8,597.5,820.8,597.5,820.8,597.6z"></path>
				<path class="st10" d="M813.1,587.1c-0.8,1.6-0.2,3.6,1.5,4.5c1.7,0.8,3.7,0.2,4.5-1.4c0-0.1,0.1-0.2,0.1-0.2      c-0.9,1.5-2.8,2-4.4,1.2c-1.6-0.8-2.3-2.7-1.6-4.3C813.2,586.9,813.1,587,813.1,587.1z"></path>
				<path class="st10" d="M815,590.8c1.7,0.8,3.7,0.2,4.5-1.4c0-0.1,0.1-0.2,0.1-0.2c-0.9,1.5-2.8,2-4.4,1.2      c-1.6-0.8-2.3-2.7-1.6-4.3c0,0.1-0.1,0.2-0.1,0.2C812.7,587.9,813.3,589.9,815,590.8z"></path>
				<path class="st10" d="M818.9,590.6c-0.9,1.5-2.8,2-4.4,1.2c-1.6-0.8-2.3-2.6-1.6-4.2c0,0.1-0.1,0.2-0.1,0.2      c-0.8,1.6-0.2,3.6,1.5,4.5c1.7,0.8,3.7,0.2,4.5-1.4C818.8,590.8,818.8,590.7,818.9,590.6z"></path>
				<path class="st10" d="M815,589.8c0.1-0.7,0-1.6-0.2-2.4c0.3,0.7,0.6,1.4,0.6,2.3c0.2-0.3,0.5-1.1,0.6-1.2      c0.7-1.7,0.2-2.9-1.7-3.8C813,587.2,813.6,588.7,815,589.8z"></path>
				<path class="st10" d="M816.2,588.7c0,0.1-0.4,0.8-0.6,1.2c0.8-0.6,1.5-0.7,2.2-0.9c-0.8,0.3-1.5,0.7-2,1.3      c1.7,0.4,3.3,0,4.5-2.4l0,0C818.5,586.9,817.2,587.1,816.2,588.7z"></path>
				<path class="st10" d="M816.4,588c0.3-0.6,0.8-0.8,1.3-1c0.1,0,0.1,0,0.2-0.1l0,0c0.1,0,0.1,0,0.2,0c0.2,0,0.3-0.1,0.5-0.1      c0.4-0.1,0.4-0.3,0.3-0.6l0,0l-0.2-0.5l-0.4-1.3l-1.4,0.4c-0.1,0-0.2,0.1-0.3,0.2c0,0.1,0,0.2,0,0.3c0.2,0.5,0.5,1.2,0.5,1.4      c0.1-0.1,0.7-0.2,1.1-0.4h0.1c0.1,0,0.2,0.1,0.1,0.2c0,0,0,0-0.1,0c-0.5,0.1-1.3,0.3-1.5,0.7c0.2-0.5-0.2-1.4-0.4-1.9      c0-0.1-0.1-0.2-0.1-0.3l0,0c-0.3,0.1-0.5,0.3-0.4,0.6C816.3,586.1,816.9,587,816.4,588z M818.1,585.7l-0.6,0.2l-0.2-0.6      c0-0.1,0-0.1,0-0.1s0.1,0,0.1-0.1l0.6-0.2l0.2,0.6C818.2,585.6,818.2,585.6,818.1,585.7C818.2,585.6,818.1,585.6,818.1,585.7z"></path>
				<path class="st10" d="M817.9,584.1L817.9,584.1l0.6-0.2l-0.2-0.5c0,0,0-0.1-0.1-0.1h-0.1l-0.5,0.2L817.9,584.1      C817.8,584,817.8,584.1,817.9,584.1z"></path>
				<path class="st10" d="M818.7,584.5L818.7,584.5l0.6-0.2l-0.2-0.5c0,0,0-0.1-0.1-0.1h-0.1l-0.5,0.2L818.7,584.5L818.7,584.5z"></path>
			</g>
		</g>
	</g>
	<g>
		<g>
			<g>
				<path class="st11" d="M233.1,594.2c0-0.1,0.8-0.4,2.3-0.8c1.5-0.5,3.7-1.1,6.4-1.8c5.4-1.4,13-3,21.6-4      c8.5-0.9,16.3-1.1,21.9-0.9c2.8,0.1,5.1,0.2,6.6,0.4c1.6,0.1,2.4,0.3,2.4,0.3c0,0.1-0.9,0.1-2.4,0c-1.6-0.1-3.8-0.1-6.6-0.1      c-5.6,0-13.3,0.2-21.8,1.1c-8.5,1-16.1,2.4-21.5,3.7c-2.7,0.6-4.9,1.2-6.4,1.6C233.9,594.1,233.1,594.3,233.1,594.2z"></path>
			</g>
		</g>
	</g>
	<g>
		<g>
			<path class="st11" d="M230.4,466.4c0,0,0.1,0.4,0.1,1.3s0.1,2.2,0.1,3.7c0.1,3.2,0.2,7.9,0.5,13.7c0.6,11.5,1.6,27.5,5.6,44.7     c2,8.6,4.5,16.6,7.4,23.6s6.2,13.1,9.5,17.8c3.3,4.7,6.4,8.2,8.6,10.6c1.1,1.2,2,2,2.6,2.6s0.9,0.9,0.9,1c0,0-0.4-0.3-1-0.8     c-0.6-0.6-1.6-1.4-2.7-2.5c-2.3-2.2-5.5-5.7-8.9-10.4s-6.8-10.8-9.8-17.8c-3-7.1-5.5-15.1-7.5-23.7c-4-17.2-4.9-33.3-5.4-44.8     c-0.2-5.8-0.2-10.5-0.2-13.7c0-1.6,1-2.8,1-3.7C231.4,466.8,230.4,466.4,230.4,466.4z"></path>
		</g>
	</g>
	<g>
		<polyline class="st7" points="262,558.5 314.1,667 378.9,607 378.2,516.6   "></polyline>
		<g>
			<g>
				<path class="st0" d="M268.2,456.7c0,0-28.7,13.7-36.7,32s-10.1,30-8.2,49c1.9,19,7.2,66.7,11.8,79c3.6,9.7,29.2,22,54.5,18.1      c25.3-3.9,32.2-0.4,32.2-0.4l2.2-183.9l0,0c0,0-8.8,16.8-28.9,18C282.4,469.3,268.2,456.7,268.2,456.7z"></path>
			</g>
		</g>
		<path class="st7" d="M307.3,550.4c-15.5-3.2-27.4-6.2-38.5-17.4c-10.3-10.3,0.4-8.6-6.3-20.7c-8.2,0.4-12.5,19.6-16.9,24.6    c1.7,12.9,19.8,49.4,27.2,57.2c1.1,1.1,3.3,4.6,4.3,4.4c12.2-2.8,30.7-5,51.6-0.6C332.1,592,309.8,557.4,307.3,550.4z"></path>
		<g>
			<path class="st12" d="M367.7,364.9"></path>
			<path class="st13" d="M297.1,492.2"></path>
			<path class="st14" d="M262.6,460.3c0,0,30,3.8,52.5-26.6"></path>
			<g>
				<path class="st15" d="M316.6,371.5c-9.1-9.2-13.8-21.5-22.7-30.4c-2.6-2.6-10.7-6.1-14.8-3.8c-3.8,2.1-6.8,5.4-11.1,6.7      c-4.2,1.3-8.9,1.1-13,1.6c-9.7,1.3-19.4,3.8-29.2,3.6c-5.1-0.1-13-2.2-17.8-0.1c-4.4,2-5.1,9.9-6.3,14.1      c-1.4,5.3-2.1,10.7-2.2,16.1c-0.1,5-1.4,9.8-1.3,14.9c0.1,5.6-1,12.1-0.2,17.6c1.8,12,21.2,64.1,19.6,78.7      c-4.7,44.1,4.8,77,4.7,77.6c-3.1,27.8,24.4,3.1,38,6.6c9.6,2.4,61.1,8.7,88.4-0.9c22.5-7.9,33-36,36-42.8      c15.6-35.5,79.8-25-11-108C360.7,411.2,341.6,396.9,316.6,371.5z"></path>
			</g>
			<g>
				<path class="st16" d="M288.6,457.5c-12,5.9-40.5,5-58.1-18.3c-3.5-4.7-5.8-9.8-7.6-15.3c-2-6-3.7-12.1-4.4-18.4      c-0.9-8.1,0-16.7,3.9-24.4l43.6-21.5c8.6,1.6,16.1,6,22.2,11.5c4.7,4.3,8.7,9.3,12.3,14.5c3.4,4.8,6.2,9.6,7.9,15.2      C316.9,428.6,300.6,451.6,288.6,457.5"></path>
			</g>
			<path class="st12" d="M398.5,433.7"></path>
			<path class="st17" d="M304.8,388.4l-7.5,3.8c-4.4-7.5-14.1-10.2-22-6.2c-8.2,4.2-11.6,14.2-7.6,22.2c-2.7,0-5.2,1.3-6.8,3.5     c-4.2-8-14.2-11.1-22.5-6.9c-8,4.1-11.4,13.6-7.9,21.5l-7.9,4.1c-0.5,0.3-0.7,0.8-0.4,1.3c0.2,0.5,0.8,0.7,1.3,0.4l7.9-4.1     c4.4,7.5,14.1,10.2,22,6.2c7.5-3.9,11-12.5,8.4-20.1c0.5-1.4,1.5-2.5,2.9-3.2c1.3-0.7,2.8-0.8,4.2-0.5c4.7,6.6,13.8,8.9,21.3,5     c8-4.1,11.4-13.6,7.9-21.5l7.5-3.8c0.5-0.3,0.7-0.8,0.4-1.3C305.9,388.4,305.3,388.2,304.8,388.4z M252.6,432.6     c-7.3,3.7-16.2,1-19.9-6.2c-3.7-7.1-0.7-16,6.6-19.7s16.2-1,19.9,6.2C262.9,420,259.9,428.8,252.6,432.6z M289.4,413.7     c-7.3,3.7-16.2,1-19.9-6.2c-3.7-7.1-0.7-16,6.6-19.7c7.3-3.7,16.2-1,19.9,6.2C299.7,401.2,296.7,410,289.4,413.7z"></path>
			<path class="st15" d="M285.9,334.3c-11.7-9.1-35.5-23.3-66.9-5.1c-27.3,15.8-37.7,59.3-14.2,94.2c4.9,7.2,9.5,13.8,15.5,19.9     c3,3.1,5.4,6.8,8.5,9.9c3.3,3.2,7,5.7,10.4,8.7c-19.9-17.1-18.4-42.6-17.2-61.9c0-1.4,0.1-2.9,0.2-4.3c3.8-3.3,2.7-7.4,6.6-8.7     c4.3-1.5,6.8,0.8,10.5-3.2s0.9-5.4,6.6-7.3c3.2-1.1,6.6,0.5,8.2-1.2c1.6-1.7,1.3-4.7,5.4-4.7c4.1,0,6.9,0.3,8.6-2.6     c1.4-2.4,5.7-3.3,10.1-2.8c0.6,0.3,1.1,0.6,1.7,0.9c14,8,32.7,32.1,39.4,51.2c-2.2-6.3-2.8-13.6-4.6-20.2     c-1.6-6.2-3.5-12.6-6.2-18.4C301.3,363.1,300,345.3,285.9,334.3z"></path>
			<polygon class="st18" points="279.1,358 309.2,366.1 306,360.3 280.6,353.6    "></polygon>
			<polygon class="st18" points="219.6,389.8 204.6,425.3 201.8,418.8 215.2,387.4    "></polygon>
			<path class="st7" d="M219.2,388.9L219.2,388.9c3.5-2,4.5-4.6,5.3-6.6c0.7-1.8,1.1-2.8,2.6-3.3c1.4-0.5,2.5-0.5,3.7-0.5     c2.2,0,4.4,0,7-2.9c1.6-1.8,2.1-3.2,2.4-4.2c0.4-1.2,0.6-1.8,3.3-2.7c1.1-0.4,2.4-0.3,3.6-0.2c1.8,0.1,3.7,0.2,4.9-1.2     c0.6-0.7,0.9-1.4,1.2-2.1c0.6-1.4,1-2.2,2.9-2.1h1.1c3.5,0.1,6.6,0.2,8.5-3.1c1-1.8,4.6-2.5,8.5-1.9c1.5,0.2,2.8-0.7,3.2-2.2l0,0     c-5.4-1.6-12-1.2-14.1,2.6c-1,1.8-2.6,1.9-6,1.8h-1.1c-3.7-0.1-4.7,2.2-5.4,3.7c-0.2,0.5-0.5,1.1-0.8,1.4     c-0.4,0.4-1.5,0.4-2.7,0.3c-1.4-0.1-3-0.2-4.7,0.3c-3.7,1.2-4.3,2.5-5,4.4c-0.3,0.9-0.7,1.9-1.9,3.3c-1.8,2-3,2-5,2     c-1.3,0-2.8,0-4.6,0.6c-2.7,0.9-3.5,3-4.2,4.9c-0.5,1.2-1,2.5-2,3.6C218.9,385.8,218.7,387.5,219.2,388.9L219.2,388.9z"></path>
			<path class="st19" d="M280.7,357.2l-2.2,1.1c-0.7,0.4-1.6,0.1-1.9-0.6l-1.1-2.2c-0.4-0.7-0.1-1.6,0.6-1.9l2.2-1.1     c0.7-0.4,1.6-0.1,1.9,0.6l1.1,2.2C281.7,356,281.4,356.8,280.7,357.2z"></path>
			<path class="st19" d="M219.6,390.8l-2.2,1.1c-0.7,0.4-1.6,0.1-1.9-0.6l-1.1-2.2c-0.4-0.7-0.1-1.6,0.6-1.9l2.2-1.1     c0.7-0.4,1.6-0.1,1.9,0.6l1.1,2.2C220.6,389.5,220.3,390.4,219.6,390.8z"></path>
			<g>
				<path class="st17" d="M225.5,404c-2.1-3.2,5.3-6.6,8.1-7.6c1.6-0.5,3.5-1.3,5-0.7c0.9,0.4,1,1.5,0.5,2.4c-1.4,1.7-4.1,1.7-6,2.8      c-1.9,1-3.4,1.8-5.1,3C227.3,404.6,226.2,404.7,225.5,404z"></path>
				<path class="st17" d="M240.4,412.4c5.7-3.5,10.8,5.3,4.5,8.2C239,423.3,235.8,415.8,240.4,412.4z"></path>
				<path class="st17" d="M280.4,377.6c-1.3-3.6-8.4,0.1-10.9,1.7c-1.4,0.9-3.2,1.9-3.6,3.5c-0.2,1,0.6,1.8,1.6,1.8      c2.2-0.1,3.9-2.1,5.9-2.9c2-0.9,3.5-1.6,5.5-2.2C279.7,379.4,280.5,378.5,280.4,377.6z"></path>
				<path class="st17" d="M280.5,393c-6.3,2.3-2.5,11.8,3.7,8.6C289.9,398.7,286,391.5,280.5,393z"></path>
				<polyline class="st17" points="282.2,393 285.3,389.6 284.4,393.7 282.4,393.5     "></polyline>
				<polyline class="st17" points="239,414.7 234.4,415.3 238.3,416.9 239.3,415.2     "></polyline>
			</g>
			
				<rect x="247.9" y="496.1" transform="matrix(0.8869 -0.4619 0.4619 0.8869 -201.3528 178.4523)" class="st20" width="31.9" height="8.8"></rect>
			<g>
				<path class="st17" d="M255.7,501.5l2.4,4.6l-0.9,0.5l-1-1.9l-2,1l1,1.9l-0.9,0.5l-2.4-4.6l0.9-0.5l1,1.9l2-1l-1-1.9L255.7,501.5      z"></path>
				<path class="st17" d="M257.5,502.8c0-0.4,0.1-0.7,0.3-1c0.2-0.3,0.4-0.5,0.7-0.7c0.3-0.1,0.5-0.2,0.8-0.2s0.5,0.1,0.7,0.2      l-0.3-0.5l0.9-0.5l1.9,3.6l-0.9,0.5l-0.3-0.5c0,0.2-0.1,0.5-0.3,0.7c-0.1,0.2-0.4,0.4-0.6,0.5c-0.3,0.2-0.6,0.2-1,0.2      c-0.3,0-0.6-0.1-0.9-0.4c-0.3-0.2-0.5-0.5-0.7-0.9C257.6,503.5,257.5,503.2,257.5,502.8z M260.2,501.9c-0.2-0.1-0.4-0.2-0.5-0.2      c-0.2,0-0.4,0-0.5,0.1c-0.2,0.1-0.3,0.2-0.4,0.4c-0.1,0.2-0.2,0.3-0.2,0.5s0,0.4,0.2,0.6c0.1,0.2,0.3,0.4,0.4,0.5      c0.2,0.1,0.4,0.2,0.5,0.2c0.2,0,0.4,0,0.5-0.1c0.2-0.1,0.3-0.2,0.4-0.4c0.1-0.2,0.2-0.3,0.2-0.6c0-0.2-0.1-0.4-0.2-0.6      S260.4,502,260.2,501.9z"></path>
				<path class="st17" d="M264.8,498.4c0.4,0.1,0.7,0.4,1,0.9l1.1,2.1L266,502l-1-2c-0.1-0.3-0.3-0.5-0.6-0.6      c-0.2-0.1-0.5-0.1-0.7,0.1c-0.3,0.1-0.4,0.3-0.5,0.5s0,0.5,0.1,0.8l1,2l-0.9,0.5l-1.9-3.6l0.9-0.5l0.2,0.5      c0-0.2,0.1-0.4,0.3-0.6c0.1-0.2,0.3-0.3,0.6-0.5C264,498.3,264.4,498.3,264.8,498.4z"></path>
				<path class="st17" d="M269.1,496.2c0.4,0.1,0.7,0.4,1,0.9l1.1,2.1l-0.9,0.5l-1-2c-0.1-0.3-0.3-0.5-0.6-0.6      c-0.2-0.1-0.5-0.1-0.7,0.1c-0.3,0.1-0.4,0.3-0.5,0.5s0,0.5,0.1,0.8l1,2l-0.9,0.5l-1.9-3.6l0.9-0.5l0.2,0.5      c0-0.2,0.1-0.4,0.3-0.6c0.1-0.2,0.3-0.3,0.6-0.5C268.3,496.1,268.7,496,269.1,496.2z"></path>
				<path class="st17" d="M270.6,496c0-0.4,0.1-0.7,0.3-1c0.2-0.3,0.4-0.5,0.7-0.7c0.3-0.1,0.5-0.2,0.8-0.2s0.5,0.1,0.7,0.2      l-0.3-0.5l0.9-0.5l1.9,3.6l-0.9,0.5l-0.3-0.5c0,0.2-0.1,0.5-0.3,0.7c-0.1,0.2-0.4,0.4-0.6,0.5c-0.3,0.2-0.6,0.2-1,0.2      c-0.3,0-0.6-0.1-0.9-0.4c-0.3-0.2-0.5-0.5-0.7-0.9C270.7,496.7,270.6,496.3,270.6,496z M273.3,495.1c-0.2-0.1-0.4-0.2-0.5-0.2      c-0.2,0-0.4,0-0.5,0.1c-0.2,0.1-0.3,0.2-0.4,0.4s-0.2,0.3-0.2,0.5s0,0.4,0.2,0.6c0.1,0.2,0.3,0.4,0.4,0.5      c0.2,0.1,0.4,0.2,0.5,0.2c0.2,0,0.4,0,0.5-0.1c0.2-0.1,0.3-0.2,0.4-0.4c0.1-0.2,0.2-0.3,0.2-0.5s-0.1-0.4-0.2-0.6      S273.5,495.2,273.3,495.1z"></path>
			</g>
			<path class="st4" d="M287.8,422.3c-1.9,5.5-6.1,10.1-11.4,12.6s-11.5,2.8-17,0.9c3.4,3,5.9,6,10.1,7.5s9.1,1.7,13.1-0.3     c3.2-1.6,5.6-4.5,6.7-7.9C290.3,431.8,289.5,425.4,287.8,422.3z"></path>
			<g>
				<path class="st9" d="M359.6,473.1l-14,7c-2,1-4.4,0.2-5.4-1.8l-8.1-16.1c-1-2-0.2-4.4,1.8-5.4l14-7c2-1,4.4-0.2,5.4,1.8      l8.1,16.1C362.4,469.7,361.6,472.1,359.6,473.1z"></path>
				<g>
					<path class="st10" d="M341.9,473v0.1c0,0.1,0,0.1,0,0.1s0,0.1-0.1,0.1l-0.1,0.1h-0.1c-0.1,0-0.1,0-0.1,0s-0.1,0-0.1-0.1       l-0.1-0.1l-0.5-1l-0.5,0.2l0.2,0.3l0.1-0.1l0.3,0.6c0,0.1,0.1,0.2,0.2,0.2c0.1,0.1,0.2,0.1,0.3,0.1c0.1,0,0.2,0,0.3,0       c0.1,0,0.2,0,0.3-0.1c0.1,0,0.2-0.1,0.2-0.2c0.1-0.1,0.1-0.2,0.1-0.3c0-0.1,0-0.2,0-0.3c0-0.1,0-0.2-0.1-0.3l-0.5-1l-0.3,0.2       L341.9,473z"></path>
					<polygon class="st10" points="343.3,472.1 342.3,471.6 342,471.7 342.8,473.3 343.2,473.2 342.7,472.2 343.4,472.6        343.7,472.5 343.8,471.7 344.2,472.6 344.6,472.5 343.8,470.8 343.5,471      "></polygon>
					<polygon class="st10" points="345.8,470.7 346.3,471.6 346.6,471.4 345.8,469.8 345.5,470 345.3,471.1 344.4,470.6 344,470.7        344.9,472.3 345.2,472.2 344.7,471.2 345.5,471.6 345.7,471.5      "></polygon>
					<path class="st10" d="M347.9,470.8c0.1-0.1,0.1-0.2,0.1-0.3c0-0.1,0-0.2,0-0.3c0-0.1,0-0.2-0.1-0.3l-0.5-1l-0.3,0.2l0.5,1v0.1       c0,0.1,0,0.1,0,0.1s0,0.1-0.1,0.1l-0.1,0.1h-0.1c-0.1,0-0.1,0-0.1,0s-0.1,0-0.1-0.1s-0.1-0.1-0.1-0.1l-0.5-1l-0.5,0.2l0.2,0.3       l0.1-0.1l0.3,0.6c0,0.1,0.1,0.2,0.2,0.2c0.1,0.1,0.2,0.1,0.3,0.1c0.1,0,0.2,0,0.3,0c0.1,0,0.2,0,0.3-0.1       C347.8,470.9,347.8,470.8,347.9,470.8z"></path>
					<polygon class="st10" points="348,468.7 347.7,468.9 348,469.3 348.2,469.2      "></polygon>
					<polygon class="st10" points="348.6,468.4 348.3,468.6 349.1,470.2 350.1,469.7 349.9,469.4 349.2,469.7      "></polygon>
					<path class="st10" d="M352.2,468.6l0.3-0.2l-0.2-0.3l-0.2,0.1l0,0c0-0.1,0-0.2,0-0.3s0-0.2-0.1-0.3c-0.1-0.1-0.1-0.2-0.2-0.3       c-0.1-0.1-0.2-0.1-0.3-0.2c-0.1,0-0.2-0.1-0.4,0c-0.1,0-0.2,0-0.4,0.1c-0.1,0.1-0.2,0.1-0.3,0.2c-0.1,0.1-0.1,0.2-0.2,0.3       c0,0.1-0.1,0.2,0,0.4c0,0.1,0,0.2,0.1,0.4c0.1,0.1,0.1,0.2,0.2,0.3c0.1,0.1,0.2,0.1,0.3,0.2c0.1,0,0.2,0.1,0.4,0       c0.1,0,0.2,0,0.4-0.1c0.1,0,0.2-0.1,0.2-0.2c0.1-0.1,0.1-0.1,0.2-0.2L352.2,468.6z M351.5,468l-0.1,0.4l0.3,0.1       c-0.1,0.1-0.1,0.1-0.2,0.2c-0.1,0-0.1,0.1-0.2,0.1s-0.1,0-0.2,0s-0.1-0.1-0.2-0.1s-0.1-0.1-0.1-0.2s-0.1-0.1-0.1-0.2       s0-0.1,0-0.2s0.1-0.1,0.1-0.2s0.1-0.1,0.2-0.1s0.1-0.1,0.2-0.1s0.1,0,0.2,0s0.1,0.1,0.2,0.1s0.1,0.1,0.1,0.2s0.1,0.1,0,0.2       L351.5,468z"></path>
					<path class="st10" d="M353.5,467.2v0.1c0,0.1,0,0.1,0,0.1s0,0.1-0.1,0.1l-0.1,0.1h-0.1c-0.1,0-0.1,0-0.1,0s-0.1,0-0.1-0.1       s-0.1-0.1-0.1-0.1l-0.5-1l-0.5,0.2l0.2,0.3l0.1-0.1l0.3,0.6c0,0.1,0.1,0.2,0.2,0.2c0.1,0.1,0.2,0.1,0.3,0.1c0.1,0,0.2,0,0.3,0       c0.1,0,0.2,0,0.3-0.1c0.1,0,0.2-0.1,0.2-0.2c0.1-0.1,0.1-0.2,0.1-0.3c0-0.1,0-0.2,0-0.3c0-0.1,0-0.2-0.1-0.3l-0.5-1l-0.3,0.2       L353.5,467.2z"></path>
					<path class="st10" d="M354.8,465.5c-0.1,0-0.2,0-0.3,0c-0.1,0-0.2,0-0.3,0.1l-0.6,0.3l0.4,0.9l-0.1,0.1l0.2,0.3l0.1-0.1       l0.2,0.4l0.3-0.2l-0.2-0.4l0.2-0.1l0.5,0.3l0.4-0.2l-0.5-0.3c0,0,0.1-0.1,0.1-0.2s0-0.1,0-0.2s0-0.1,0-0.2s0-0.1-0.1-0.2       c0-0.1-0.1-0.2-0.2-0.2C355,465.6,354.9,465.5,354.8,465.5z M354.9,466.1v0.1c0,0,0,0.1-0.1,0.1l-0.1,0.1l-0.3,0.1l-0.3-0.5       l0.3-0.1h0.1h0.1c0,0,0.1,0,0.1,0.1L354.9,466.1C354.9,466.1,354.9,466.1,354.9,466.1z"></path>
					<path class="st10" d="M357,464.8c-0.1-0.1-0.2-0.1-0.3-0.2c-0.1,0-0.2-0.1-0.4,0c-0.1,0-0.2,0-0.4,0.1       c-0.1,0.1-0.2,0.1-0.3,0.2c-0.1,0.1-0.1,0.2-0.2,0.3c0,0.1-0.1,0.2,0,0.4c0,0.1,0,0.2,0.1,0.4c0.1,0.1,0.1,0.2,0.2,0.3       c0.1,0.1,0.2,0.1,0.3,0.2s0.2,0.1,0.4,0c0.1,0,0.2,0,0.4-0.1c0.1-0.1,0.2-0.1,0.3-0.2c0.1-0.1,0.1-0.2,0.2-0.3       c0-0.1,0.1-0.2,0-0.4c0-0.1,0-0.2-0.1-0.4C357.1,465,357.1,464.9,357,464.8z M356.9,465.5c0,0.1,0,0.1,0,0.2s-0.1,0.1-0.1,0.2       s-0.1,0.1-0.2,0.1s-0.1,0.1-0.2,0.1s-0.1,0-0.2,0s-0.1-0.1-0.2-0.1s-0.1-0.1-0.1-0.2s-0.1-0.1-0.1-0.2s0-0.1,0-0.2       s0.1-0.1,0.1-0.2s0.1-0.1,0.2-0.1s0.1-0.1,0.2-0.1s0.1,0,0.2,0s0.1,0.1,0.2,0.1s0.1,0.1,0.1,0.2       C356.9,465.4,356.9,465.4,356.9,465.5z"></path>
					<path class="st10" d="M347.4,472.2c-0.1,0-0.2,0-0.3,0c-0.1,0-0.2,0-0.4,0.1l-0.5,0.3l0.8,1.6l0.5-0.3c0.1-0.1,0.2-0.1,0.3-0.2       c0.1-0.1,0.1-0.2,0.2-0.3c0-0.1,0.1-0.2,0-0.3c0-0.1,0-0.2-0.1-0.3s-0.1-0.2-0.2-0.3C347.6,472.3,347.5,472.3,347.4,472.2z        M347.6,473.1c0,0.1,0,0.1,0,0.2s-0.1,0.1-0.1,0.2s-0.1,0.1-0.2,0.1l-0.2,0.1l-0.5-0.9l0.2-0.1c0.1,0,0.1-0.1,0.2-0.1       s0.1,0,0.2,0s0.1,0.1,0.2,0.1s0.1,0.1,0.1,0.2C347.6,472.9,347.6,473,347.6,473.1z"></path>
					<polygon class="st10" points="348.6,473.4 349.6,472.9 349.4,472.5 348.8,472.9 348.6,472.6 349.1,472.3 348.9,472        348.4,472.2 348.3,471.9 349,471.6 348.8,471.2 347.8,471.8      "></polygon>
					<path class="st10" d="M350.2,470.8c-0.1,0-0.2,0-0.3,0c-0.1,0-0.2,0-0.3,0.1l-0.6,0.3l0.4,0.9l-0.1,0.1l0.2,0.3l0.1-0.1       l0.2,0.4l0.3-0.2l-0.2-0.4l0.3-0.1c0.1,0,0.2-0.1,0.2-0.2c0.1-0.1,0.1-0.1,0.1-0.2s0-0.2,0-0.3c0-0.1,0-0.2-0.1-0.3       C350.4,471,350.3,470.9,350.2,470.8C350.4,470.8,350.3,470.8,350.2,470.8z M350.3,471.4v0.1c0,0,0,0.1-0.1,0.1l-0.1,0.1       l-0.3,0.1l-0.3-0.5l0.3-0.1h0.1h0.1c0,0,0.1,0,0.1,0.1L350.3,471.4C350.3,471.3,350.3,471.3,350.3,471.4z"></path>
					<path class="st10" d="M352.1,469.9c-0.1,0-0.2-0.1-0.4,0c-0.1,0-0.2,0-0.4,0.1c-0.1,0.1-0.2,0.1-0.3,0.2       c-0.1,0.1-0.1,0.2-0.2,0.3c0,0.1-0.1,0.2,0,0.4c0,0.1,0,0.2,0.1,0.4c0.1,0.1,0.1,0.2,0.2,0.3c0.1,0.1,0.2,0.1,0.3,0.2       c0.1,0,0.2,0.1,0.4,0c0.1,0,0.2,0,0.4-0.1c0.1-0.1,0.2-0.1,0.3-0.2c0.1-0.1,0.1-0.2,0.2-0.3s0.1-0.2,0-0.4c0-0.1,0-0.2-0.1-0.4       c-0.1-0.1-0.1-0.2-0.2-0.3C352.3,470,352.2,469.9,352.1,469.9z M352.3,470.7c0,0.1,0,0.1,0,0.2s-0.1,0.1-0.1,0.2       s-0.1,0.1-0.2,0.1s-0.1,0.1-0.2,0.1s-0.1,0-0.2,0s-0.1-0.1-0.2-0.1s-0.1-0.1-0.1-0.2s-0.1-0.1-0.1-0.2s0-0.1,0-0.2       s0.1-0.1,0.1-0.2s0.1-0.1,0.2-0.1s0.1-0.1,0.2-0.1s0.1,0,0.2,0s0.1,0.1,0.2,0.1s0.1,0.1,0.1,0.2       C352.3,470.6,352.3,470.7,352.3,470.7z"></path>
					<polygon class="st10" points="353.5,468.9 353.2,469.8 352.9,469.2 352.4,469.4 352.6,469.8 352.7,469.7 353.4,471        353.7,470.8 353.5,470.4 353.5,470.2 354.3,470.5 354.7,470.3 353.6,469.8 353.9,468.7      "></polygon>
					<polygon class="st10" points="340.6,471.6 340.8,471.6 340.5,470.9 340.7,470.8 340.6,470.7 340,471 340.1,471.1 340.3,471             "></polygon>
					<polygon class="st10" points="341.3,470.8 341.4,470.3 341.2,470.4 341.1,470.9 340.9,470.5 340.7,470.6 341.1,471.4        341.3,471.3 341.1,471 341.6,471.2 341.8,471      "></polygon>
					
						<rect x="341.6" y="470.4" transform="matrix(0.894 -0.448 0.448 0.894 -174.5506 203.035)" class="st10" width="0.6" height="0.2"></rect>
					<path class="st10" d="M342.7,470.4L342.7,470.4c-0.1,0-0.1,0-0.1,0l-0.2,0.1c0,0.1,0.1,0.1,0.1,0.1s0.1,0,0.2,0s0.1,0,0.2-0.1       c0.1,0,0.1-0.1,0.1-0.1l0.1-0.1v-0.1l-0.1-0.1h-0.1h-0.1c-0.1,0-0.1,0-0.1,0h-0.1c0,0,0,0,0-0.1l0,0h0.1c0,0,0,0,0.1,0l0.2-0.1       c0-0.1-0.1-0.1-0.2-0.1s-0.2,0-0.2,0c-0.1,0-0.1,0.1-0.2,0.2c0,0.1,0,0.1,0,0.2l0.1,0.1h0.1h0.1h0.1c0,0,0,0,0.1,0l0,0       C342.8,470.3,342.8,470.3,342.7,470.4C342.8,470.4,342.8,470.4,342.7,470.4z"></path>
					<path class="st10" d="M343.8,469.8c0-0.1,0-0.2-0.1-0.2c0-0.1-0.1-0.1-0.2-0.2c-0.1,0-0.1-0.1-0.2-0.1s-0.2,0-0.2,0.1l-0.3,0.1       l0.4,0.8l0.3-0.1c0.1,0,0.1-0.1,0.2-0.2C343.8,469.9,343.8,469.9,343.8,469.8z M343.4,470L343.4,470l-0.3-0.4h0.1       c0.1,0,0.1,0,0.2,0s0.1,0.1,0.1,0.1s0,0.1,0,0.2C343.6,469.9,343.5,470,343.4,470z"></path>
					
						<rect x="343.8" y="469.3" transform="matrix(0.894 -0.448 0.448 0.894 -173.8216 203.9008)" class="st10" width="0.6" height="0.2"></rect>
					<path class="st10" d="M344.9,469.3L344.9,469.3c-0.1,0-0.1,0-0.1,0l-0.2,0.1c0,0.1,0.1,0.1,0.1,0.1s0.1,0,0.2,0s0.1,0,0.2-0.1       c0.1,0,0.1-0.1,0.1-0.1l0.1-0.1v-0.1l-0.1-0.1h-0.1H345c-0.1,0-0.1,0-0.1,0h-0.1c0,0,0,0,0-0.1l0,0h0.1c0,0,0,0,0.1,0l0.2-0.1       c0-0.1-0.1-0.1-0.2-0.1s-0.2,0-0.2,0c-0.1,0-0.1,0.1-0.2,0.2c0,0.1,0,0.1,0,0.2l0.1,0.1h0.1h0.1h0.1c0,0,0,0,0.1,0l0,0       C345,469.2,345,469.2,344.9,469.3C345,469.3,345,469.3,344.9,469.3z"></path>
					<polygon class="st10" points="346.3,468.8 345.9,468 345.7,468.1 345.7,468.8 345.3,468.3 345,468.4 345.4,469.2 345.6,469.1        345.4,468.7 345.8,469 345.9,469 345.9,468.4 346.1,468.9      "></polygon>
					<path class="st10" d="M346.6,467.7c-0.1,0-0.1,0-0.2,0l-0.3,0.2l0.4,0.8l0.2-0.1l-0.1-0.3l0.1-0.1c0.1,0,0.1-0.1,0.1-0.1       s0-0.1,0.1-0.1v-0.1l-0.1-0.1C346.7,467.7,346.6,467.7,346.6,467.7z M346.6,468.1L346.6,468.1l-0.2,0.1l-0.1-0.2l0.1-0.1h0.1       C346.6,467.9,346.6,467.9,346.6,468.1C346.6,468,346.6,468,346.6,468.1z"></path>
					
						<rect x="347.2" y="467.4" transform="matrix(0.894 -0.448 0.448 0.894 -172.7836 205.181)" class="st10" width="0.2" height="0.9"></rect>
					<path class="st10" d="M348,467.8C347.9,467.8,347.9,467.8,348,467.8c-0.1,0-0.1,0-0.1,0l-0.2,0.1c0,0.1,0.1,0.1,0.1,0.1       s0.1,0,0.2,0s0.1,0,0.2-0.1c0.1,0,0.1-0.1,0.1-0.1l0.1-0.1v-0.1l-0.1-0.1h-0.1h-0.1c-0.1,0-0.1,0-0.1,0h-0.1c0,0,0,0,0-0.1l0,0       h0.1c0,0,0,0,0.1,0l0.2-0.1c0-0.1-0.1-0.1-0.2-0.1s-0.2,0-0.2,0c-0.1,0-0.1,0.1-0.2,0.2s0,0.1,0,0.2l0.1,0.1h0.1h0.1h0.1       c0,0,0,0,0.1,0l0,0C348,467.7,348,467.7,348,467.8C348,467.7,348,467.8,348,467.8z"></path>
					<polygon class="st10" points="348,466.9 348.4,467.7 348.9,467.5 348.8,467.3 348.6,467.5 348.2,466.8      "></polygon>
					<path class="st10" d="M348.9,467.5l0.2-0.1v-0.2l0.3-0.1l0.1,0.1l0.2-0.1l-0.7-0.6l-0.2,0.1L348.9,467.5z M349,466.7l0.2,0.2       L349,467V466.7z"></path>
					<polygon class="st10" points="350.7,466.6 350.3,465.8 350.1,465.9 350.1,466.6 349.7,466.1 349.4,466.2 349.8,467 350,466.9        349.8,466.5 350.2,466.8 350.3,466.8 350.3,466.2 350.5,466.7      "></polygon>
					<polygon class="st10" points="351.5,466.2 351.1,465.6 351.4,465.5 351.3,465.3 350.7,465.6 350.7,465.8 351,465.7        351.3,466.3      "></polygon>
					<polygon class="st10" points="352.2,465.6 351.9,465.8 351.8,465.6 352.1,465.5 352,465.3 351.7,465.5 351.6,465.3        351.9,465.2 351.9,465 351.4,465.3 351.8,466 352.3,465.8      "></polygon>
					<path class="st10" d="M352.4,465.3L352.4,465.3l0.4,0.2l0.2-0.1l-0.3-0.2c0,0,0.1-0.1,0.1-0.2s0-0.1,0-0.2l-0.1-0.1h-0.1       c-0.1,0-0.1,0-0.2,0L352,465l0.4,0.8l0.2-0.1L352.4,465.3z M352.3,465l0.1-0.1h0.1c0,0,0,0,0.1,0.1v0.1c0,0,0,0-0.1,0.1       l-0.1,0.1L352.3,465z"></path>
					<path class="st10" d="M353.2,465l0.1-0.1c0.1,0,0.1-0.1,0.1-0.1s0-0.1,0.1-0.1v-0.1l-0.1-0.1h-0.1c-0.1,0-0.1,0-0.2,0l-0.3,0.2       l0.4,0.8l0.2-0.1L353.2,465z M353,464.6l0.1-0.1h0.1c0,0,0,0,0.1,0.1v0.1c0,0,0,0-0.1,0.1l-0.1,0.1L353,464.6z"></path>
					<path class="st10" d="M354,464.8l0.3-0.1l0.1,0.1l0.2-0.1l-0.7-0.6l-0.2,0.1l0.1,0.9l0.2-0.1V464.8z M353.9,464.3l0.2,0.2       l-0.2,0.1V464.3z"></path>
					<path class="st10" d="M355.2,464.3c0-0.1,0.1-0.1,0.1-0.2s0-0.2-0.1-0.2c0-0.1-0.1-0.1-0.2-0.2c-0.1,0-0.1-0.1-0.2-0.1       s-0.2,0-0.2,0.1l-0.3,0.1l0.4,0.8l0.3-0.1C355,464.4,355.1,464.3,355.2,464.3z M354.8,464.3l-0.2-0.5h0.1c0.1,0,0.1,0,0.2,0       s0.1,0.1,0.1,0.1s0,0.1,0,0.2S354.9,464.2,354.8,464.3L354.8,464.3z"></path>
					<path class="st10" d="M355.6,464.1c0.1,0,0.1,0,0.2,0s0.1-0.1,0.2-0.1c0-0.1,0.1-0.1,0.1-0.2s0-0.1,0-0.2l-0.2-0.5l-0.2,0.1       l0.2,0.5v0.1c0,0,0,0.1-0.1,0.1h-0.1c0,0-0.1,0-0.1-0.1l-0.2-0.5l-0.2,0.1l0.2,0.5c0,0.1,0.1,0.1,0.1,0.2H355.6z"></path>
					<path class="st10" d="M342.6,464c0.8,1.6,2.8,2.3,4.5,1.5s2.4-2.8,1.5-4.5c0-0.1-0.1-0.2-0.1-0.2c0.7,1.6-0.1,3.5-1.7,4.3       s-3.5,0.3-4.4-1.2C342.5,463.9,342.6,464,342.6,464z"></path>
					<path class="st10" d="M346.7,464.7c1.7-0.8,2.4-2.8,1.5-4.5c0-0.1-0.1-0.2-0.1-0.2c0.6,1.6-0.1,3.5-1.7,4.2       c-1.6,0.8-3.5,0.3-4.4-1.2c0,0.1,0.1,0.2,0.1,0.2C343,464.9,345,465.6,346.7,464.7z"></path>
					<path class="st10" d="M348.9,461.5c0.6,1.6-0.1,3.5-1.7,4.2c-1.6,0.8-3.5,0.3-4.4-1.2c0,0.1,0.1,0.2,0.1,0.2       c0.8,1.6,2.8,2.3,4.5,1.5s2.4-2.8,1.5-4.5C349,461.7,349,461.6,348.9,461.5z"></path>
					<path class="st10" d="M345.9,464.2c-0.5-0.5-1.3-1-2-1.3c0.7,0.2,1.4,0.4,2.2,0.9c-0.2-0.3-0.6-1.1-0.6-1.2       c-1-1.6-2.2-1.8-4.1-0.9C342.7,464.2,344.2,464.6,345.9,464.2z"></path>
					<path class="st10" d="M345.8,462.5c0,0.1,0.4,0.9,0.6,1.2c0-1,0.3-1.6,0.6-2.3c-0.2,0.8-0.3,1.7-0.2,2.4c1.3-1.1,2-2.6,0.7-5.1       l0,0C345.7,459.6,345.1,460.8,345.8,462.5z"></path>
					<path class="st10" d="M345.3,461.9c-0.3-0.6-0.1-1.1,0-1.6c0-0.1,0-0.1,0.1-0.2l0,0c0-0.1,0-0.1,0.1-0.2       c0.1-0.2,0.1-0.3,0.2-0.4c0.1-0.4,0-0.5-0.3-0.6l0,0l-0.5-0.2l-1.3-0.4l-0.5,1.4c0,0.1-0.1,0.2,0,0.3c0,0.1,0.1,0.1,0.3,0.2       c0.5,0.1,1.2,0.3,1.4,0.4c0-0.1,0.2-0.7,0.4-1.1v-0.1c0-0.1,0.2-0.1,0.2,0.1c0,0,0,0,0,0.1c-0.2,0.5-0.5,1.2-0.3,1.6       c-0.3-0.5-1.3-0.6-1.8-0.8c-0.1,0-0.2-0.1-0.2-0.1l0,0c-0.1,0.3-0.1,0.5,0.3,0.7C343.8,460.9,344.8,461,345.3,461.9z        M344.4,459.2l-0.2,0.6l-0.6-0.2c-0.1,0-0.1,0-0.1-0.1v-0.1l0.2-0.6l0.6,0.2c0.1,0,0.1,0,0.1,0.1       C344.5,459.1,344.5,459.2,344.4,459.2z"></path>
					<path class="st10" d="M343,458.4C343.1,458.4,343.1,458.4,343,458.4l0.2-0.6l-0.5-0.2h-0.1c0,0,0,0-0.1,0.1l-0.2,0.5l0.5,0.2       C343,458.4,343,458.5,343,458.4z"></path>
					<path class="st10" d="M343.9,458L343.9,458l0.2-0.6l-0.5-0.2h-0.1c0,0,0,0-0.1,0.1l-0.2,0.5l0.5,0.2       C343.8,458,343.9,458,343.9,458z"></path>
				</g>
			</g>
		</g>
	</g>
	<g>
		<polygon class="st21" points="644.8,516.8 781.9,547.2 696.2,600.3   "></polygon>
		<polygon class="st22" points="427,600.1 291.9,569.7 376.3,516.6   "></polygon>
		<polygon class="st23" points="559.5,614.3 482.8,573.2 508.8,530.8   "></polygon>
		<path class="st24" d="M288.7,651.1c9,23.7,32.5,39.4,58.8,39.4h379.6c12.5,0,23.2-5.4,30.4-15.2c7.1-9.8,8.7-21.3,4.5-32.6    L732.2,565H314.1c-28.3,0-48,27-38.2,52.4L288.7,651.1z"></path>
		<polygon class="st25" points="392.2,529.8 413.3,574.4 741.6,572.2 786.9,544   "></polygon>
		<path class="st26" d="M780.5,489c-8.1-20.9-29.1-34.9-52.6-34.9H388.6c-11.2,0-20.7,4.8-27.1,13.4c-6.4,8.7-7.8,18.9-4,28.8    l26.6,68.8h373.8c25.3,0,42.9-23.9,34.2-46.4L780.5,489z"></path>
	</g>
	<g>
		<polygon class="st21" points="645.6,516.6 782.6,547 696.9,600.1   "></polygon>
		<polygon class="st27" points="427.7,599.9 292.6,569.5 377.1,516.4   "></polygon>
		<polygon class="st23" points="560.2,614.1 483.5,573 509.6,530.6   "></polygon>
		<path class="st28" d="M289.4,650.9c9,23.7,32.5,39.4,58.8,39.4h379.6c12.5,0,23.2-5.4,30.4-15.2c7.1-9.8,8.7-21.3,4.5-32.6    L733,564.8H314.8c-28.3,0-48,27-38.2,52.4L289.4,650.9z"></path>
		<polygon class="st25" points="392.9,529.6 414,574.2 742.3,572.1 787.6,543.8   "></polygon>
		<path class="st29" d="M781.2,488.8c-8.1-20.9-29.1-34.9-52.6-34.9H389.3c-11.2,0-20.7,4.8-27.1,13.4c-6.4,8.7-7.8,18.9-4,28.8    l26.6,68.8h373.8c25.3,0,42.9-23.9,34.2-46.4L781.2,488.8z"></path>
	</g>
	<g>
		<path class="st2" d="M771.2,473.8c0,0,12.7-1.7,15.2,0.6c2.5,2.3,2.4,5.9,2.4,5.9s2.9,2.3,3.6,5.1c0.7,2.8-0.1,3.4-0.1,3.4    s3,0.1,3.7,3.5s-0.4,5.4-0.4,5.4s3.1,3,2.9,6.6c-0.2,3.6,1.1,7.1-1.8,8.9c-2.9,1.9-19.1,4.5-21.7,2c-2.6-2.5,1.1-6.4,1.1-6.4    s-10.4,2-11.8-1.2c-1.4-3.2,1.4-6,1.4-6s-3.4,0.1-2.6-3.7c0.9-3.8,6-4.4,7.9-5.1c0,0-2.3-3.7,1.7-5.5l4.1-2.2L771.2,473.8z"></path>
		<g>
			<path class="st1" d="M788.7,481.2c0,0,0.1,0.4,0.1,1s0,1.6,0,2.7c0,0.6,0,1.2-0.1,1.9c-0.1,0.3,0,0.7-0.3,1.1s-0.6,0.5-0.9,0.8     c-1.3,0.8-2.7,1.6-4.3,2.4c-1.5,0.8-3,1.5-4.4,2.1c-1.5,0.5-2.9,0.4-4,0.3s-2-0.3-2.7-0.4c-0.6-0.1-1-0.3-0.9-0.3     c0,0,0.4,0,1,0.1s1.5,0.2,2.7,0.2c1.1,0,2.5,0.1,3.8-0.4c1.4-0.6,2.8-1.3,4.4-2.1c1.5-0.8,3-1.6,4.2-2.4c0.3-0.2,0.6-0.4,0.8-0.6     c0.1-0.2,0.2-0.6,0.2-0.9c0.1-0.7,0.1-1.3,0.2-1.8C788.5,482.6,788.6,481.2,788.7,481.2z"></path>
		</g>
		<g>
			<path class="st1" d="M780.8,477.5c0.1,0.1-1.3,1.7-1.7,4.1c-0.1,0.5-0.1,1-0.1,1.5v0.2l-0.1,0.1c-1.6,0.7-2.1,1.9-2.2,1.8     c0,0,0-0.3,0.3-0.8s0.9-1.1,1.7-1.5l-0.1,0.2c0-0.5,0-1,0.1-1.6c0.2-1.3,0.7-2.4,1.2-3.1C780.4,477.8,780.8,477.5,780.8,477.5z"></path>
		</g>
		<g>
			<path class="st1" d="M775.9,475.3c0.1,0-0.2,0.4-0.5,1.1s-0.6,1.6-0.5,2.7c0,1.1,0.4,2.1,0.7,2.7s0.6,1,0.6,1.1     c0,0-0.4-0.2-0.9-0.9c-0.4-0.6-0.9-1.7-0.9-2.9c0-1.2,0.3-2.3,0.7-2.9C775.5,475.6,775.9,475.2,775.9,475.3z"></path>
		</g>
		<g>
			<path class="st1" d="M792.5,488.9c0,0,0,0.5-0.1,1.3s-0.2,2.1-0.7,3.5s-1.5,3.2-3.3,4.2s-4.1,1.3-6.3,1.7     c-4.6,0.8-8.7,1.3-11.7,1.7c-1.5,0.2-2.7,0.3-3.6,0.4c-0.8,0.1-1.3,0.1-1.3,0.1s0.5-0.1,1.3-0.3c0.9-0.1,2.1-0.3,3.5-0.5     c3-0.4,7.1-1,11.7-1.8c2.3-0.4,4.5-0.7,6.2-1.6s2.7-2.5,3.2-3.9s0.7-2.6,0.9-3.4C792.3,489.3,792.4,488.9,792.5,488.9z"></path>
		</g>
		<g>
			<path class="st1" d="M796.2,497.6c0,0,0,0.3-0.1,0.9s-0.3,1.5-0.7,2.5s-0.9,2.3-1.9,3.4s-2.4,2-4,2.6s-3.2,0.8-4.6,0.9     c-1.4,0.1-2.7,0.2-3.8,0.2c-2.2,0.1-3.5,0.4-3.5,0.3c0,0,0.3-0.1,0.9-0.3c0.6-0.1,1.5-0.3,2.6-0.4c2.2-0.3,5.2-0.2,8.3-1.3     c1.5-0.5,2.9-1.4,3.8-2.4c1-1,1.5-2.2,1.9-3.2C795.9,498.9,796.1,497.6,796.2,497.6z"></path>
		</g>
	</g>
	<g>
		<path class="st2" d="M742.3,616.6c0,0-2.2-3.5,2.1-5.2c4.4-1.8,12.9-4.7,15.6-4.9c2.7-0.3,16.7,3.3,16.7,3.3s4.9,1.5,4.9,5.2    l-0.9,3.5c0,0,2,2.2,1.8,4.9s-1.6,4.7-1.6,4.7l-0.6,11.9c0,0-0.5,8.6-3.7,12s-8.3,2.6-8.3,2.6l-0.9,0.4c0,0-6.1-4.8-4.4-10.9    l-6.9-4.9c0,0-14.6-2.1-15.4-6.2l0.3-2.1c0,0-5.4-0.9-5.4-4.8v-2c0,0-1.8-1.7-0.7-4s2.1-3,4.6-3.1S742.3,616.6,742.3,616.6z"></path>
		<g>
			<path class="st1" d="M767.7,633.6c0,0.1-1.5,0-3.9-0.4c-1.2-0.2-2.6-0.5-4.2-0.9c-0.8-0.2-1.6-0.3-2.5-0.4     c-0.8-0.1-1.8-0.1-2.7-0.2c-3.7-0.2-7.1-0.5-9.5-0.7c-1.1-0.1-2.1-0.2-2.9-0.3c-0.7-0.1-1.1-0.1-1.1-0.2c0,0,0.4,0,1.1,0     c0.8,0,1.7,0.1,2.9,0.1c2.4,0.1,5.8,0.3,9.5,0.6c0.9,0.1,1.8,0.1,2.7,0.2c0.9,0.1,1.7,0.3,2.5,0.5c1.5,0.4,3,0.7,4.2,1     s2.2,0.5,2.8,0.6C767.3,633.5,767.7,633.5,767.7,633.6z"></path>
		</g>
		<g>
			<path class="st1" d="M769.6,625.3c0,0-0.5,0.1-1.3,0c-0.9,0-2.1-0.1-3.7-0.2c-1.5-0.1-3.4-0.3-5.4-0.5c-1-0.1-2.1-0.2-3.2-0.3     c-1.1-0.1-2.2-0.1-3.4-0.1c-4.7-0.1-9,0-12.1,0c-1.5,0-2.7,0-3.7,0c-0.9,0-1.3,0-1.3-0.1c0,0,0.5-0.1,1.3-0.1     c0.9,0,2.1-0.1,3.7-0.1c3.1-0.1,7.4-0.2,12.1-0.1c1.2,0,2.3,0,3.5,0.2c1.1,0.1,2.2,0.2,3.2,0.4c2,0.2,3.8,0.4,5.4,0.6     c1.5,0.2,2.7,0.3,3.6,0.4C769.1,625.3,769.6,625.3,769.6,625.3z"></path>
		</g>
		<g>
			<path class="st1" d="M772.3,616.3c0,0-0.4,0.2-1.2,0.2s-1.9,0-3.2-0.1c-1.4-0.1-3-0.3-4.7-0.6c-1.8-0.2-3.8-0.4-5.8-0.4     c-1,0-2,0.2-3,0.3s-1.9,0.2-2.8,0.3c-1.8,0.2-3.4,0.3-4.8,0.3c-1.4,0.1-2.5,0.1-3.2,0.1c-0.8,0-1.2,0-1.2,0s0.4-0.1,1.2-0.2     c0.9-0.1,1.9-0.2,3.2-0.3c1.4-0.1,3-0.3,4.8-0.5c0.9-0.1,1.8-0.2,2.8-0.3c1-0.2,2-0.3,3-0.4c2.1-0.1,4.1,0.2,5.9,0.4     c1.8,0.2,3.4,0.5,4.7,0.7s2.4,0.3,3.2,0.3C771.8,616.4,772.2,616.3,772.3,616.3z"></path>
		</g>
	</g>
	<g>
		<path class="st16" d="M325.9,569.7c0,0,4.8,1.5,4.6-2.9c-0.2-4.4-0.8-5.3-5.9-11.1s-9.5-8.6-12.5-7.4c-3.1,1.2-3.6,4-3.6,4    s-3.4-2.4-7.8,0.6l-3.1,4.5c0,0-4.6-0.3-6.6,2.4c-1.9,2.7-1.7,5.5-1.7,5.5s-6.9,1.9-8.7,5.8c-1.8,3.9-4.1,13.9-4.1,13.9l16.3-10.9    c0,0,15.6,8.3,19.7,6.4c4-1.9,4.2-3.8,4.2-3.8s4.7,1.5,5-3C321.5,573.6,326.2,574.6,325.9,569.7z"></path>
		<g>
			<path class="st30" d="M316.3,576.3c0,0.1-1.5-0.7-3.9-2.1c-2.4-1.3-5.7-3.2-9.4-5.1c-1.8-1-3.6-1.9-5.2-2.6     c-1.6-0.7-3.1-1.1-4.4-1.3s-2.3-0.2-3-0.1c-0.7,0.1-1,0.2-1.1,0.1c-0.1-0.1,1.4-0.8,4-0.5c1.3,0.1,2.9,0.5,4.5,1.2     c1.7,0.7,3.4,1.6,5.3,2.5c3.7,2,7,3.9,9.3,5.3C314.9,575.3,316.3,576.2,316.3,576.3z"></path>
		</g>
		<g>
			<path class="st30" d="M321.5,573.6c0,0-0.4-0.3-1.1-0.8c-0.8-0.6-1.7-1.4-2.8-2.3c-2.3-1.9-5.5-4.6-9.2-7.4     c-1.8-1.4-3.6-2.7-5.2-3.6c-1.6-1-3.3-1.3-4.6-1.6c-1.3-0.2-2.4-0.2-3.2-0.2c-0.7,0.1-1.1,0.2-1.1,0.1c-0.1-0.1,1.5-0.8,4.3-0.4     c1.4,0.2,3.1,0.5,4.8,1.5c1.7,1,3.5,2.2,5.4,3.6c3.7,2.8,6.8,5.6,9.1,7.6c1.1,1,2,1.9,2.6,2.5     C321.2,573.3,321.6,573.6,321.5,573.6z"></path>
		</g>
		<g>
			<path class="st30" d="M326.3,569.8c-0.1,0.1-1.1-1-2.7-2.6c-1.6-1.7-3.8-4-6.3-6.5s-4.8-4.7-6.5-6.2s-2.9-2.2-2.9-2.3     c0,0,0.3,0.1,0.9,0.4c0.5,0.3,1.3,0.8,2.2,1.5c1.8,1.4,4.2,3.6,6.6,6.1c2.5,2.5,4.6,4.9,6.2,6.6     C325.5,568.6,326.4,569.8,326.3,569.8z"></path>
		</g>
	</g>
</g>
<g id="Daftar_PPDB">
	<g class="st31">
		<path class="st32" d="M371.1,647.3h-6.7v-17.6h6.7v-44.9H402c17.3,0,31.3,14,31.3,31.3s-14,31.3-31.3,31.3h-13.2v21.4h-17.6V647.3    z M402,629.6c7.6,0,13.8-6.1,13.8-13.6s-6.2-13.8-13.8-13.8h-13.2v27.4H402z"></path>
		<path class="st32" d="M458.4,647.3h-6.7v-17.6h6.7v-44.9h30.9c17.3,0,31.3,14,31.3,31.3s-14,31.3-31.3,31.3H476v21.4h-17.6V647.3z     M489.2,629.6c7.6,0,13.8-6.1,13.8-13.6s-6.2-13.8-13.8-13.8H476v27.4H489.2z"></path>
		<path class="st32" d="M541,584.7h27.7c23.2,0,42,18.8,42,42s-18.8,42-42,42H541V584.7z M568.7,651.1c13.5,0,24.5-10.9,24.5-24.4    c0-13.5-10.9-24.5-24.5-24.5h-10.1v48.8H568.7z"></path>
		<path class="st32" d="M633.3,584.7H661c13.2,0,23.9,10.7,23.9,23.9c0,4-0.9,7.8-2.7,11c7.2,4.7,12,12.9,12,22.3    c0,14.8-12,26.8-26.8,26.8h-34.1V584.7z M661,615c3.6,0,6.4-2.8,6.4-6.4c0-3.6-2.8-6.4-6.4-6.4h-10.1V615H661z M667.4,651.1    c5,0,9.2-4.1,9.2-9.1c0-5.1-4.2-9.2-9.2-9.2h-16.5v18.4H667.4z"></path>
	</g>
	<g class="st31">
		<path class="st32" d="M419.4,478.6h19.8c16.6,0,30,13.4,30,30s-13.4,30-30,30h-19.8V478.6z M439.2,526c9.7,0,17.5-7.8,17.5-17.4    c0-9.7-7.8-17.5-17.5-17.5H432V526H439.2z"></path>
		<path class="st32" d="M495.8,478.6h9.7l26.5,60h-13.7l-5.2-11.7h-24.8l-5.2,11.7h-13.7L495.8,478.6z M507.5,514.3l-6.8-15.6    l-6.9,15.6H507.5z"></path>
		<path class="st32" d="M537.9,478.6h37.2v12.5h-24.6V502h12.3v12.6h-12.3v24.1h-12.6V478.6z"></path>
		<path class="st32" d="M596.6,491.2h-16.2v-12.5h45v12.5h-16.2v47.5h-12.6V491.2z"></path>
		<path class="st32" d="M645.5,478.6h9.7l26.5,60H668l-5.2-11.7H638l-5.2,11.7h-13.7L645.5,478.6z M657.2,514.3l-6.8-15.6l-6.9,15.6    H657.2z"></path>
		<path class="st32" d="M689.5,523.3h-4.8v-12.6h4.8v-32.1h22c12.4,0,22.3,10,22.3,22.3c0,8.5-4.7,15.8-11.7,19.6l10.6,18.1h-14.5    l-9.1-15.3h-7.2v15.3h-12.6V523.3z M711.5,510.7c5.4,0,9.8-4.4,9.8-9.8s-4.4-9.8-9.8-9.8h-9.4v19.6H711.5z"></path>
	</g>
</g>
</svg>
