<svg xmlns="http://www.w3.org/2000/svg" fill="none" viewBox="0.71 0.03 641.87 53.82"><path d="M268.157 0.0341797C268.157 17.4167 279.713 24.3341 292.641 26.9418L292.607 25.1336C292.587 22.9164 292.563 17.3732 292.521 16.8673C291.486 4.84441 283.687 0.0341797 268.16 0.0341797H268.157Z" fill="#FD7818"></path><path d="M321.647 0.0341797C321.647 17.4167 310.091 24.3341 297.163 26.9418L297.197 25.1336C297.216 22.9164 297.242 17.3732 297.284 16.8673C298.319 4.84441 306.117 0.0341797 321.644 0.0341797H321.647Z" fill="#9E236F"></path><path d="M268.157 53.8497C268.157 36.4672 279.713 29.5496 292.641 26.9419L292.607 28.7501C292.587 30.9672 292.563 36.5105 292.521 37.0164C291.486 49.0393 283.687 53.8497 268.16 53.8497H268.157Z" fill="#FD7818"></path><path d="M321.647 53.8497C321.647 36.4672 310.091 29.5496 297.163 26.9419L297.197 28.7501C297.216 30.9672 297.242 36.5105 297.284 37.0164C298.319 49.0393 306.117 53.8497 321.644 53.8497H321.647Z" fill="#9E236F"></path><path d="M214.668 0.0341797C214.668 17.4167 226.223 24.3341 239.152 26.9418L239.117 25.1336C239.098 22.9164 239.073 17.3732 239.031 16.8673C237.996 4.84441 230.197 0.0341797 214.67 0.0341797H214.668Z" fill="#FD7818"></path><path d="M268.157 0.0341797C268.157 17.4167 256.602 24.3341 243.673 26.9418L243.708 25.1336C243.727 22.9164 243.752 17.3732 243.794 16.8673C244.829 4.84441 252.628 0.0341797 268.155 0.0341797H268.157Z" fill="#9E236F"></path><path d="M214.668 53.8497C214.668 36.4672 226.223 29.5496 239.152 26.9419L239.117 28.7501C239.098 30.9672 239.073 36.5105 239.031 37.0164C237.996 49.0393 230.197 53.8497 214.67 53.8497H214.668Z" fill="#FD7818"></path><path d="M268.157 53.8497C268.157 36.4672 256.602 29.5496 243.673 26.9419L243.708 28.7501C243.727 30.9672 243.752 36.5105 243.794 37.0164C244.829 49.0393 252.628 53.8497 268.155 53.8497H268.157Z" fill="#9E236F"></path><path d="M161.179 0.0341797C161.179 17.4167 172.735 24.3341 185.663 26.9418L185.629 25.1336C185.61 22.9164 185.585 17.3732 185.543 16.8673C184.508 4.84441 176.709 0.0341797 161.182 0.0341797H161.179Z" fill="#FD7818"></path><path d="M214.668 0.0341797C214.668 17.4167 203.112 24.3341 190.184 26.9418L190.219 25.1336C190.238 22.9164 190.263 17.3732 190.305 16.8673C191.34 4.84441 199.138 0.0341797 214.665 0.0341797H214.668Z" fill="#9E236F"></path><path d="M161.179 53.8497C161.179 36.4672 172.735 29.5496 185.663 26.9419L185.629 28.7501C185.61 30.9672 185.585 36.5105 185.543 37.0164C184.508 49.0393 176.709 53.8497 161.182 53.8497H161.179Z" fill="#FD7818"></path><path d="M214.668 53.8497C214.668 36.4672 203.112 29.5496 190.184 26.9419L190.219 28.7501C190.238 30.9672 190.263 36.5105 190.305 37.0164C191.34 49.0393 199.138 53.8497 214.665 53.8497H214.668Z" fill="#9E236F"></path><path d="M107.69 0.0341797C107.69 17.4167 119.246 24.3341 132.174 26.9418L132.139 25.1336C132.12 22.9164 132.095 17.3732 132.053 16.8673C131.018 4.84441 123.22 0.0341797 107.693 0.0341797H107.69Z" fill="#FD7818"></path><path d="M161.179 0.0341797C161.179 17.4167 149.624 24.3341 136.695 26.9418L136.73 25.1336C136.749 22.9164 136.774 17.3732 136.816 16.8673C137.851 4.84441 145.65 0.0341797 161.177 0.0341797H161.179Z" fill="#9E236F"></path><path d="M107.69 53.8497C107.69 36.4672 119.246 29.5496 132.174 26.9419L132.139 28.7501C132.12 30.9672 132.095 36.5105 132.053 37.0164C131.018 49.0393 123.22 53.8497 107.693 53.8497H107.69Z" fill="#FD7818"></path><path d="M161.179 53.8497C161.179 36.4672 149.624 29.5496 136.695 26.9419L136.73 28.7501C136.749 30.9672 136.774 36.5105 136.816 37.0164C137.851 49.0393 145.65 53.8497 161.177 53.8497H161.179Z" fill="#9E236F"></path><path d="M54.2017 0.0341797C54.2017 17.4167 65.7575 24.3341 78.6857 26.9418L78.6511 25.1336C78.6319 22.9164 78.6072 17.3732 78.565 16.8673C77.5302 4.84441 69.7315 0.0341797 54.2045 0.0341797H54.2017Z" fill="#FD7818"></path><path d="M107.691 0.0341797C107.691 17.4167 96.1344 24.3341 83.2063 26.9418L83.2409 25.1336C83.2601 22.9164 83.2848 17.3732 83.327 16.8673C84.3617 4.84441 92.1605 0.0341797 107.688 0.0341797H107.691Z" fill="#9E236F"></path><path d="M54.2017 53.8497C54.2017 36.4672 65.7575 29.5496 78.6857 26.9419L78.6511 28.7501C78.6319 30.9672 78.6072 36.5105 78.565 37.0164C77.5302 49.0393 69.7315 53.8497 54.2045 53.8497H54.2017Z" fill="#FD7818"></path><path d="M107.691 53.8497C107.691 36.4672 96.1344 29.5496 83.2063 26.9419L83.2409 28.7501C83.2601 30.9672 83.2848 36.5105 83.327 37.0164C84.3617 49.0393 92.1605 53.8497 107.688 53.8497H107.691Z" fill="#9E236F"></path><path d="M0.711914 0.0341797C0.711914 17.4167 12.2678 24.3341 25.1959 26.9418L25.1613 25.1336C25.1422 22.9164 25.1174 17.3732 25.0753 16.8673C24.0405 4.84441 16.2418 0.0341797 0.714721 0.0341797H0.711914Z" fill="#FD7818"></path><path d="M54.2015 0.0341797C54.2015 17.4167 42.6452 24.3341 29.717 26.9418L29.7517 25.1336C29.7708 22.9164 29.796 17.3732 29.8382 16.8673C30.873 4.84441 38.6717 0.0341797 54.1987 0.0341797H54.2015Z" fill="#9E236F"></path><path d="M0.711914 53.8497C0.711914 36.4672 12.2678 29.5496 25.1959 26.9419L25.1613 28.7501C25.1422 30.9672 25.1174 36.5105 25.0753 37.0164C24.0405 49.0393 16.2418 53.8497 0.714721 53.8497H0.711914Z" fill="#FD7818"></path><path d="M54.2015 53.8497C54.2015 36.4672 42.6452 29.5496 29.717 26.9419L29.7517 28.7501C29.7708 30.9672 29.796 36.5105 29.8382 37.0164C30.873 49.0393 38.6717 53.8497 54.1987 53.8497H54.2015Z" fill="#9E236F"></path><path d="M589.093 0.0341797C589.093 17.4167 600.649 24.3341 613.577 26.9418L613.542 25.1336C613.523 22.9164 613.499 17.3732 613.456 16.8673C612.422 4.84441 604.623 0.0341797 589.096 0.0341797H589.093Z" fill="#FD7818"></path><path d="M642.582 0.0341797C642.582 17.4167 631.027 24.3341 618.098 26.9418L618.133 25.1336C618.152 22.9164 618.177 17.3732 618.219 16.8673C619.254 4.84441 627.053 0.0341797 642.58 0.0341797H642.582Z" fill="#9E236F"></path><path d="M589.093 53.8497C589.093 36.4672 600.649 29.5496 613.577 26.9419L613.542 28.7501C613.523 30.9672 613.499 36.5105 613.456 37.0164C612.422 49.0393 604.623 53.8497 589.096 53.8497H589.093Z" fill="#FD7818"></path><path d="M642.582 53.8497C642.582 36.4672 631.027 29.5496 618.098 26.9419L618.133 28.7501C618.152 30.9672 618.177 36.5105 618.219 37.0164C619.254 49.0393 627.053 53.8497 642.58 53.8497H642.582Z" fill="#9E236F"></path><path d="M535.604 0.0341797C535.604 17.4167 547.16 24.3341 560.088 26.9418L560.054 25.1336C560.035 22.9164 560.009 17.3732 559.967 16.8673C558.932 4.84441 551.134 0.0341797 535.607 0.0341797H535.604Z" fill="#FD7818"></path><path d="M589.093 0.0341797C589.093 17.4167 577.537 24.3341 564.609 26.9418L564.643 25.1336C564.663 22.9164 564.688 17.3732 564.73 16.8673C565.765 4.84441 573.563 0.0341797 589.09 0.0341797H589.093Z" fill="#9E236F"></path><path d="M535.604 53.8497C535.604 36.4672 547.16 29.5496 560.088 26.9419L560.054 28.7501C560.035 30.9672 560.009 36.5105 559.967 37.0164C558.932 49.0393 551.134 53.8497 535.607 53.8497H535.604Z" fill="#FD7818"></path><path d="M589.093 53.8497C589.093 36.4672 577.537 29.5496 564.609 26.9419L564.643 28.7501C564.663 30.9672 564.688 36.5105 564.73 37.0164C565.765 49.0393 573.563 53.8497 589.09 53.8497H589.093Z" fill="#9E236F"></path><path d="M482.114 0.0341797C482.114 17.4167 493.67 24.3341 506.599 26.9418L506.564 25.1336C506.545 22.9164 506.52 17.3732 506.478 16.8673C505.443 4.84441 497.644 0.0341797 482.117 0.0341797H482.114Z" fill="#FD7818"></path><path d="M535.604 0.0341797C535.604 17.4167 524.048 24.3341 511.12 26.9418L511.155 25.1336C511.174 22.9164 511.199 17.3732 511.241 16.8673C512.275 4.84441 520.074 0.0341797 535.601 0.0341797H535.604Z" fill="#9E236F"></path><path d="M482.114 53.8497C482.114 36.4672 493.67 29.5496 506.599 26.9419L506.564 28.7501C506.545 30.9672 506.52 36.5105 506.478 37.0164C505.443 49.0393 497.644 53.8497 482.117 53.8497H482.114Z" fill="#FD7818"></path><path d="M535.604 53.8497C535.604 36.4672 524.048 29.5496 511.12 26.9419L511.155 28.7501C511.174 30.9672 511.199 36.5105 511.241 37.0164C512.275 49.0393 520.074 53.8497 535.601 53.8497H535.604Z" fill="#9E236F"></path><path d="M428.626 0.0341797C428.626 17.4167 440.182 24.3341 453.11 26.9418L453.075 25.1336C453.056 22.9164 453.031 17.3732 452.989 16.8673C451.954 4.84441 444.156 0.0341797 428.629 0.0341797H428.626Z" fill="#FD7818"></path><path d="M482.114 0.0341797C482.114 17.4167 470.558 24.3341 457.63 26.9418L457.665 25.1336C457.684 22.9164 457.709 17.3732 457.751 16.8673C458.786 4.84441 466.584 0.0341797 482.111 0.0341797H482.114Z" fill="#9E236F"></path><path d="M428.626 53.8497C428.626 36.4672 440.182 29.5496 453.11 26.9419L453.075 28.7501C453.056 30.9672 453.031 36.5105 452.989 37.0164C451.954 49.0393 444.156 53.8497 428.629 53.8497H428.626Z" fill="#FD7818"></path><path d="M482.114 53.8497C482.114 36.4672 470.558 29.5496 457.63 26.9419L457.665 28.7501C457.684 30.9672 457.709 36.5105 457.751 37.0164C458.786 49.0393 466.584 53.8497 482.111 53.8497H482.114Z" fill="#9E236F"></path><path d="M375.136 0.0341797C375.136 17.4167 386.692 24.3341 399.62 26.9418L399.586 25.1336C399.566 22.9164 399.542 17.3732 399.5 16.8673C398.465 4.84441 390.666 0.0341797 375.139 0.0341797H375.136Z" fill="#FD7818"></path><path d="M428.626 0.0341797C428.626 17.4167 417.07 24.3341 404.141 26.9418L404.176 25.1336C404.195 22.9164 404.22 17.3732 404.262 16.8673C405.297 4.84441 413.096 0.0341797 428.623 0.0341797H428.626Z" fill="#9E236F"></path><path d="M375.136 53.8497C375.136 36.4672 386.692 29.5496 399.62 26.9419L399.586 28.7501C399.566 30.9672 399.542 36.5105 399.5 37.0164C398.465 49.0393 390.666 53.8497 375.139 53.8497H375.136Z" fill="#FD7818"></path><path d="M428.626 53.8497C428.626 36.4672 417.07 29.5496 404.141 26.9419L404.176 28.7501C404.195 30.9672 404.22 36.5105 404.262 37.0164C405.297 49.0393 413.096 53.8497 428.623 53.8497H428.626Z" fill="#9E236F"></path><path d="M321.647 0.0341797C321.647 17.4167 333.203 24.3341 346.131 26.9418L346.097 25.1336C346.077 22.9164 346.053 17.3732 346.011 16.8673C344.976 4.84441 337.177 0.0341797 321.65 0.0341797H321.647Z" fill="#FD7818"></path><path d="M375.136 0.0341797C375.136 17.4167 363.58 24.3341 350.652 26.9418L350.686 25.1336C350.705 22.9164 350.731 17.3732 350.773 16.8673C351.808 4.84441 359.606 0.0341797 375.133 0.0341797H375.136Z" fill="#9E236F"></path><path d="M321.647 53.8497C321.647 36.4672 333.203 29.5496 346.131 26.9419L346.097 28.7501C346.077 30.9672 346.053 36.5105 346.011 37.0164C344.976 49.0393 337.177 53.8497 321.65 53.8497H321.647Z" fill="#FD7818"></path><path d="M375.136 53.8497C375.136 36.4672 363.58 29.5496 350.652 26.9419L350.686 28.7501C350.705 30.9672 350.731 36.5105 350.773 37.0164C351.808 49.0393 359.606 53.8497 375.133 53.8497H375.136Z" fill="#9E236F"></path></svg>