<svg xmlns="http://www.w3.org/2000/svg" xmlns:xlink="http://www.w3.org/1999/xlink" id="Layer_1" x="0px" y="0px" style="enable-background:new 0 0 500 500;" xml:space="preserve" viewBox="95.5 197.8 309 104.4"><style type="text/css">	.st0{fill:#FFFFFF;}</style><g>	<path class="st0" d="M200,262.8c5,0,9-4,9-9V241h-4.5v12.8c0,2.5-2,4.5-4.5,4.5s-4.5-2-4.5-4.5V241h-6.3v4.5h1.7v8.3   C191,258.8,195,262.8,200,262.8z M212,262.5h4.5v-12.7l5.4,8.4h2.9l5.4-8.4v12.7h4.5V241h-4l-7.4,11.3L216,241h-4V262.5L212,262.5z    M238.3,262.5h4.5v-12.7l5.4,8.4h2.9l5.5-8.4v12.7h4.5V241h-4l-7.4,11.3l-7.4-11.3h-4V262.5L238.3,262.5z M274.9,262.8c5,0,9-4,9-9   V241h-4.5v12.8c0,2.5-2,4.5-4.5,4.5s-4.5-2-4.5-4.5V241h-6.3v4.5h1.7v8.3C265.9,258.8,269.9,262.8,274.9,262.8z M290.3,241l-0.4,6   h-3.1l-0.4-6H290.3z M293.3,262.5h13.3V258h-8.7v-17h-4.5L293.3,262.5L293.3,262.5z M320.1,251.8c0-3.6,2.9-6.6,6.5-6.6   s6.5,2.9,6.5,6.6c0,0.9-0.3,1.9-0.7,2.6l-2.7-2.7l-3.2,3.2l2.8,2.9c-0.8,0.4-1.8,0.6-2.8,0.6C323,258.3,320.1,255.4,320.1,251.8z    M326.7,262.8c2.2,0,4.3-0.7,6.1-1.8l1.6,1.5h4.3V258h-2.5l-0.3-0.3c1.1-1.7,1.8-3.8,1.8-6c0-6.1-5-11.1-11-11.1s-11,5-11,11.1   C315.6,257.9,320.6,262.8,326.7,262.8z M350.6,262.8c5,0,9-4,9-9V241h-4.5v12.8c0,2.5-2,4.5-4.5,4.5s-4.5-2-4.5-4.5V241h-6.3v4.5   h1.7v8.3C341.6,258.8,345.7,262.8,350.6,262.8z M368.8,252.5v-7h3.4c1.9,0,3.5,1.6,3.5,3.5s-1.6,3.5-3.5,3.5H368.8L368.8,252.5z    M364.3,262.5h4.5V257h2.6l3.3,5.5h5.2L376,256c2.5-1.4,4.2-4,4.2-7c0-4.4-3.6-8-8-8h-7.9v11.5h-1.7v4.5h1.7L364.3,262.5   L364.3,262.5z M386.9,251.8c0-3.6,2.9-6.6,6.5-6.6s6.5,2.9,6.5,6.6s-2.9,6.5-6.5,6.5S386.9,255.4,386.9,251.8z M393.5,262.8   c6.1,0,11-5,11-11.1c0-6.1-5-11.1-11-11.1s-11,5-11,11.1C382.4,257.9,387.4,262.8,393.5,262.8z M193.8,289.1v-12.5h2.6   c3.5,0,6.3,2.8,6.3,6.3s-2.8,6.3-6.3,6.3L193.8,289.1L193.8,289.1z M189.3,293.7h7.1c6,0,10.8-4.8,10.8-10.8s-4.8-10.8-10.8-10.8   h-7.1V293.7z M210.4,293.7h13.4v-4.5H215V285h6.3v-4.5H215v-3.9h8.8v-4.5h-13.4V293.7z M232.3,283.6v-7h3.4c1.9,0,3.5,1.6,3.5,3.5   c0,1.9-1.6,3.5-3.5,3.5H232.3L232.3,283.6z M227.8,293.7h4.5v-5.5h3.4c4.4,0,8-3.6,8-8c0-4.4-3.6-8-8-8h-7.9v11.5H226v4.5h1.7   L227.8,293.7L227.8,293.7z M250.8,282.9c0-3.6,2.9-6.5,6.5-6.5s6.5,2.9,6.5,6.5c0,3.6-2.9,6.5-6.5,6.5   C253.8,289.4,250.8,286.5,250.8,282.9z M257.4,293.9c6.1,0,11-5,11-11.1c0-6.1-5-11-11-11s-11.1,5-11.1,11S251.3,293.9,257.4,293.9   z M272.4,293.7h4.5v-6.4l1.4-1.6l6.3,8h5.7l-9-11.4l9-10.1h-6l-7.4,8.4v-8.4h-6.3v4.5h1.7L272.4,293.7L272.4,293.7z"></path>	<path class="st0" d="M197.5,222.2v2h-2.8v8.4h-2.5v-8.4h-2.8v-2H197.5z M204.8,232.6l-3.5-4.6v4.6h-2.5v-10.4h2.5v4.6l3.5-4.6h3   l-4,5.1l4.2,5.3L204.8,232.6L204.8,232.6z M215.4,226.4v2.1h-6.5v-2.1H215.4z M221.4,232.7c-0.8,0-1.4-0.1-2-0.4   c-0.6-0.3-1.1-0.6-1.4-1.1c-0.4-0.5-0.5-1.1-0.6-1.8h2.7c0,0.4,0.2,0.7,0.4,0.9c0.2,0.2,0.5,0.3,0.9,0.3s0.7-0.1,0.9-0.3   c0.2-0.2,0.3-0.4,0.3-0.7s-0.1-0.5-0.3-0.6c-0.2-0.2-0.4-0.3-0.6-0.4c-0.3-0.1-0.6-0.2-1.1-0.4c-0.7-0.2-1.2-0.4-1.6-0.6   c-0.4-0.2-0.8-0.5-1.1-0.9c-0.3-0.4-0.5-0.9-0.5-1.6c0-1,0.4-1.7,1.1-2.3s1.6-0.8,2.7-0.8s2.1,0.3,2.8,0.8c0.7,0.5,1.1,1.3,1.1,2.3   h-2.7c0-0.3-0.1-0.6-0.4-0.8c-0.2-0.2-0.5-0.3-0.9-0.3c-0.3,0-0.6,0.1-0.7,0.3c-0.2,0.2-0.3,0.4-0.3,0.7s0.2,0.6,0.5,0.8   s0.8,0.4,1.5,0.6c0.7,0.2,1.2,0.4,1.6,0.6c0.4,0.2,0.8,0.5,1.1,0.9c0.3,0.4,0.5,0.9,0.5,1.5s-0.1,1.1-0.5,1.6   c-0.3,0.5-0.7,0.9-1.3,1.1C222.9,232.6,222.2,232.7,221.4,232.7z M230.5,230.4c1,0,1.7-0.3,2.2-0.8s0.8-1.3,0.8-2.2   s-0.3-1.7-0.8-2.2s-1.3-0.8-2.2-0.8h-1.2v6H230.5L230.5,230.4z M230.7,222.2c1.1,0,2.1,0.2,2.9,0.6c0.8,0.4,1.4,1,1.9,1.8   c0.4,0.8,0.7,1.7,0.7,2.7s-0.2,1.9-0.7,2.7c-0.4,0.8-1.1,1.4-1.9,1.8c-0.8,0.4-1.8,0.6-2.9,0.6h-3.9V222h3.9V222.2z M243.9,226.4   v2.1h-6.5v-2.1H243.9z M249.9,232.7c-0.8,0-1.4-0.1-2-0.4c-0.6-0.3-1.1-0.6-1.4-1.1c-0.4-0.5-0.5-1.1-0.6-1.8h2.7   c0,0.4,0.2,0.7,0.4,0.9c0.2,0.2,0.5,0.3,0.9,0.3s0.7-0.1,0.9-0.3c0.2-0.2,0.3-0.4,0.3-0.7s-0.1-0.5-0.3-0.6   c-0.2-0.2-0.4-0.3-0.6-0.4c-0.3-0.1-0.6-0.2-1.1-0.4c-0.7-0.2-1.2-0.4-1.6-0.6c-0.4-0.2-0.8-0.5-1.1-0.9c-0.3-0.4-0.5-0.9-0.5-1.6   c0-1,0.4-1.7,1.1-2.3s1.6-0.8,2.7-0.8s2.1,0.3,2.8,0.8c0.7,0.5,1.1,1.3,1.1,2.3h-2.7c0-0.3-0.1-0.6-0.4-0.8   c-0.2-0.2-0.5-0.3-0.9-0.3c-0.3,0-0.6,0.1-0.7,0.3c-0.2,0.2-0.3,0.4-0.3,0.7s0.2,0.6,0.5,0.8s0.8,0.4,1.5,0.6   c0.7,0.2,1.2,0.4,1.6,0.6c0.4,0.2,0.8,0.5,1.1,0.9c0.3,0.4,0.5,0.9,0.5,1.5s-0.1,1.1-0.5,1.6c-0.3,0.5-0.7,0.9-1.3,1.1   C251.3,232.6,250.6,232.7,249.9,232.7z M267,222.2v10.4h-2.5v-6.2l-2.3,6.2h-2l-2.3-6.3v6.3h-2.5v-10.4h3l2.9,7.2l2.9-7.2H267z    M272.7,226.9c0.5,0,0.8-0.1,1.1-0.3s0.4-0.6,0.4-1s-0.1-0.7-0.4-1c-0.2-0.2-0.6-0.3-1.1-0.3h-1.4v2.6H272.7z M276.7,225.6   c0,0.6-0.1,1.2-0.4,1.7s-0.7,0.9-1.3,1.2c-0.6,0.3-1.3,0.5-2.1,0.5h-1.6v3.7h-2.5v-10.4h4.1c0.8,0,1.5,0.1,2.1,0.4s1,0.7,1.3,1.2   C276.6,224.3,276.7,224.9,276.7,225.6z M283.7,222.2v10.4h-2.5v-10.4H283.7z M289.3,232.7c-0.8,0-1.4-0.1-2-0.4   c-0.6-0.3-1.1-0.6-1.5-1.1s-0.5-1.1-0.6-1.8h2.7c0,0.4,0.2,0.7,0.4,0.9c0.2,0.2,0.5,0.3,0.9,0.3s0.7-0.1,0.9-0.3   c0.2-0.2,0.3-0.4,0.3-0.7s-0.1-0.5-0.3-0.6c-0.2-0.2-0.4-0.3-0.6-0.4c-0.3-0.1-0.6-0.2-1.1-0.4c-0.7-0.2-1.2-0.4-1.6-0.6   c-0.4-0.2-0.8-0.5-1.1-0.9c-0.3-0.4-0.5-0.9-0.5-1.6c0-1,0.4-1.7,1-2.3c0.7-0.6,1.6-0.8,2.7-0.8s2.1,0.3,2.8,0.8   c0.7,0.5,1.1,1.3,1.1,2.3h-2.7c0-0.3-0.1-0.6-0.4-0.8c-0.2-0.2-0.5-0.3-0.9-0.3c-0.3,0-0.6,0.1-0.7,0.3c-0.2,0.2-0.3,0.4-0.3,0.7   s0.2,0.6,0.5,0.8c0.3,0.2,0.8,0.4,1.5,0.6c0.7,0.2,1.2,0.4,1.6,0.6c0.4,0.2,0.8,0.5,1.1,0.9c0.3,0.4,0.5,0.9,0.5,1.5   s-0.1,1.1-0.5,1.6c-0.3,0.5-0.7,0.9-1.3,1.1C290.8,232.6,290.1,232.7,289.3,232.7z M297.2,230.7h3.3v1.9h-5.9v-10.4h2.5   L297.2,230.7L297.2,230.7z M307.5,228.8l-1.3-3.8l-1.3,3.8H307.5z M308.2,230.8h-3.9l-0.6,1.8H301l3.8-10.4h2.9l3.8,10.4h-2.7   L308.2,230.8z M324.4,222.2v10.4h-2.5v-6.2l-2.3,6.2h-2l-2.3-6.3v6.3h-2.5v-10.4h3l2.9,7.2l2.9-7.2H324.4z M336.8,222.2v2H334v8.4   h-2.5v-8.4h-2.8v-2H336.8z M340.6,224.3v2.1h3.4v1.9h-3.4v2.3h3.8v2H338v-10.4h6.4v2L340.6,224.3L340.6,224.3z M348.6,226.9h1.6   c0.5,0,0.8-0.1,1-0.3c0.2-0.2,0.4-0.6,0.4-1s-0.1-0.7-0.4-0.9c-0.2-0.2-0.6-0.3-1-0.3h-1.6V226.9z M351.4,232.6l-2.2-3.9h-0.6v3.9   h-2.5v-10.4h4.3c0.8,0,1.5,0.1,2.1,0.4s1,0.7,1.3,1.2c0.3,0.5,0.4,1.1,0.4,1.7c0,0.7-0.2,1.3-0.6,1.9c-0.4,0.5-1,0.9-1.7,1.1   l2.4,4.1H351.4L351.4,232.6z M359.6,226.9c0.5,0,0.8-0.1,1.1-0.3c0.2-0.2,0.4-0.6,0.4-1s-0.1-0.7-0.4-1c-0.2-0.2-0.6-0.3-1.1-0.3   h-1.4v2.6H359.6z M363.7,225.6c0,0.6-0.1,1.2-0.4,1.7s-0.7,0.9-1.3,1.2s-1.3,0.5-2.1,0.5h-1.6v3.7h-2.5v-10.4h4.1   c0.8,0,1.5,0.1,2.1,0.4s1,0.7,1.3,1.2C363.5,224.3,363.7,224.9,363.7,225.6z M370.8,228.8l-1.3-3.8l-1.3,3.8H370.8z M371.5,230.8   h-3.9l-0.6,1.8h-2.6l3.8-10.4h2.9l3.8,10.4h-2.7L371.5,230.8z M379.6,230.4c1,0,1.7-0.3,2.2-0.8s0.8-1.3,0.8-2.2s-0.3-1.7-0.8-2.2   s-1.3-0.8-2.2-0.8h-1.2v6H379.6L379.6,230.4z M379.8,222.2c1.1,0,2,0.2,2.9,0.6s1.5,1,1.9,1.8c0.5,0.8,0.7,1.7,0.7,2.7   s-0.2,1.9-0.7,2.7c-0.4,0.8-1.1,1.4-1.9,1.8c-0.8,0.4-1.8,0.6-2.9,0.6h-3.9V222h3.9V222.2z M389.1,222.2v6.2c0,0.6,0.1,1.1,0.5,1.4   s0.8,0.5,1.4,0.5c0.6,0,1-0.2,1.4-0.5c0.3-0.3,0.5-0.8,0.5-1.4v-6.2h2.5v6.2c0,0.9-0.2,1.7-0.6,2.4c-0.4,0.6-0.9,1.1-1.6,1.4   c-0.7,0.3-1.4,0.5-2.2,0.5c-0.8,0-1.6-0.2-2.2-0.5c-0.6-0.3-1.1-0.8-1.5-1.4c-0.4-0.6-0.6-1.4-0.6-2.4v-6.2H389.1L389.1,222.2z"></path>	<path class="st0" d="M95.5,264.1c0,1,0,1.9,0,2.9c0,19.5,15.7,35.2,35.2,35.2S166,286.4,166,267c0-1,0-1.9,0-2.9   c-1.5,18.3-17,32.4-35.3,32.4C112.3,296.5,97,282.4,95.5,264.1z M95.5,255.1c0,0.9,0,1.8,0,2.8c0,19.5,15.7,35.2,35.2,35.2   s35.3-15.8,35.3-35.2c0-0.9,0-1.8,0-2.8c-1.4,18.3-16.9,32.5-35.3,32.5C112.3,287.6,96.9,273.5,95.5,255.1z M95.5,245.9   c0,0.9,0,1.9,0,2.8c0,19.5,15.7,35.2,35.2,35.2s35.3-15.8,35.3-35.2c0-0.9,0-1.9-0.1-2.8c-1.4,18.3-16.9,32.4-35.3,32.4   C112.3,278.3,97,264.2,95.5,245.9z"></path>	<path class="st0" d="M166,230.7c-21.4,0-32.2,8-33.6,28c-0.1,0.8-0.1,10.1-0.1,13.8c4.7-9.1,10.2-13.9,16.2-19.3   c-5.7,6.9-10.5,14.3-12.9,22C153.5,270.8,166,259.6,166,230.7z M95.5,230.7c0,28.9,12.6,40.1,30.4,44.4c-2.4-7.7-7.2-15-12.9-22   c6.1,5.4,11.6,10.1,16.2,19.3c0-3.7-0.1-12.9-0.1-13.8C127.7,238.7,116.9,230.7,95.5,230.7L95.5,230.7z"></path>	<path class="st0" d="M130.8,214.1l4.4,4.5c0.4,0.4,0.7,0.8,0.7,1.1s-0.3,0.7-0.7,1.1l-4.4,4.5l-4.5-4.5c-0.4-0.4-0.7-0.8-0.7-1.1   c0-0.4,0.3-0.7,0.7-1.1L130.8,214.1z M130.8,206.3l-10.7,10.6c-1,1-1.6,1.8-1.6,2.7s0.6,1.7,1.6,2.7c3.6,3.6,10.2,8.9,10.7,10.6   c0.4-1.4,5.1-5.4,8.7-8.8l0.8-0.8c1.1-1.1,2.3,0.5,1.4,1.4c-0.2,0.1-0.4,0.3-0.5,0.5c-4.4,3.9-10.2,9-10.4,13.6   c-0.2-5.6-8.8-11.9-12.9-16c-0.8-0.8-1.4-1.5-1.7-2.1l0,0c-2.4,2.4-3.2,4.7-0.4,7.5c5.2,5.2,14.6,11.1,15,22   c0.2-6.7,3.9-11.5,7.9-15.5c0.5-0.5,1.1-1.1,1.6-1.6c0.1-0.1,0.2-0.2,0.3-0.3c0.5-0.4,0.9-0.9,1.4-1.3c1.3-1.2,2.6-2.3,3.7-3.4   c2.8-2.8,2.1-5.1-0.4-7.5l0,0l0,0l-4.2-4.1L130.8,206.3z"></path>	<path class="st0" d="M130.8,202.3l-3.9-3.9c-0.4-0.4-0.7-0.6-1-0.6s-0.6,0.2-1,0.6l-3.9,3.9l3.9,3.9c0.4,0.4,0.7,0.6,1,0.6   s0.6-0.2,1-0.6L130.8,202.3z"></path>	<path class="st0" d="M140.6,202.3l-3.9-3.9c-0.4-0.4-0.7-0.6-1-0.6s-0.6,0.2-1,0.6l-3.9,3.9l3.9,3.9c0.4,0.4,0.7,0.6,1,0.6   s0.6-0.2,1-0.6L140.6,202.3z"></path></g></svg>