<svg xmlns="http://www.w3.org/2000/svg" xmlns:xlink="http://www.w3.org/1999/xlink" id="Layer_1" x="0px" y="0px" style="enable-background:new 0 0 500 500;" xml:space="preserve" viewBox="95.5 197.78 309 104.43"><style type="text/css">	.st0{fill:#5D3763;}	.st1{fill:#FD7818;}	.st2{fill:#9E236F;}</style><g>	<path class="st0" d="M199.99,262.81c4.99,0,9.01-4.05,9.01-9.01v-12.83h-4.5v12.83c0,2.48-2.02,4.48-4.5,4.48   c-2.48,0-4.48-2-4.48-4.48v-12.83h-6.25v4.5h1.73v8.33C190.99,258.77,195.03,262.81,199.99,262.81z M212.02,262.54h4.53v-12.67   l5.45,8.36h2.94l5.45-8.36v12.67h4.5v-21.57h-3.99l-7.45,11.32L216,240.97h-3.99V262.54z M238.33,262.54h4.53v-12.67l5.45,8.36   h2.94l5.45-8.36v12.67h4.5v-21.57h-3.99l-7.44,11.32l-7.44-11.32h-3.99V262.54z M274.86,262.81c4.99,0,9.01-4.05,9.01-9.01v-12.83   h-4.5v12.83c0,2.48-2.02,4.48-4.5,4.48c-2.48,0-4.47-2-4.47-4.48v-12.83h-6.26v4.5h1.73v8.33   C265.86,258.77,269.9,262.81,274.86,262.81z M290.26,240.97l-0.35,5.96h-3.1l-0.35-5.96H290.26z M293.28,262.54h13.27v-4.53h-8.74   v-17.04h-4.53V262.54z M320.14,251.76c0-3.61,2.91-6.55,6.52-6.55c3.61,0,6.55,2.94,6.55,6.55c0,0.94-0.27,1.86-0.73,2.61   l-2.72-2.72l-3.18,3.18l2.83,2.85c-0.83,0.38-1.75,0.59-2.75,0.59C323.05,258.28,320.14,255.37,320.14,251.76z M326.66,262.81   c2.24,0,4.34-0.68,6.07-1.81l1.57,1.54h4.31v-4.53h-2.45l-0.27-0.27c1.13-1.7,1.83-3.75,1.83-5.98c0-6.09-4.96-11.05-11.05-11.05   c-6.09,0-11.05,4.96-11.05,11.05C315.61,257.85,320.57,262.81,326.66,262.81z M350.63,262.81c4.99,0,9.01-4.05,9.01-9.01v-12.83   h-4.5v12.83c0,2.48-2.02,4.48-4.5,4.48c-2.48,0-4.47-2-4.47-4.48v-12.83h-6.26v4.5h1.73v8.33   C341.63,258.77,345.67,262.81,350.63,262.81z M368.81,252.51v-7.04h3.4c1.94,0,3.53,1.59,3.53,3.53c0,1.94-1.59,3.5-3.53,3.5   H368.81z M364.27,262.54h4.53v-5.5h2.59l3.27,5.5h5.2l-3.83-6.5c2.51-1.35,4.2-3.99,4.2-7.03c0-4.45-3.59-8.03-8.03-8.03h-7.93   v11.54h-1.73v4.53h1.73V262.54z M386.92,251.76c0-3.61,2.91-6.55,6.53-6.55c3.61,0,6.55,2.94,6.55,6.55c0,3.61-2.94,6.52-6.55,6.52   C389.84,258.28,386.92,255.37,386.92,251.76z M393.45,262.81c6.09,0,11.05-4.96,11.05-11.05c0-6.09-4.96-11.05-11.05-11.05   c-6.09,0-11.05,4.96-11.05,11.05C382.4,257.85,387.36,262.81,393.45,262.81z M193.79,289.13V276.6h2.59c3.48,0,6.28,2.8,6.28,6.28   c0,3.45-2.8,6.25-6.28,6.25H193.79z M189.26,293.66h7.12c5.96,0,10.78-4.83,10.78-10.79c0-5.96-4.82-10.78-10.78-10.78h-7.12   V293.66z M210.4,293.66h13.37v-4.53h-8.84v-4.13h6.26v-4.53h-6.26v-3.88h8.84v-4.5H210.4V293.66z M232.29,283.63v-7.04h3.4   c1.94,0,3.53,1.59,3.53,3.53c0,1.94-1.59,3.5-3.53,3.5H232.29z M227.76,293.66h4.53v-5.5h3.4c4.45,0,8.04-3.59,8.04-8.04   s-3.59-8.03-8.04-8.03h-7.93v11.54h-1.73v4.53h1.73V293.66z M250.84,282.88c0-3.61,2.91-6.55,6.53-6.55c3.61,0,6.55,2.94,6.55,6.55   s-2.94,6.52-6.55,6.52C253.75,289.4,250.84,286.49,250.84,282.88z M257.37,293.93c6.09,0,11.05-4.96,11.05-11.06   s-4.96-11.05-11.05-11.05c-6.09,0-11.05,4.96-11.05,11.05S251.27,293.93,257.37,293.93z M272.41,293.66h4.53v-6.36l1.43-1.62   l6.34,7.98h5.72l-9-11.43l9-10.14h-6.04l-7.44,8.39v-8.39h-6.25v4.5h1.72V293.66z"></path>	<path class="st1" d="M197.49,222.22v2.03h-2.75v8.36h-2.53v-8.36h-2.75v-2.03H197.49z M204.78,232.61l-3.49-4.59v4.59h-2.53v-10.39   h2.53v4.56l3.46-4.56h2.97l-4.02,5.09l4.17,5.3H204.78z M215.44,226.36v2.1h-6.51v-2.1H215.44z M221.42,232.71   c-0.76,0-1.44-0.12-2.04-0.37c-0.6-0.25-1.09-0.61-1.45-1.1c-0.35-0.48-0.54-1.07-0.56-1.75h2.7c0.04,0.39,0.17,0.68,0.4,0.89   c0.23,0.2,0.52,0.3,0.89,0.3c0.38,0,0.67-0.08,0.89-0.25c0.22-0.18,0.32-0.42,0.32-0.73c0-0.26-0.09-0.47-0.27-0.64   c-0.17-0.17-0.38-0.3-0.64-0.41c-0.25-0.11-0.6-0.23-1.07-0.37c-0.67-0.21-1.22-0.41-1.64-0.62c-0.42-0.21-0.79-0.51-1.09-0.92   c-0.3-0.4-0.46-0.93-0.46-1.58c0-0.97,0.35-1.72,1.05-2.27c0.7-0.55,1.61-0.83,2.74-0.83c1.14,0,2.07,0.28,2.77,0.83   c0.7,0.54,1.08,1.31,1.13,2.28h-2.74c-0.02-0.34-0.14-0.6-0.37-0.79c-0.23-0.2-0.51-0.3-0.87-0.3c-0.3,0-0.55,0.08-0.74,0.25   c-0.19,0.16-0.28,0.39-0.28,0.7c0,0.33,0.16,0.59,0.48,0.78c0.32,0.19,0.81,0.39,1.48,0.61c0.67,0.23,1.21,0.44,1.63,0.65   c0.42,0.21,0.79,0.51,1.1,0.91c0.3,0.4,0.46,0.9,0.46,1.52c0,0.59-0.15,1.13-0.46,1.61c-0.3,0.48-0.73,0.87-1.3,1.15   C222.88,232.57,222.2,232.71,221.42,232.71z M230.49,230.42c0.96,0,1.7-0.26,2.23-0.78c0.53-0.52,0.8-1.26,0.8-2.22   s-0.27-1.7-0.8-2.23c-0.53-0.54-1.28-0.8-2.23-0.8h-1.2v6.04H230.49z M230.66,222.22c1.09,0,2.05,0.22,2.87,0.65   c0.82,0.43,1.45,1.04,1.89,1.83c0.45,0.78,0.68,1.68,0.68,2.71c0,1.02-0.23,1.92-0.68,2.71c-0.45,0.79-1.08,1.4-1.91,1.84   c-0.82,0.43-1.77,0.65-2.85,0.65h-3.9v-10.39H230.66z M243.89,226.36v2.1h-6.51v-2.1H243.89z M249.87,232.71   c-0.76,0-1.44-0.12-2.04-0.37c-0.6-0.25-1.09-0.61-1.45-1.1c-0.35-0.48-0.54-1.07-0.56-1.75h2.69c0.04,0.39,0.18,0.68,0.4,0.89   c0.23,0.2,0.52,0.3,0.89,0.3c0.38,0,0.67-0.08,0.89-0.25c0.22-0.18,0.33-0.42,0.33-0.73c0-0.26-0.09-0.47-0.27-0.64   c-0.17-0.17-0.38-0.3-0.64-0.41c-0.25-0.11-0.61-0.23-1.07-0.37c-0.67-0.21-1.22-0.41-1.64-0.62c-0.42-0.21-0.79-0.51-1.09-0.92   c-0.31-0.4-0.46-0.93-0.46-1.58c0-0.97,0.35-1.72,1.05-2.27c0.7-0.55,1.61-0.83,2.74-0.83c1.15,0,2.07,0.28,2.77,0.83   c0.7,0.54,1.07,1.31,1.13,2.28h-2.74c-0.02-0.34-0.14-0.6-0.37-0.79c-0.23-0.2-0.52-0.3-0.87-0.3c-0.31,0-0.55,0.08-0.74,0.25   c-0.19,0.16-0.28,0.39-0.28,0.7c0,0.33,0.16,0.59,0.47,0.78c0.32,0.19,0.81,0.39,1.48,0.61c0.67,0.23,1.21,0.44,1.63,0.65   c0.43,0.21,0.79,0.51,1.1,0.91c0.3,0.4,0.46,0.9,0.46,1.52c0,0.59-0.15,1.13-0.46,1.61c-0.3,0.48-0.73,0.87-1.3,1.15   C251.33,232.57,250.65,232.71,249.87,232.71z M266.98,222.22v10.39h-2.53v-6.23l-2.33,6.23h-2.04l-2.34-6.25v6.25h-2.53v-10.39   h2.99l2.92,7.19l2.89-7.19H266.98z M272.71,226.87c0.48,0,0.84-0.11,1.08-0.34c0.24-0.23,0.36-0.55,0.36-0.96   c0-0.41-0.12-0.73-0.36-0.96c-0.23-0.23-0.6-0.34-1.08-0.34h-1.38v2.6H272.71z M276.71,225.56c0,0.6-0.14,1.16-0.41,1.66   c-0.27,0.49-0.7,0.89-1.27,1.19c-0.57,0.31-1.28,0.46-2.13,0.46h-1.57v3.73h-2.53v-10.39h4.1c0.83,0,1.53,0.14,2.1,0.43   c0.57,0.29,1,0.68,1.29,1.18C276.58,224.34,276.71,224.91,276.71,225.56z M283.7,222.22v10.39h-2.53v-10.39H283.7z M289.3,232.71   c-0.76,0-1.44-0.12-2.04-0.37c-0.6-0.25-1.09-0.61-1.45-1.1c-0.35-0.48-0.54-1.07-0.56-1.75h2.7c0.04,0.39,0.17,0.68,0.4,0.89   c0.23,0.2,0.52,0.3,0.89,0.3c0.38,0,0.67-0.08,0.89-0.25c0.21-0.18,0.32-0.42,0.32-0.73c0-0.26-0.09-0.47-0.27-0.64   c-0.17-0.17-0.38-0.3-0.64-0.41c-0.25-0.11-0.6-0.23-1.07-0.37c-0.67-0.21-1.22-0.41-1.64-0.62c-0.42-0.21-0.79-0.51-1.09-0.92   c-0.31-0.4-0.46-0.93-0.46-1.58c0-0.97,0.35-1.72,1.05-2.27c0.7-0.55,1.61-0.83,2.74-0.83c1.14,0,2.07,0.28,2.77,0.83   c0.7,0.54,1.08,1.31,1.13,2.28h-2.74c-0.02-0.34-0.14-0.6-0.37-0.79c-0.23-0.2-0.52-0.3-0.87-0.3c-0.31,0-0.56,0.08-0.74,0.25   c-0.19,0.16-0.28,0.39-0.28,0.7c0,0.33,0.16,0.59,0.48,0.78c0.31,0.19,0.81,0.39,1.48,0.61c0.67,0.23,1.21,0.44,1.63,0.65   c0.42,0.21,0.79,0.51,1.1,0.91c0.31,0.4,0.46,0.9,0.46,1.52c0,0.59-0.15,1.13-0.46,1.61c-0.3,0.48-0.73,0.87-1.3,1.15   C290.75,232.57,290.08,232.71,289.3,232.71z M297.17,230.66h3.32v1.95h-5.85v-10.39h2.53V230.66z M307.52,228.82l-1.29-3.8   l-1.27,3.8H307.52z M308.17,230.77h-3.88l-0.63,1.84h-2.65l3.76-10.39h2.93l3.76,10.39h-2.68L308.17,230.77z M324.38,222.22v10.39   h-2.53v-6.23l-2.32,6.23h-2.04l-2.34-6.25v6.25h-2.53v-10.39h2.99l2.92,7.19l2.89-7.19H324.38z M336.81,222.22v2.03h-2.75v8.36   h-2.53v-8.36h-2.75v-2.03H336.81z M340.61,224.25v2.1H344v1.95h-3.39v2.28h3.84v2.03h-6.37v-10.39h6.37v2.03H340.61z M348.62,226.9   h1.57c0.46,0,0.81-0.11,1.03-0.34c0.24-0.23,0.35-0.55,0.35-0.96c0-0.4-0.12-0.71-0.35-0.93c-0.23-0.23-0.57-0.34-1.03-0.34h-1.57   V226.9z M351.39,232.61l-2.16-3.92h-0.61v3.92h-2.53v-10.39h4.25c0.82,0,1.51,0.14,2.09,0.43c0.58,0.29,1.02,0.68,1.3,1.18   c0.29,0.49,0.43,1.05,0.43,1.66c0,0.69-0.2,1.31-0.59,1.85c-0.39,0.54-0.96,0.93-1.72,1.15l2.4,4.12H351.39z M359.65,226.87   c0.48,0,0.84-0.11,1.08-0.34c0.23-0.23,0.35-0.55,0.35-0.96c0-0.41-0.12-0.73-0.35-0.96c-0.24-0.23-0.6-0.34-1.08-0.34h-1.38v2.6   H359.65z M363.66,225.56c0,0.6-0.14,1.16-0.41,1.66c-0.28,0.49-0.7,0.89-1.27,1.19c-0.57,0.31-1.29,0.46-2.13,0.46h-1.57v3.73   h-2.53v-10.39h4.1c0.83,0,1.53,0.14,2.1,0.43c0.57,0.29,1,0.68,1.29,1.18C363.52,224.34,363.66,224.91,363.66,225.56z    M370.79,228.82l-1.29-3.8l-1.27,3.8H370.79z M371.45,230.77h-3.88l-0.62,1.84h-2.65l3.76-10.39h2.93l3.76,10.39h-2.68   L371.45,230.77z M379.62,230.42c0.96,0,1.7-0.26,2.23-0.78c0.53-0.52,0.8-1.26,0.8-2.22s-0.27-1.7-0.8-2.23   c-0.53-0.54-1.28-0.8-2.23-0.8h-1.2v6.04H379.62z M379.78,222.22c1.1,0,2.05,0.22,2.87,0.65c0.82,0.43,1.45,1.04,1.89,1.83   c0.45,0.78,0.68,1.68,0.68,2.71c0,1.02-0.23,1.92-0.68,2.71c-0.44,0.79-1.08,1.4-1.91,1.84c-0.82,0.43-1.77,0.65-2.85,0.65h-3.89   v-10.39H379.78z M389.13,222.22v6.22c0,0.62,0.15,1.1,0.46,1.44c0.31,0.34,0.76,0.5,1.35,0.5c0.59,0,1.05-0.17,1.36-0.5   c0.32-0.34,0.47-0.82,0.47-1.44v-6.22h2.53v6.2c0,0.93-0.2,1.72-0.59,2.35c-0.39,0.64-0.93,1.13-1.6,1.45   c-0.66,0.33-1.4,0.49-2.22,0.49c-0.82,0-1.56-0.16-2.21-0.47c-0.64-0.32-1.15-0.81-1.52-1.45c-0.38-0.65-0.56-1.44-0.56-2.37v-6.2   H389.13z"></path>	<path class="st2" d="M95.5,264.14c-0.02,0.97,0.03,1.91,0,2.85c0,19.45,15.74,35.22,35.22,35.22c19.48,0,35.32-15.77,35.32-35.22   c-0.03-0.95,0.02-1.89,0-2.85c-1.49,18.28-16.96,32.35-35.32,32.35C112.35,296.49,97,282.42,95.5,264.14z M95.5,255.13   c-0.02,0.93,0.03,1.84,0,2.75c0,19.45,15.74,35.21,35.22,35.21c19.48,0,35.32-15.76,35.32-35.21c-0.03-0.91,0-1.82,0-2.75   c-1.44,18.32-16.92,32.46-35.32,32.46C112.31,287.59,96.95,273.46,95.5,255.13z M95.5,245.88c0,0.89,0.03,1.85,0,2.78   c0,19.45,15.74,35.22,35.22,35.22c19.48,0,35.32-15.77,35.32-35.22c-0.03-0.93-0.04-1.89-0.05-2.78   c-1.45,18.31-16.87,32.43-35.27,32.44C112.32,278.32,96.96,264.2,95.5,245.88z"></path>	<path class="st1" d="M166.04,230.67c-21.43,0-32.19,8-33.62,28.02c-0.06,0.84-0.1,10.07-0.12,13.76   c4.66-9.15,10.16-13.91,16.22-19.29c-5.66,6.93-10.49,14.29-12.87,21.96C153.49,270.78,166.04,259.6,166.04,230.67z M95.5,230.67   c0,28.93,12.55,40.11,30.4,44.45c-2.39-7.67-7.21-15.03-12.87-21.96c6.06,5.38,11.56,10.14,16.22,19.29   c-0.02-3.69-0.06-12.92-0.12-13.76C127.69,238.67,116.93,230.67,95.5,230.67L95.5,230.67z"></path>	<path class="st1" d="M130.77,214.07l4.45,4.46c0.42,0.42,0.69,0.76,0.69,1.15c0,0.39-0.27,0.73-0.69,1.15l-4.45,4.46l-4.46-4.46   c-0.42-0.42-0.69-0.76-0.69-1.15c0-0.38,0.27-0.73,0.69-1.15L130.77,214.07z M130.77,206.3l-10.65,10.64   c-0.99,0.99-1.64,1.82-1.64,2.74c0,0.92,0.64,1.74,1.64,2.74c3.55,3.55,10.17,8.94,10.65,10.64c0.39-1.43,5.1-5.45,8.71-8.8   l0.8-0.75c1.1-1.1,2.33,0.46,1.36,1.44c-0.17,0.15-0.35,0.32-0.52,0.48c-4.35,3.94-10.16,8.98-10.35,13.55   c-0.23-5.56-8.83-11.86-12.94-15.97c-0.77-0.77-1.36-1.46-1.7-2.15v0.01c-2.41,2.39-3.2,4.7-0.36,7.54   c5.16,5.16,14.64,11.14,15,21.96c0.22-6.7,3.93-11.54,7.95-15.48c0.54-0.53,1.09-1.05,1.64-1.55c0.11-0.1,0.22-0.2,0.33-0.31   c0.48-0.43,0.94-0.85,1.41-1.26c1.32-1.18,2.59-2.3,3.66-3.37c2.84-2.84,2.05-5.15-0.36-7.54v-0.01c0,0,0,0,0,0l-4.18-4.11   L130.77,206.3z"></path>	<path class="st1" d="M130.77,202.3l-3.91-3.91c-0.36-0.37-0.67-0.61-1-0.61c-0.34,0-0.64,0.24-1.01,0.61l-3.91,3.91l3.91,3.91   c0.37,0.36,0.67,0.6,1.01,0.6c0.34,0,0.64-0.24,1-0.6L130.77,202.3z"></path>	<path class="st1" d="M140.61,202.3l-3.91-3.91c-0.37-0.37-0.67-0.61-1.01-0.61c-0.34,0-0.64,0.24-1,0.61l-3.91,3.91l3.91,3.91   c0.37,0.36,0.67,0.6,1,0.6c0.34,0,0.64-0.24,1.01-0.6L140.61,202.3z"></path></g></svg>